<svg width="303" height="271" viewBox="0 0 303 271" fill="none" xmlns="http://www.w3.org/2000/svg">
<g clip-path="url(#clip0_96_208)">
<path d="M292.94 143.458C294.46 123.264 289.763 102.182 283.47 83.4177C274.16 55.4801 255.981 26.8509 225.429 20.2389C207.812 16.4389 189.884 20.5125 174.775 30.0581C160.251 39.2389 148.935 51.1025 131.067 53.3977C113.002 55.7233 94.4655 54.7885 76.3092 54.7885C29.6223 54.7885 -8.26366 103.831 1.20594 154.918C10.6755 206.006 55.3331 241.429 93.2191 241.429C127.267 241.429 155.281 221.008 187.619 215.521C203.655 212.8 219.759 216.022 235.628 211.949C254.073 207.206 271.416 195.905 281.638 179.542C288.6 168.386 291.99 156.096 292.94 143.458Z" fill="#4267B2"/>
<path opacity="0.7" d="M292.94 143.458C294.46 123.264 289.763 102.182 283.47 83.4177C274.16 55.4801 255.981 26.8509 225.429 20.2389C207.812 16.4389 189.884 20.5125 174.775 30.0581C160.251 39.2389 148.935 51.1025 131.067 53.3977C113.002 55.7233 94.4655 54.7885 76.3092 54.7885C29.6223 54.7885 -8.26366 103.831 1.20594 154.918C10.6755 206.006 55.3331 241.429 93.2191 241.429C127.267 241.429 155.281 221.008 187.619 215.521C203.655 212.8 219.759 216.022 235.628 211.949C254.073 207.206 271.416 195.905 281.638 179.542C288.6 168.386 291.99 156.096 292.94 143.458Z" fill="white"/>
<path d="M287.475 136.367C287.475 136.367 287.475 132.567 282.155 127.3C276.835 122.033 273.461 118.978 273.461 118.978C273.461 118.978 270.816 127.672 275.741 132.97C279.356 136.69 283.276 140.102 287.46 143.169L287.475 136.367Z" fill="#D2832D"/>
<path d="M279.799 159.972C279.799 159.972 279.799 156.172 274.479 150.906C269.159 145.639 265.8 142.584 265.8 142.584C265.8 142.584 263.148 151.278 268.08 156.575C271.695 160.296 275.615 163.707 279.799 166.774V159.972Z" fill="#D2832D"/>
<path d="M287.141 142.804C287.141 142.804 287.543 139.05 293.365 134.345C299.187 129.641 302.888 126.996 302.888 126.996C302.888 126.996 304.598 135.918 299.156 140.676C295.168 143.995 290.91 146.974 286.426 149.583L287.141 142.804Z" fill="#D2832D"/>
<path d="M277.869 170.681C277.869 170.681 278.629 166.987 284.944 162.921C291.26 158.855 295.182 156.613 295.182 156.613C295.182 156.613 295.942 165.672 290.036 169.814C285.721 172.696 281.174 175.213 276.44 177.338L277.869 170.681Z" fill="#D2832D"/>
<path d="M279.609 201.081C279.609 201.081 279.609 197.281 284.929 192.006C290.249 186.732 293.616 183.692 293.616 183.692C293.616 183.692 296.269 192.386 291.336 197.676C287.722 201.4 283.802 204.814 279.617 207.883L279.609 201.081Z" fill="#D2832D"/>
<path d="M279.525 208.498C279.525 208.498 280.057 204.759 275.573 198.77C271.089 192.782 268.148 189.301 268.148 189.301C268.148 189.301 264.295 197.532 268.407 203.467C271.455 207.665 274.848 211.6 278.553 215.232L279.525 208.498Z" fill="#D2832D"/>
<path d="M274.305 230.485C274.305 230.485 274.305 226.685 279.625 221.418C284.945 216.152 288.319 213.096 288.319 213.096C288.319 213.096 290.964 221.791 286.039 227.088C282.423 230.81 278.503 234.224 274.32 237.295L274.305 230.485Z" fill="#D2832D"/>
<path d="M277.838 250.42C277.838 250.42 276.881 246.764 280.658 240.304C284.435 233.844 286.966 230.06 286.966 230.06C286.966 230.06 291.724 237.796 288.311 244.165C285.758 248.68 282.832 252.974 279.564 257.002L277.838 250.42Z" fill="#D2832D"/>
<path d="M287.954 135.402C287.688 139.337 287.206 143.254 286.51 147.136C284.413 157.943 279.184 164.92 277.094 174.678C275.004 184.437 281.008 197.015 279.374 209.555C277.74 222.095 272.891 229.064 274.282 237.432C275.673 245.799 282.999 268.462 282.999 268.462" stroke="#263238" stroke-linecap="round" stroke-linejoin="round"/>
<path d="M287.095 145.32L292.795 140.942" stroke="#263238" stroke-linecap="round" stroke-linejoin="round"/>
<path d="M287.361 140.281L284.967 136.032" stroke="#263238" stroke-linecap="round" stroke-linejoin="round"/>
<path d="M277.413 174.23C277.413 174.23 282.186 170.65 287.095 167.071" stroke="#263238" stroke-linecap="round" stroke-linejoin="round"/>
<path d="M279.799 166.774C279.799 166.774 275.817 158.977 271.31 153.809" stroke="#263238" stroke-linecap="round" stroke-linejoin="round"/>
<path d="M279.799 206.462C282.522 201.43 285.963 196.822 290.014 192.782" stroke="#263238" stroke-linecap="round" stroke-linejoin="round"/>
<path d="M278.872 211.766C277.424 208.355 275.693 205.07 273.697 201.947C270.915 197.836 270.512 197.304 270.512 197.304" stroke="#263238" stroke-linecap="round" stroke-linejoin="round"/>
<path d="M274.305 237.432C275.516 234.436 276.954 231.537 278.606 228.76C280.259 226.179 282.122 223.738 284.177 221.464" stroke="#263238" stroke-linecap="round" stroke-linejoin="round"/>
<path d="M279.564 257.002C279.287 254.137 279.78 251.251 280.993 248.642C282.984 244.796 285.233 239.757 286.161 237.766" stroke="#263238" stroke-linecap="round" stroke-linejoin="round"/>
<path d="M244.292 186.869C244.292 186.869 243.882 184.498 246.625 180.599C249.369 176.7 251.185 174.443 251.185 174.443C251.185 174.443 253.785 179.611 251.277 183.456C249.414 186.184 247.327 188.752 245.037 191.132L244.292 186.869Z" fill="#D2832D"/>
<path d="M251.672 200.838C251.672 200.838 251.261 198.466 254.005 194.568C256.748 190.669 258.565 188.412 258.565 188.412C258.565 188.412 261.164 193.58 258.656 197.433C256.792 200.157 254.705 202.722 252.416 205.101L251.672 200.838Z" fill="#D2832D"/>
<path d="M245.196 190.866C245.196 190.866 244.543 188.586 240.378 186.238C236.213 183.89 233.614 182.658 233.614 182.658C233.614 182.658 233.508 188.442 237.414 190.828C240.274 192.475 243.266 193.881 246.359 195.031L245.196 190.866Z" fill="#D2832D"/>
<path d="M254.043 207.343C254.043 207.343 253.146 205.109 248.768 203.239C244.391 201.37 241.655 200.397 241.655 200.397C241.655 200.397 242.156 206.158 246.321 208.118C249.339 209.456 252.463 210.539 255.662 211.356L254.043 207.343Z" fill="#D2832D"/>
<path d="M256.247 226.594C256.247 226.594 255.844 224.223 251.945 221.479C248.046 218.736 245.592 217.208 245.592 217.208C245.592 217.208 244.877 222.946 248.533 225.728C251.203 227.672 254.033 229.388 256.992 230.858L256.247 226.594Z" fill="#D2832D"/>
<path d="M257.113 231.238C257.113 231.238 256.353 228.958 258.534 224.702C260.715 220.446 262.159 217.96 262.159 217.96C262.159 217.96 265.465 222.703 263.535 226.875C262.081 229.837 260.38 232.672 258.451 235.349L257.113 231.238Z" fill="#D2832D"/>
<path d="M263.756 250.352C263.756 250.352 264.029 247.965 267.761 245.032C271.493 242.098 273.841 240.403 273.841 240.403C273.841 240.403 274.882 246.096 271.394 249.082C268.839 251.173 266.114 253.047 263.247 254.684L263.756 250.352Z" fill="#D2832D"/>
<path d="M262.76 244.454C262.76 244.454 262.349 242.083 258.458 239.339C254.567 236.596 252.12 235.068 252.12 235.068C252.12 235.068 251.405 240.806 255.061 243.595C257.734 245.537 260.563 247.253 263.52 248.725L262.76 244.454Z" fill="#D2832D"/>
<path d="M262.76 257.344C262.76 257.344 262.958 254.942 259.887 251.302C256.817 247.661 254.826 245.564 254.826 245.564C254.826 245.564 252.675 250.929 255.51 254.554C257.588 257.107 259.876 259.482 262.35 261.653L262.76 257.344Z" fill="#D2832D"/>
<path d="M243.889 186.306C244.484 188.746 245.212 191.151 246.07 193.511C248.556 200.062 252.591 203.87 254.962 209.76C257.334 215.65 254.962 224.2 257.303 231.884C259.644 239.567 263.52 243.413 263.52 248.809C263.52 254.205 261.422 269.215 261.422 269.215" stroke="#263238" stroke-linecap="round" stroke-linejoin="round"/>
<path d="M245.508 192.432L241.457 190.312" stroke="#263238" stroke-linecap="round" stroke-linejoin="round"/>
<path d="M244.793 189.301L245.827 186.382" stroke="#263238" stroke-linecap="round" stroke-linejoin="round"/>
<path d="M254.712 209.517C254.712 209.517 251.33 207.792 247.872 206.074" stroke="#263238" stroke-linecap="round" stroke-linejoin="round"/>
<path d="M252.409 205.101C253.406 201.97 254.717 198.947 256.323 196.08" stroke="#263238" stroke-linecap="round" stroke-linejoin="round"/>
<path d="M256.718 229.984C254.463 227.13 251.805 224.619 248.829 222.528" stroke="#263238" stroke-linecap="round" stroke-linejoin="round"/>
<path d="M257.873 233.206C258.414 230.913 259.144 228.668 260.054 226.495C261.354 223.615 261.574 223.235 261.574 223.235" stroke="#263238" stroke-linecap="round" stroke-linejoin="round"/>
<path d="M263.338 252.905C264.656 251.272 266.116 249.759 267.7 248.383C268.708 247.641 269.654 246.817 270.527 245.921" stroke="#263238" stroke-linecap="round" stroke-linejoin="round"/>
<path d="M263.52 248.809C262.434 247.057 261.217 245.391 259.88 243.823C258.562 242.385 257.129 241.058 255.593 239.856" stroke="#263238" stroke-linecap="round" stroke-linejoin="round"/>
<path d="M262.35 261.653C262.214 259.825 261.592 258.067 260.549 256.561C258.884 254.364 256.923 251.446 256.125 250.298" stroke="#263238" stroke-linecap="round" stroke-linejoin="round"/>
<path d="M28.4294 153.763L25.1006 144.256L28.4294 148.291L25.815 134.026L29.8582 144.256L31.287 124.275L33.6658 143.298L36.2802 139.498V144.256L39.3734 137.834L37.709 149.006L40.559 147.106L36.0446 153.284L28.4294 153.763Z" fill="#D2832D"/>
<path d="M38.8945 151.384H26.5293L28.7561 176.35H36.6677L38.8945 151.384Z" fill="#263238" stroke="#263238" stroke-linecap="round" stroke-linejoin="round"/>
<path d="M62.0897 176.069H19.9629V265.293H62.0897V176.069Z" fill="white" stroke="#263238" stroke-linecap="round" stroke-linejoin="round"/>
<path d="M64.3925 176.069H41.0225V265.293H64.3925V176.069Z" fill="white" stroke="#263238" stroke-linecap="round" stroke-linejoin="round"/>
<path d="M61.7629 176.069H41.0225V265.293H61.7629V176.069Z" fill="#263238" stroke="#263238" stroke-linecap="round" stroke-linejoin="round"/>
<path d="M59.4297 244.545H41.0225V262.816H59.4297V244.545Z" fill="#D2832D" stroke="#263238" stroke-linecap="round" stroke-linejoin="round"/>
<path d="M59.4297 245.533H41.0225V247.874H59.4297V245.533Z" fill="white" stroke="#263238" stroke-linecap="round" stroke-linejoin="round"/>
<path d="M59.4297 258.985H41.0225V261.326H59.4297V258.985Z" fill="white" stroke="#263238" stroke-linecap="round" stroke-linejoin="round"/>
<path d="M44.511 244.925V268.029" stroke="#263238" stroke-linecap="round" stroke-linejoin="round"/>
<path d="M50.9329 244.925V268.029" stroke="#263238" stroke-linecap="round" stroke-linejoin="round"/>
<path d="M56.572 244.925V268.029" stroke="#263238" stroke-linecap="round" stroke-linejoin="round"/>
<path d="M59.4297 179.383H41.0225V206.249H59.4297V179.383Z" fill="#D2832D" stroke="#263238" stroke-linecap="round" stroke-linejoin="round"/>
<path d="M59.4297 180.508H41.0225V183.168H59.4297V180.508Z" fill="white" stroke="#263238" stroke-linecap="round" stroke-linejoin="round"/>
<path d="M59.4297 197.729H41.0225V200.389H59.4297V197.729Z" fill="white" stroke="#263238" stroke-linecap="round" stroke-linejoin="round"/>
<path d="M44.511 179.808V206.066" stroke="#263238" stroke-linecap="round" stroke-linejoin="round"/>
<path d="M50.9329 179.808V206.066" stroke="#263238" stroke-linecap="round" stroke-linejoin="round"/>
<path d="M56.572 179.808V206.066" stroke="#263238" stroke-linecap="round" stroke-linejoin="round"/>
<path d="M59.4297 211.759H41.0225V238.625H59.4297V211.759Z" fill="#D2832D" stroke="#263238" stroke-linecap="round" stroke-linejoin="round"/>
<path d="M59.4297 212.884H41.0225V215.544H59.4297V212.884Z" fill="white" stroke="#263238" stroke-linecap="round" stroke-linejoin="round"/>
<path d="M59.4297 230.105H41.0225V232.765H59.4297V230.105Z" fill="white" stroke="#263238" stroke-linecap="round" stroke-linejoin="round"/>
<path d="M44.511 212.192V238.442" stroke="#263238" stroke-linecap="round" stroke-linejoin="round"/>
<path d="M50.9329 212.192V238.442" stroke="#263238" stroke-linecap="round" stroke-linejoin="round"/>
<path d="M56.572 212.192V238.442" stroke="#263238" stroke-linecap="round" stroke-linejoin="round"/>
<path d="M62.0821 205.876H41.0225V208.932H62.0821V205.876Z" fill="white" stroke="#263238" stroke-linecap="round" stroke-linejoin="round"/>
<path d="M62.0821 238.458H41.0225V241.513H62.0821V238.458Z" fill="white" stroke="#263238" stroke-linecap="round" stroke-linejoin="round"/>
<path d="M62.082 176.069V265.285" stroke="#263238" stroke-linecap="round" stroke-linejoin="round"/>
<path d="M38.0508 176.069V265.286H41.0224V179.383H61.7172V176.031L38.0508 176.069Z" fill="white" stroke="#263238" stroke-linecap="round" stroke-linejoin="round"/>
<path d="M41.0225 179.383V176.069" stroke="#263238" stroke-linecap="round" stroke-linejoin="round"/>
<path d="M61.9227 135.082C59.7111 130.819 58.7839 127.764 58.7839 127.057C58.7839 125.658 61.8239 124.822 61.8239 124.822C66.5663 122.314 88.8723 125.94 98.9119 127.612C104.532 128.591 110.217 129.15 115.921 129.284C115.921 129.284 117.312 128.174 118.961 126.776C120.61 125.377 128.438 116.181 131.508 115.376C134.579 114.57 137.36 116.493 137.36 116.493C137.36 116.493 142.384 119.533 141.54 120.118C140.697 120.703 128.438 131.267 125.368 133.22C122.297 135.174 115.89 134.338 110.312 135.455C105.509 136.412 86.0527 137.598 81.5915 137.963C78.2411 138.757 74.7248 138.465 71.5519 137.127" fill="white"/>
<mask id="mask0_96_208" style="mask-type:luminance" maskUnits="userSpaceOnUse" x="58" y="115" width="84" height="24">
<path d="M61.9227 135.082C59.7111 130.819 58.7839 127.764 58.7839 127.057C58.7839 125.658 61.8239 124.822 61.8239 124.822C66.5663 122.314 88.8723 125.94 98.9119 127.612C104.532 128.591 110.217 129.15 115.921 129.284C115.921 129.284 117.312 128.174 118.961 126.776C120.61 125.377 128.438 116.181 131.508 115.376C134.579 114.57 137.36 116.493 137.36 116.493C137.36 116.493 142.384 119.533 141.54 120.118C140.697 120.703 128.438 131.267 125.368 133.22C122.297 135.174 115.89 134.338 110.312 135.455C105.509 136.412 86.0527 137.598 81.5915 137.963C78.2411 138.757 74.7248 138.465 71.5519 137.127" fill="white"/>
</mask>
<g mask="url(#mask0_96_208)">
<path d="M137.414 116.462C137.414 116.462 134.624 114.509 131.562 115.345C128.499 116.181 120.686 125.385 119.014 126.745C117.342 128.106 115.974 129.253 115.974 129.253C110.271 129.12 104.585 128.561 98.9652 127.581C88.9256 125.909 66.6196 122.261 61.8772 124.792C61.8772 124.792 58.8372 125.628 58.8372 127.026C58.9428 127.808 59.1444 128.574 59.4376 129.306L59.8556 129.458C59.8556 129.458 65.4264 128.873 77.4496 129.162C89.4728 129.451 117.281 131.1 119.067 131.746C119.827 132.035 125.216 130.819 131.189 128.706C135.749 124.99 141.107 120.346 141.647 120.019C142.437 119.525 137.414 116.462 137.414 116.462Z" fill="#4267B2"/>
<path opacity="0.5" d="M137.414 116.462C137.414 116.462 134.624 114.509 131.562 115.345C128.499 116.181 120.686 125.385 119.014 126.745C117.342 128.106 115.974 129.253 115.974 129.253C110.271 129.12 104.585 128.561 98.9652 127.581C88.9256 125.909 66.6196 122.261 61.8772 124.792C61.8772 124.792 58.8372 125.628 58.8372 127.026C58.9428 127.808 59.1444 128.574 59.4376 129.306L59.8556 129.458C59.8556 129.458 65.4264 128.873 77.4496 129.162C89.4728 129.451 117.281 131.1 119.067 131.746C119.827 132.035 125.216 130.819 131.189 128.706C135.749 124.99 141.107 120.346 141.647 120.019C142.437 119.525 137.414 116.462 137.414 116.462Z" fill="white"/>
</g>
<path d="M61.9227 135.082C59.7111 130.819 58.7839 127.764 58.7839 127.057C58.7839 125.658 61.8239 124.822 61.8239 124.822C66.5663 122.314 88.8723 125.94 98.9119 127.612C104.532 128.591 110.217 129.15 115.921 129.284C115.921 129.284 117.312 128.174 118.961 126.776C120.61 125.377 128.438 116.181 131.508 115.376C134.579 114.57 137.36 116.493 137.36 116.493C137.36 116.493 142.384 119.533 141.54 120.118C140.697 120.703 128.438 131.267 125.368 133.22C122.297 135.174 115.89 134.338 110.312 135.455C105.509 136.412 86.0527 137.598 81.5915 137.963C78.2411 138.757 74.7248 138.465 71.5519 137.127" stroke="#263238" stroke-linecap="round" stroke-linejoin="round"/>
<path d="M172.054 159.874C172.559 158.916 173.315 158.115 174.242 157.556C175.169 156.997 176.231 156.703 177.313 156.704H228.005C228.005 156.704 231.669 156.704 230.574 163.666C229.48 170.628 214.447 213.134 210.814 225.986C207.181 238.838 206.414 265.924 206.414 265.924H145.614C145.614 265.924 150.432 201.149 172.054 159.874Z" fill="white"/>
<mask id="mask1_96_208" style="mask-type:luminance" maskUnits="userSpaceOnUse" x="145" y="156" width="86" height="110">
<path d="M172.054 159.874C172.559 158.916 173.315 158.115 174.242 157.556C175.169 156.997 176.231 156.703 177.313 156.704H228.005C228.005 156.704 231.669 156.704 230.574 163.666C229.48 170.628 214.447 213.134 210.814 225.986C207.181 238.838 206.414 265.924 206.414 265.924H145.614C145.614 265.924 150.432 201.149 172.054 159.874Z" fill="white"/>
</mask>
<g mask="url(#mask1_96_208)">
<path opacity="0.16" d="M194.885 156.704H177.313C176.231 156.703 175.169 156.997 174.242 157.556C173.315 158.115 172.559 158.916 172.054 159.874C150.432 201.149 145.561 265.901 145.561 265.901H172.829L179.555 240.358L207.599 246.141C207.797 243.998 208.025 241.817 208.291 239.666L207.675 232.826C207.675 232.826 201.93 226.784 200.121 225.272C198.312 223.759 199.513 221.031 199.209 209.243C198.905 197.456 188.326 188.982 184.389 181.724C180.452 174.466 186.509 169.928 191.951 162.67C193.889 160.048 194.679 158.118 194.885 156.704Z" fill="#1F1F1F"/>
</g>
<path d="M172.054 159.874C172.559 158.916 173.315 158.115 174.242 157.556C175.169 156.997 176.231 156.703 177.313 156.704H228.005C228.005 156.704 231.669 156.704 230.574 163.666C229.48 170.628 214.447 213.134 210.814 225.986C207.181 238.838 206.414 265.924 206.414 265.924H145.614C145.614 265.924 150.432 201.149 172.054 159.874Z" stroke="#263238" stroke-linecap="round" stroke-linejoin="round"/>
<path d="M219.212 168.796C214.09 180.751 203.252 228.076 201.489 265.901H206.384C206.384 265.901 207.144 238.784 210.784 225.963C214.424 213.142 229.472 170.628 230.544 163.643C231.616 156.659 227.975 156.682 227.975 156.682C227.975 156.682 223.324 159.212 219.212 168.796Z" fill="#263238" stroke="#263238" stroke-linecap="round" stroke-linejoin="round"/>
<path d="M130.163 144.902C130.163 144.902 122.077 140.159 119.014 131.799C115.951 123.439 142.992 110.048 154.734 109.212C166.476 108.376 169.789 111.439 176.774 123.432C183.758 135.424 188.485 151.871 184.86 159.957C181.235 168.044 175.102 169.997 179.54 176.677C183.979 183.358 196.549 202.327 195.713 211.25C194.877 220.172 186.236 227.97 173.673 228.821C161.11 229.672 144.39 222.125 130.452 209.821C116.513 197.516 120.131 179.421 125.132 173.569C130.133 167.717 137.679 165.482 138.234 159.63C138.789 153.778 130.163 144.902 130.163 144.902Z" fill="#263238" stroke="#263238" stroke-linecap="round" stroke-linejoin="round"/>
<path d="M164.629 131.67C168.923 139.665 174.296 150.374 175.976 156.841C178.91 168.165 163.816 175.294 168.004 180.743" stroke="white" stroke-linecap="round" stroke-linejoin="round"/>
<path d="M158.777 121.197C158.777 121.197 160.449 124.047 162.76 128.242" stroke="white" stroke-linecap="round" stroke-linejoin="round"/>
<path d="M181.303 141.314C181.799 142.813 182.12 144.363 182.261 145.935" stroke="white" stroke-linecap="round" stroke-linejoin="round"/>
<path d="M161.68 117.04C161.68 117.04 174.889 126.798 180.163 138.48" stroke="white" stroke-linecap="round" stroke-linejoin="round"/>
<path d="M143.349 124.359C133.918 127.004 120.352 131.298 121.454 133.775" stroke="white" stroke-linecap="round" stroke-linejoin="round"/>
<path d="M152.066 122.033C152.066 122.033 150.052 122.535 147.05 123.34" stroke="white" stroke-linecap="round" stroke-linejoin="round"/>
<path d="M140.4 117.108C145.803 115.406 151.461 114.66 157.12 114.904" stroke="white" stroke-linecap="round" stroke-linejoin="round"/>
<path d="M136.555 118.682C137.409 118.236 138.293 117.851 139.199 117.526" stroke="white" stroke-linecap="round" stroke-linejoin="round"/>
<path d="M61.9226 135.082C60.6426 132.738 59.6232 130.261 58.8826 127.695C59.6196 130.262 60.6392 132.74 61.9226 135.082ZM58.799 127.262C58.799 127.308 58.799 127.361 58.799 127.429C58.8142 127.361 58.8066 127.308 58.799 127.262ZM61.9226 135.075C64.765 140.458 68.3013 145.446 72.441 149.91C82.4806 160.786 111.482 189.232 114.241 191.186C117 193.139 116.194 198.71 114.241 204.288C112.288 209.866 105.037 217.968 105.319 226.875C105.6 235.782 108.359 249.462 108.108 252.252C107.857 255.041 100.88 264.526 100.88 264.526H172.822C172.822 264.526 163.854 253.126 163.854 249.227C163.854 245.328 176.166 195.373 176.721 191.748C177.275 188.123 175.049 185.615 170.587 185.334C166.126 185.052 149.117 181.427 148.281 178.638C147.445 175.849 152.743 165.254 152.743 165.254L136.023 166.09C136.023 166.09 135.187 173.341 134.069 174.739C132.952 176.138 131.28 173.341 127.374 171.395C123.467 169.45 115.974 167.77 113.154 165.536C110.335 163.301 83.5978 138.176 83.5978 138.176" fill="white"/>
<mask id="mask2_96_208" style="mask-type:luminance" maskUnits="userSpaceOnUse" x="58" y="127" width="119" height="138">
<path d="M61.9226 135.082C60.6426 132.738 59.6232 130.261 58.8826 127.695C59.6196 130.262 60.6392 132.74 61.9226 135.082ZM58.799 127.262C58.799 127.308 58.799 127.361 58.799 127.429C58.8142 127.361 58.8066 127.308 58.799 127.262ZM61.9226 135.075C64.765 140.458 68.3013 145.446 72.441 149.91C82.4806 160.786 111.482 189.232 114.241 191.186C117 193.139 116.194 198.71 114.241 204.288C112.288 209.866 105.037 217.968 105.319 226.875C105.6 235.782 108.359 249.462 108.108 252.252C107.857 255.041 100.88 264.526 100.88 264.526H172.822C172.822 264.526 163.854 253.126 163.854 249.227C163.854 245.328 176.166 195.373 176.721 191.748C177.275 188.123 175.049 185.615 170.587 185.334C166.126 185.052 149.117 181.427 148.281 178.638C147.445 175.849 152.743 165.254 152.743 165.254L136.023 166.09C136.023 166.09 135.187 173.341 134.069 174.739C132.952 176.138 131.28 173.341 127.374 171.395C123.467 169.45 115.974 167.77 113.154 165.536C110.335 163.301 83.5978 138.176 83.5978 138.176" fill="white"/>
</mask>
<g mask="url(#mask2_96_208)">
<path d="M117.426 167.686C118.816 170.118 120.207 172.315 120.207 172.315C120.207 172.315 124.896 174.952 126.067 174.952C127.237 174.952 134.275 178.752 134.275 178.752C134.275 178.752 140.142 177.285 138.075 172.3C137.423 171.023 136.599 169.842 135.628 168.788C135.278 171 134.716 173.896 134.054 174.724C132.937 176.115 131.265 173.326 127.359 171.38C124.828 170.118 120.732 168.963 117.426 167.686Z" fill="#4267B2"/>
<path d="M103.107 156.4C94.4963 148.428 83.5979 138.206 83.5979 138.206L77.2595 137.294L76.4995 137.72C76.4995 137.72 94.3899 153.55 98.1975 155.314C99.7379 156.022 101.412 156.392 103.107 156.4Z" fill="#4267B2"/>
<path d="M112.128 164.654L111.444 164.046C111.794 164.623 111.992 164.988 111.992 164.988L112.128 164.654Z" fill="#4267B2"/>
<g opacity="0.5">
<path d="M117.426 167.686C118.816 170.118 120.207 172.315 120.207 172.315C120.207 172.315 124.896 174.952 126.067 174.952C127.237 174.952 134.275 178.752 134.275 178.752C134.275 178.752 140.142 177.285 138.075 172.3C137.423 171.023 136.599 169.842 135.628 168.788C135.278 171 134.716 173.896 134.054 174.724C132.937 176.115 131.265 173.326 127.359 171.38C124.828 170.118 120.732 168.963 117.426 167.686Z" fill="white"/>
<path d="M103.107 156.4C94.4963 148.428 83.5979 138.206 83.5979 138.206L77.2595 137.294L76.4995 137.72C76.4995 137.72 94.3899 153.55 98.1975 155.314C99.7379 156.022 101.412 156.392 103.107 156.4Z" fill="white"/>
<path d="M112.128 164.654L111.444 164.046C111.794 164.623 111.992 164.988 111.992 164.988L112.128 164.654Z" fill="white"/>
</g>
</g>
<path d="M58.7838 127.057C58.7804 127.11 58.7804 127.163 58.7838 127.216M58.8826 127.695C59.6232 130.261 60.6426 132.738 61.9226 135.082C60.6392 132.74 59.6196 130.262 58.8826 127.695ZM58.8826 127.695C58.8617 127.623 58.8464 127.549 58.837 127.475M61.9226 135.075C64.765 140.458 68.3013 145.446 72.441 149.91C82.4806 160.786 111.482 189.232 114.241 191.186C117 193.139 116.194 198.71 114.241 204.288C112.288 209.866 105.037 217.968 105.319 226.875C105.6 235.782 108.359 249.462 108.108 252.252C107.857 255.041 100.88 264.526 100.88 264.526H172.822C172.822 264.526 163.854 253.126 163.854 249.227C163.854 245.328 176.166 195.373 176.721 191.748C177.275 188.123 175.049 185.615 170.587 185.334C166.126 185.052 149.117 181.427 148.281 178.638C147.445 175.849 152.743 165.254 152.743 165.254L136.023 166.09C136.023 166.09 135.187 173.341 134.069 174.739C132.952 176.138 131.28 173.341 127.374 171.395C123.467 169.45 115.974 167.77 113.154 165.536C110.335 163.301 83.5978 138.176 83.5978 138.176M58.799 127.262C58.799 127.308 58.799 127.361 58.799 127.429C58.8142 127.361 58.8066 127.308 58.799 127.262Z" stroke="#263238" stroke-linecap="round" stroke-linejoin="round"/>
<path d="M83.5978 138.206C83.5978 138.206 74.6906 138.373 69.7202 134.277" stroke="#263238" stroke-linecap="round" stroke-linejoin="round"/>
<path d="M148.289 178.638C147.453 175.856 152.75 165.254 152.75 165.254L136.03 166.09C136.03 166.09 135.194 173.341 134.077 174.739C132.96 176.138 131.288 173.341 127.381 171.395C127.085 171.243 126.758 171.099 126.424 170.954L125.413 186.846C125.413 186.846 126.88 202.236 144.466 199.31C151.587 198.124 159.187 191.771 165.746 184.627C158.997 183.388 148.927 180.774 148.289 178.638Z" fill="white"/>
<mask id="mask3_96_208" style="mask-type:luminance" maskUnits="userSpaceOnUse" x="125" y="165" width="41" height="35">
<path d="M148.289 178.638C147.453 175.856 152.75 165.254 152.75 165.254L136.03 166.09C136.03 166.09 135.194 173.341 134.077 174.739C132.96 176.138 131.288 173.341 127.381 171.395C127.085 171.243 126.758 171.099 126.424 170.954L125.413 186.846C125.413 186.846 126.88 202.236 144.466 199.31C151.587 198.124 159.187 191.771 165.746 184.627C158.997 183.388 148.927 180.774 148.289 178.638Z" fill="white"/>
</mask>
<g mask="url(#mask3_96_208)">
<path d="M147.818 167.36C147.818 167.36 146.807 173.029 145.994 179.299C145.181 185.569 144.58 190.236 144.58 190.236L148.289 178.638L152.469 166.349C152.469 166.349 148.426 166.349 147.818 167.36Z" fill="#4267B2"/>
<path opacity="0.5" d="M147.818 167.36C147.818 167.36 146.807 173.029 145.994 179.299C145.181 185.569 144.58 190.236 144.58 190.236L148.289 178.638L152.469 166.349C152.469 166.349 148.426 166.349 147.818 167.36Z" fill="white"/>
</g>
<path d="M148.289 178.638C147.453 175.856 152.75 165.254 152.75 165.254L136.03 166.09C136.03 166.09 135.194 173.341 134.077 174.739C132.96 176.138 131.288 173.341 127.381 171.395C127.085 171.243 126.758 171.099 126.424 170.954L125.413 186.846C125.413 186.846 126.88 202.236 144.466 199.31C151.587 198.124 159.187 191.771 165.746 184.627C158.997 183.388 148.927 180.774 148.289 178.638Z" stroke="#263238" stroke-linecap="round" stroke-linejoin="round"/>
<path d="M134.07 174.739C132.952 176.13 131.28 173.341 127.374 171.395C124.912 170.156 120.99 169.032 117.745 167.816C116.825 165.634 115.609 162.792 114.826 161.074C113.436 158.034 111.201 159.957 111.201 159.957C110.035 158.631 109.093 157.125 108.412 155.496C107.021 152.456 104.787 152.707 101.724 152.152C98.6611 151.597 92.2391 145.738 92.2391 145.738C92.2391 145.738 89.2371 143.458 87.9983 142.325C86.5543 145.168 83.0963 150.168 75.6179 153.292C87.5423 165.748 111.733 189.415 114.272 191.193C117.061 193.139 116.225 198.717 114.272 204.296C112.318 209.874 105.068 217.976 105.349 226.883C105.63 235.79 108.389 249.47 108.138 252.259C107.888 254.744 102.324 262.534 101.116 264.206L103.951 264.526H118.71C118.626 257.047 118.634 226.526 123.749 214.366C129.608 200.389 134.07 174.739 134.07 174.739Z" fill="#4267B2"/>
<mask id="mask4_96_208" style="mask-type:luminance" maskUnits="userSpaceOnUse" x="75" y="142" width="60" height="123">
<path d="M134.07 174.739C132.952 176.13 131.28 173.341 127.374 171.395C124.912 170.156 120.99 169.032 117.745 167.816C116.825 165.634 115.609 162.792 114.826 161.074C113.436 158.034 111.201 159.957 111.201 159.957C110.035 158.631 109.093 157.125 108.412 155.496C107.021 152.456 104.787 152.707 101.724 152.152C98.6611 151.597 92.2391 145.738 92.2391 145.738C92.2391 145.738 89.2371 143.458 87.9983 142.325C86.5543 145.168 83.0963 150.168 75.6179 153.292C87.5423 165.748 111.733 189.415 114.272 191.193C117.061 193.139 116.225 198.717 114.272 204.296C112.318 209.874 105.068 217.976 105.349 226.883C105.63 235.79 108.389 249.47 108.138 252.259C107.888 254.744 102.324 262.534 101.116 264.206L103.951 264.526H118.71C118.626 257.047 118.634 226.526 123.749 214.366C129.608 200.389 134.07 174.739 134.07 174.739Z" fill="white"/>
</mask>
<g mask="url(#mask4_96_208)">
<path opacity="0.16" d="M127.374 171.395C124.912 170.156 120.99 169.032 117.745 167.816C116.825 165.634 115.609 162.792 114.826 161.074C113.436 158.034 111.201 159.957 111.201 159.957C110.036 158.631 109.093 157.125 108.412 155.496C107.021 152.456 104.787 152.707 101.724 152.152C98.6612 151.597 92.2392 145.738 92.2392 145.738C92.2392 145.738 89.2372 143.458 87.9984 142.325C87.3803 143.532 86.6446 144.675 85.802 145.738C90.7876 149.956 96.29 154.424 98.2128 155.314C102.013 157.069 102.902 155.602 105.813 157.366C108.724 159.129 111.969 164.966 111.969 164.966C111.969 164.966 113.732 160.269 115.199 163.499C116.666 166.729 120.184 172.292 120.184 172.292C120.184 172.292 124.874 174.929 126.044 174.929C126.964 174.929 131.47 177.27 133.386 178.281C133.811 176.054 134.047 174.716 134.047 174.716C132.952 176.13 131.28 173.341 127.374 171.395Z" fill="#1F1F1F"/>
</g>
<path d="M134.07 174.739C132.952 176.13 131.28 173.341 127.374 171.395C124.912 170.156 120.99 169.032 117.745 167.816C116.825 165.634 115.609 162.792 114.826 161.074C113.436 158.034 111.201 159.957 111.201 159.957C110.035 158.631 109.093 157.125 108.412 155.496C107.021 152.456 104.787 152.707 101.724 152.152C98.6611 151.597 92.2391 145.738 92.2391 145.738C92.2391 145.738 89.2371 143.458 87.9983 142.325C86.5543 145.168 83.0963 150.168 75.6179 153.292C87.5423 165.748 111.733 189.415 114.272 191.193C117.061 193.139 116.225 198.717 114.272 204.296C112.318 209.874 105.068 217.976 105.349 226.883C105.63 235.79 108.389 249.47 108.138 252.259C107.888 254.744 102.324 262.534 101.116 264.206L103.951 264.526H118.71C118.626 257.047 118.634 226.526 123.749 214.366C129.608 200.389 134.07 174.739 134.07 174.739Z" stroke="#263238" stroke-linecap="round" stroke-linejoin="round"/>
<path d="M134.267 173.766C134.267 173.766 130.801 172.702 128.666 174.572C126.53 176.442 123.346 186.033 121.469 196.437C120.312 202.494 121.11 208.762 123.749 214.335C123.749 214.335 128.134 202.836 129.464 197.235C130.794 191.634 134.267 173.766 134.267 173.766Z" fill="#4267B2"/>
<mask id="mask5_96_208" style="mask-type:luminance" maskUnits="userSpaceOnUse" x="120" y="173" width="15" height="42">
<path d="M134.267 173.766C134.267 173.766 130.801 172.702 128.666 174.572C126.53 176.442 123.346 186.033 121.469 196.437C120.312 202.494 121.11 208.762 123.749 214.335C123.749 214.335 128.134 202.836 129.464 197.235C130.794 191.634 134.267 173.766 134.267 173.766Z" fill="white"/>
</mask>
<g mask="url(#mask5_96_208)">
<path opacity="0.16" d="M127.617 175.461C127.617 175.461 130.125 174.853 131.159 175.203C132.029 175.576 132.842 176.07 133.575 176.669L134.267 173.766C133.23 173.236 132.053 173.042 130.9 173.211C129.175 173.561 127.617 175.461 127.617 175.461Z" fill="#1F1F1F"/>
</g>
<path d="M134.267 173.766C134.267 173.766 130.801 172.702 128.666 174.572C126.53 176.442 123.346 186.033 121.469 196.437C120.312 202.494 121.11 208.762 123.749 214.335C123.749 214.335 128.134 202.836 129.464 197.235C130.794 191.634 134.267 173.766 134.267 173.766Z" stroke="#263238" stroke-linecap="round" stroke-linejoin="round"/>
<path d="M110.928 174.678L115.389 192.804L105.349 169.936" stroke="#263238" stroke-linecap="round" stroke-linejoin="round"/>
<path d="M140.317 264.526H172.829C172.829 264.526 163.861 253.126 163.861 249.227C163.861 245.328 176.173 195.373 176.728 191.748C177.283 188.123 175.056 185.615 170.595 185.334C166.134 185.052 149.125 181.427 148.289 178.638C148.289 178.638 141.875 201.225 139.648 216.562C137.733 229.718 139.716 257.017 140.317 264.526Z" fill="#4267B2"/>
<mask id="mask6_96_208" style="mask-type:luminance" maskUnits="userSpaceOnUse" x="138" y="178" width="39" height="87">
<path d="M140.317 264.526H172.829C172.829 264.526 163.861 253.126 163.861 249.227C163.861 245.328 176.173 195.373 176.728 191.748C177.283 188.123 175.056 185.615 170.595 185.334C166.134 185.052 149.125 181.427 148.289 178.638C148.289 178.638 141.875 201.225 139.648 216.562C137.733 229.718 139.716 257.017 140.317 264.526Z" fill="white"/>
</mask>
<g mask="url(#mask6_96_208)">
<path opacity="0.16" d="M170.595 185.334C166.939 185.106 154.863 182.628 150.158 180.211L151.868 184.163C154.967 185.807 158.299 186.965 161.748 187.598C167.41 188.609 172.677 188.412 176.12 193.473L176.287 193.724C176.5 192.751 176.644 192.067 176.69 191.748C177.29 188.123 175.056 185.615 170.595 185.334Z" fill="#1F1F1F"/>
</g>
<path d="M140.317 264.526H172.829C172.829 264.526 163.861 253.126 163.861 249.227C163.861 245.328 176.173 195.373 176.728 191.748C177.283 188.123 175.056 185.615 170.595 185.334C166.134 185.052 149.125 181.427 148.289 178.638C148.289 178.638 141.875 201.225 139.648 216.562C137.733 229.718 139.716 257.017 140.317 264.526Z" stroke="#263238" stroke-linecap="round" stroke-linejoin="round"/>
<path d="M148.289 178.638C148.289 178.638 139.686 205.998 139.648 216.562C139.648 216.562 151.869 201.765 153.465 191.368C155.061 180.971 148.289 178.638 148.289 178.638Z" fill="#4267B2"/>
<mask id="mask7_96_208" style="mask-type:luminance" maskUnits="userSpaceOnUse" x="139" y="178" width="15" height="39">
<path d="M148.289 178.638C148.289 178.638 139.686 205.998 139.648 216.562C139.648 216.562 151.869 201.765 153.465 191.368C155.061 180.971 148.289 178.638 148.289 178.638Z" fill="white"/>
</mask>
<g mask="url(#mask7_96_208)">
<path opacity="0.16" d="M146.807 182.134C148.1 182.091 149.384 182.363 150.548 182.927C151.712 183.491 152.721 184.33 153.488 185.372C153.488 185.372 151.8 180.409 148.289 178.638L146.807 182.134Z" fill="#1F1F1F"/>
</g>
<path d="M148.289 178.638C148.289 178.638 139.686 205.998 139.648 216.562C139.648 216.562 151.869 201.765 153.465 191.368C155.061 180.971 148.289 178.638 148.289 178.638Z" stroke="#263238" stroke-linecap="round" stroke-linejoin="round"/>
<path d="M240.135 259.38C240.135 259.38 246.435 259.639 250.562 260.232C253.314 260.605 256.085 260.825 258.861 260.893C258.861 260.893 256.581 256.287 254.149 254.988C251.717 253.688 247.309 251.362 243.616 251.879C239.922 252.396 234.64 256.12 235.081 257.305C235.522 258.491 237.49 259.023 240.135 259.38Z" fill="white"/>
<mask id="mask8_96_208" style="mask-type:luminance" maskUnits="userSpaceOnUse" x="235" y="251" width="24" height="10">
<path d="M240.135 259.38C240.135 259.38 246.435 259.639 250.562 260.232C253.314 260.605 256.085 260.825 258.861 260.893C258.861 260.893 256.581 256.287 254.149 254.988C251.717 253.688 247.309 251.362 243.616 251.879C239.922 252.396 234.64 256.12 235.081 257.305C235.522 258.491 237.49 259.023 240.135 259.38Z" fill="white"/>
</mask>
<g mask="url(#mask8_96_208)">
<path d="M240.135 259.38C240.135 259.38 246.435 259.639 250.562 260.232C253.314 260.605 256.085 260.825 258.861 260.893C258.861 260.893 256.581 256.287 254.149 254.988C251.717 253.688 247.309 251.362 243.616 251.879C239.922 252.396 234.64 256.12 235.081 257.305C235.522 258.491 237.49 259.023 240.135 259.38Z" fill="#4267B2"/>
<path opacity="0.5" d="M240.135 259.38C240.135 259.38 246.435 259.639 250.562 260.232C253.314 260.605 256.085 260.825 258.861 260.893C258.861 260.893 256.581 256.287 254.149 254.988C251.717 253.688 247.309 251.362 243.616 251.879C239.922 252.396 234.64 256.12 235.081 257.305C235.522 258.491 237.49 259.023 240.135 259.38Z" fill="white"/>
</g>
<path d="M240.135 259.38C240.135 259.38 246.435 259.639 250.562 260.232C253.314 260.605 256.085 260.825 258.861 260.893C258.861 260.893 256.581 256.287 254.149 254.988C251.717 253.688 247.309 251.362 243.616 251.879C239.922 252.396 234.64 256.12 235.081 257.305C235.522 258.491 237.49 259.023 240.135 259.38Z" stroke="#263238" stroke-linecap="round" stroke-linejoin="round"/>
<path d="M250.6 257.496C250.6 257.496 255.593 254.904 256.84 254.942C258.086 254.98 266.37 260.581 265.96 261.478C265.681 261.894 265.279 262.212 264.809 262.386C264.34 262.561 263.828 262.583 263.345 262.451C262.426 262.018 256.847 259.646 256.847 259.646L253.199 260.505L250.6 257.496Z" fill="white"/>
<mask id="mask9_96_208" style="mask-type:luminance" maskUnits="userSpaceOnUse" x="250" y="254" width="16" height="9">
<path d="M250.6 257.496C250.6 257.496 255.593 254.904 256.84 254.942C258.086 254.98 266.37 260.581 265.96 261.478C265.681 261.894 265.279 262.212 264.809 262.386C264.34 262.561 263.828 262.583 263.345 262.451C262.426 262.018 256.847 259.646 256.847 259.646L253.199 260.505L250.6 257.496Z" fill="white"/>
</mask>
<g mask="url(#mask9_96_208)">
<path d="M250.6 257.496C250.6 257.496 255.593 254.904 256.84 254.942C258.086 254.98 266.37 260.581 265.96 261.478C265.549 262.375 263.588 263.104 263.345 262.451C263.102 261.797 256.847 259.646 256.847 259.646L253.199 260.505L250.6 257.496Z" fill="#4267B2"/>
<path opacity="0.5" d="M250.6 257.496C250.6 257.496 255.593 254.904 256.84 254.942C258.086 254.98 266.37 260.581 265.96 261.478C265.549 262.375 263.588 263.104 263.345 262.451C263.102 261.797 256.847 259.646 256.847 259.646L253.199 260.505L250.6 257.496Z" fill="white"/>
</g>
<path d="M250.6 257.496C250.6 257.496 255.593 254.904 256.84 254.942C258.086 254.98 266.37 260.581 265.96 261.478C265.681 261.894 265.279 262.212 264.809 262.386C264.34 262.561 263.828 262.583 263.345 262.451C262.426 262.018 256.847 259.646 256.847 259.646L253.199 260.505L250.6 257.496Z" stroke="#263238" stroke-linecap="round" stroke-linejoin="round"/>
<path d="M247.036 253.232C247.036 253.232 253.693 253.019 255.016 253.688C256.338 254.357 262.312 264.601 261.415 265.346C260.518 266.091 258.04 265.871 258.116 265.042C258.192 264.214 252.614 258.727 252.614 258.727L248.274 257.777L247.036 253.232Z" fill="white"/>
<mask id="mask10_96_208" style="mask-type:luminance" maskUnits="userSpaceOnUse" x="247" y="253" width="15" height="13">
<path d="M247.036 253.232C247.036 253.232 253.693 253.019 255.016 253.688C256.338 254.357 262.312 264.601 261.415 265.346C260.518 266.091 258.04 265.871 258.116 265.042C258.192 264.214 252.614 258.727 252.614 258.727L248.274 257.777L247.036 253.232Z" fill="white"/>
</mask>
<g mask="url(#mask10_96_208)">
<path d="M247.036 253.232C247.036 253.232 253.693 253.019 255.016 253.688C256.338 254.357 262.312 264.601 261.415 265.346C260.518 266.091 258.04 265.871 258.116 265.042C258.192 264.214 252.614 258.727 252.614 258.727L248.274 257.777L247.036 253.232Z" fill="#4267B2"/>
<path opacity="0.5" d="M247.036 253.232C247.036 253.232 253.693 253.019 255.016 253.688C256.338 254.357 262.312 264.601 261.415 265.346C260.518 266.091 258.04 265.871 258.116 265.042C258.192 264.214 252.614 258.727 252.614 258.727L248.274 257.777L247.036 253.232Z" fill="white"/>
</g>
<path d="M247.036 253.232C247.036 253.232 253.693 253.019 255.016 253.688C256.338 254.357 262.312 264.601 261.415 265.346C260.518 266.091 258.04 265.871 258.116 265.042C258.192 264.214 252.614 258.727 252.614 258.727L248.274 257.777L247.036 253.232Z" stroke="#263238" stroke-linecap="round" stroke-linejoin="round"/>
<path d="M243.091 251.856C243.091 251.856 249.833 251.636 251.17 252.32C252.508 253.004 258.557 263.363 257.645 264.123C256.733 264.883 254.241 264.647 254.317 263.811C254.393 262.975 248.746 257.42 248.746 257.42L244.353 256.454L243.091 251.856Z" fill="white"/>
<mask id="mask11_96_208" style="mask-type:luminance" maskUnits="userSpaceOnUse" x="243" y="251" width="15" height="14">
<path d="M243.091 251.856C243.091 251.856 249.833 251.636 251.17 252.32C252.508 253.004 258.557 263.363 257.645 264.123C256.733 264.883 254.241 264.647 254.317 263.811C254.393 262.975 248.746 257.42 248.746 257.42L244.353 256.454L243.091 251.856Z" fill="white"/>
</mask>
<g mask="url(#mask11_96_208)">
<path d="M243.091 251.856C243.091 251.856 249.833 251.636 251.17 252.32C252.508 253.004 258.557 263.363 257.645 264.123C256.733 264.883 254.241 264.647 254.317 263.811C254.393 262.975 248.746 257.42 248.746 257.42L244.353 256.454L243.091 251.856Z" fill="#4267B2"/>
<path opacity="0.5" d="M243.091 251.856C243.091 251.856 249.833 251.636 251.17 252.32C252.508 253.004 258.557 263.363 257.645 264.123C256.733 264.883 254.241 264.647 254.317 263.811C254.393 262.975 248.746 257.42 248.746 257.42L244.353 256.454L243.091 251.856Z" fill="white"/>
</g>
<path d="M243.091 251.856C243.091 251.856 249.833 251.636 251.17 252.32C252.508 253.004 258.557 263.363 257.645 264.123C256.733 264.883 254.241 264.647 254.317 263.811C254.393 262.975 248.746 257.42 248.746 257.42L244.353 256.454L243.091 251.856Z" stroke="#263238" stroke-linecap="round" stroke-linejoin="round"/>
<path d="M166.445 213.233C171.325 220.75 181.121 239.795 183.979 241.938C188.44 245.282 218.262 253.399 221.135 255.618C224.008 257.838 223.81 260.064 226.531 260.878C229.252 261.691 239.451 264.024 243.342 264.389C247.233 264.754 245.493 262.344 245.493 262.344L238.858 257.784L244.642 256.356C244.642 256.356 250.441 263.332 251.527 263.712C252.614 264.092 254.529 263.712 254.408 262.854C254.195 261.478 248.009 250.222 245.812 249.744C243.616 249.265 230.285 251.112 230.285 251.112C230.285 251.112 202.325 232.256 201.823 231.587C201.823 231.587 200.151 226.845 198.783 224.892C197.415 222.938 196.549 223.501 196.549 223.501C196.549 223.501 197.111 220.985 196.275 220.149L191.814 215.688L191.655 215.901C190.895 214.381 190.135 212.648 189.299 210.672C186.965 205.177 178.704 189.757 177.313 187.53C176.272 185.866 167.547 184.672 163.124 184.171" fill="#4267B2"/>
<mask id="mask12_96_208" style="mask-type:luminance" maskUnits="userSpaceOnUse" x="163" y="184" width="92" height="81">
<path d="M166.445 213.233C171.325 220.75 181.121 239.795 183.979 241.938C188.44 245.282 218.262 253.399 221.135 255.618C224.008 257.838 223.81 260.064 226.531 260.878C229.252 261.691 239.451 264.024 243.342 264.389C247.233 264.754 245.493 262.344 245.493 262.344L238.858 257.784L244.642 256.356C244.642 256.356 250.441 263.332 251.527 263.712C252.614 264.092 254.529 263.712 254.408 262.854C254.195 261.478 248.009 250.222 245.812 249.744C243.616 249.265 230.285 251.112 230.285 251.112C230.285 251.112 202.325 232.256 201.823 231.587C201.823 231.587 200.151 226.845 198.783 224.892C197.415 222.938 196.549 223.501 196.549 223.501C196.549 223.501 197.111 220.985 196.275 220.149L191.814 215.688L191.655 215.901C190.895 214.381 190.135 212.648 189.299 210.672C186.965 205.177 178.704 189.757 177.313 187.53C176.272 185.866 167.547 184.672 163.124 184.171" fill="white"/>
</mask>
<g mask="url(#mask12_96_208)">
<path opacity="0.16" d="M185.871 213.712C189.519 216.95 188.303 216.95 187.49 219.792C186.677 222.634 188.098 218.781 191.541 218.986C194.984 219.192 193.973 223.638 193.562 224.451C193.152 225.264 197.818 226.275 197.005 228.091C196.192 229.908 191.541 232.545 188.911 235.182C186.282 237.819 195.789 230.926 199.027 230.728C200.015 230.66 200.828 230.789 201.512 230.774C200.794 228.74 199.873 226.785 198.761 224.937C197.362 222.984 196.526 223.546 196.526 223.546C196.526 223.546 197.089 221.031 196.253 220.195L191.792 215.734L191.632 215.946C190.872 214.426 190.112 212.694 189.276 210.718C186.943 205.223 178.682 189.802 177.291 187.576C176.25 185.911 167.525 184.718 163.102 184.216L163.504 187.735L163.603 187.811C163.603 187.811 169.068 188.822 170.892 189.027C172.716 189.232 174.942 190.844 174.737 192.067C174.532 193.291 169.273 198.748 170.892 199.158C172.51 199.568 174.334 195.107 176.158 195.715C177.982 196.323 182.2 210.474 185.871 213.712Z" fill="#1F1F1F"/>
</g>
<path d="M166.445 213.233C171.325 220.75 181.121 239.795 183.979 241.938C188.44 245.282 218.262 253.399 221.135 255.618C224.008 257.838 223.81 260.064 226.531 260.878C229.252 261.691 239.451 264.024 243.342 264.389C247.233 264.754 245.493 262.344 245.493 262.344L238.858 257.784L244.642 256.356C244.642 256.356 250.441 263.332 251.527 263.712C252.614 264.092 254.529 263.712 254.408 262.854C254.195 261.478 248.009 250.222 245.812 249.744C243.616 249.265 230.285 251.112 230.285 251.112C230.285 251.112 202.325 232.256 201.823 231.587C201.823 231.587 200.151 226.845 198.783 224.892C197.415 222.938 196.549 223.501 196.549 223.501C196.549 223.501 197.111 220.985 196.275 220.149L191.814 215.688L191.655 215.901C190.895 214.381 190.135 212.648 189.299 210.672C186.965 205.177 178.704 189.757 177.313 187.53C176.272 185.866 167.547 184.672 163.124 184.171" stroke="#263238" stroke-linecap="round" stroke-linejoin="round"/>
<path d="M166.522 202.92C166.316 203.604 166.142 204.288 166.005 204.987" stroke="#263238" stroke-linecap="round" stroke-linejoin="round"/>
<path d="M173.909 190.342C171.521 193.064 169.506 196.093 167.92 199.348" stroke="#263238" stroke-linecap="round" stroke-linejoin="round"/>
<path d="M185.073 233.495C187.125 230.455 190.393 226.602 193.996 225.5" stroke="#263238" stroke-linecap="round" stroke-linejoin="round"/>
<path d="M182.801 237.234C182.801 237.234 183.166 236.52 183.819 235.44" stroke="#263238" stroke-linecap="round" stroke-linejoin="round"/>
<path d="M182.801 232.431C182.801 232.431 186.532 223.098 190.264 220.696C193.996 218.295 191.86 223.098 191.86 223.098" stroke="#263238" stroke-linecap="round" stroke-linejoin="round"/>
<path d="M221.135 255.626C224.016 257.853 223.81 260.072 226.531 260.885C229.252 261.698 239.451 264.032 243.342 264.396C247.234 264.761 245.493 262.352 245.493 262.352L238.858 257.792L244.642 256.363C244.642 256.363 250.441 263.34 251.528 263.72C252.614 264.1 254.682 264.237 254.408 262.861C253.876 260.201 248.009 250.23 245.812 249.751C243.616 249.272 230.286 251.119 230.286 251.119C230.286 251.119 204.818 233.639 202.029 231.747C191.214 232.788 186.069 238.45 183.903 241.847L183.979 241.908C188.44 245.282 218.262 253.399 221.135 255.626Z" fill="white"/>
<mask id="mask13_96_208" style="mask-type:luminance" maskUnits="userSpaceOnUse" x="183" y="231" width="72" height="34">
<path d="M221.135 255.626C224.016 257.853 223.81 260.072 226.531 260.885C229.252 261.698 239.451 264.032 243.342 264.396C247.234 264.761 245.493 262.352 245.493 262.352L238.858 257.792L244.642 256.363C244.642 256.363 250.441 263.34 251.528 263.72C252.614 264.1 254.682 264.237 254.408 262.861C253.876 260.201 248.009 250.23 245.812 249.751C243.616 249.272 230.286 251.119 230.286 251.119C230.286 251.119 204.818 233.639 202.029 231.747C191.214 232.788 186.069 238.45 183.903 241.847L183.979 241.908C188.44 245.282 218.262 253.399 221.135 255.626Z" fill="white"/>
</mask>
<g mask="url(#mask13_96_208)">
<path d="M254.401 262.892C253.017 259.51 248.001 250.26 245.805 249.782C243.609 249.303 230.278 251.149 230.278 251.149C230.278 251.149 204.811 233.669 202.021 231.777C199.183 232.024 196.398 232.698 193.76 233.776C197.781 236.056 224.578 251.256 227.96 251.932C231.547 252.692 243.517 250.724 245.623 252.138C246.96 253.034 250.943 259.35 253.633 263.834C254.401 263.72 254.682 263.576 254.401 262.892Z" fill="#4267B2"/>
<path opacity="0.5" d="M254.401 262.892C252.242 258.05 248.001 250.26 245.805 249.782C243.609 249.303 230.278 251.149 230.278 251.149C230.278 251.149 204.811 233.669 202.021 231.777C199.183 232.024 196.398 232.698 193.76 233.776C197.781 236.056 224.578 251.256 227.96 251.932C231.547 252.692 243.517 250.724 245.623 252.138C246.96 253.034 250.943 259.35 253.633 263.834C254.401 263.72 254.705 263.568 254.401 262.892Z" fill="white"/>
</g>
<path d="M221.135 255.626C224.016 257.853 223.81 260.072 226.531 260.885C229.252 261.698 239.451 264.032 243.342 264.396C247.234 264.761 245.493 262.352 245.493 262.352L238.858 257.792L244.642 256.363C244.642 256.363 250.441 263.34 251.528 263.72C252.614 264.1 254.682 264.237 254.408 262.861C253.876 260.201 248.009 250.23 245.812 249.751C243.616 249.272 230.286 251.119 230.286 251.119C230.286 251.119 204.818 233.639 202.029 231.747C191.214 232.788 186.069 238.45 183.903 241.847L183.979 241.908C188.44 245.282 218.262 253.399 221.135 255.626Z" stroke="#263238" stroke-linecap="round" stroke-linejoin="round"/>
<path d="M153.966 122.915L131.075 132.468C130.798 136.491 129.801 140.432 128.134 144.104C125.428 149.826 127.009 160.656 129.608 166.501C132.207 172.345 143.661 170.058 147.848 169.328C150.688 168.788 153.47 167.976 156.155 166.904C157.377 167.375 158.7 167.527 159.997 167.346C161.295 167.165 162.525 166.657 163.573 165.87C163.573 165.87 151.321 131.48 153.966 122.915Z" fill="white"/>
<mask id="mask14_96_208" style="mask-type:luminance" maskUnits="userSpaceOnUse" x="126" y="122" width="38" height="49">
<path d="M153.966 122.915L131.075 132.468C130.798 136.491 129.801 140.432 128.134 144.104C125.428 149.826 127.009 160.656 129.608 166.501C132.207 172.345 143.661 170.058 147.848 169.328C150.688 168.788 153.47 167.976 156.155 166.904C157.377 167.375 158.7 167.527 159.997 167.346C161.295 167.165 162.525 166.657 163.573 165.87C163.573 165.87 151.321 131.48 153.966 122.915Z" fill="white"/>
</mask>
<g mask="url(#mask14_96_208)">
<path d="M153.966 122.915L131.075 132.468C130.798 136.491 129.801 140.432 128.134 144.104C125.428 149.826 127.009 160.656 129.608 166.501C130.043 167.441 130.743 168.233 131.622 168.781V168.34C131.622 168.34 127.374 157.814 128.179 151.742C128.985 145.669 132.435 142.622 132.838 138.784C133.241 134.946 133.036 133.122 140.735 130.287C148.433 127.452 151.663 124.822 152.469 127.65C153.275 130.477 156.52 149.112 158.747 153.566C160.973 158.019 160.768 162.686 157.333 164.7C153.861 166.784 150.141 168.423 146.26 169.579L147.879 169.298C150.719 168.757 153.5 167.945 156.185 166.873C157.408 167.344 158.73 167.497 160.028 167.316C161.326 167.135 162.556 166.627 163.603 165.84C163.603 165.84 151.321 131.48 153.966 122.915Z" fill="#4267B2"/>
<path opacity="0.5" d="M153.966 122.915L131.075 132.468C130.798 136.491 129.801 140.432 128.134 144.104C125.428 149.826 127.009 160.656 129.608 166.501C130.043 167.441 130.743 168.233 131.622 168.781V168.34C131.622 168.34 127.374 157.814 128.179 151.742C128.985 145.669 132.435 142.622 132.838 138.784C133.241 134.946 133.036 133.122 140.735 130.287C148.433 127.452 151.663 124.822 152.469 127.65C153.275 130.477 156.52 149.112 158.747 153.566C160.973 158.019 160.768 162.686 157.333 164.7C153.861 166.784 150.141 168.423 146.26 169.579L147.879 169.298C150.719 168.757 153.5 167.945 156.185 166.873C157.408 167.344 158.73 167.497 160.028 167.316C161.326 167.135 162.556 166.627 163.603 165.84C163.603 165.84 151.321 131.48 153.966 122.915Z" fill="white"/>
</g>
<path d="M153.966 122.915L131.075 132.468C130.798 136.491 129.801 140.432 128.134 144.104C125.428 149.826 127.009 160.656 129.608 166.501C132.207 172.345 143.661 170.058 147.848 169.328C150.688 168.788 153.47 167.976 156.155 166.904C157.377 167.375 158.7 167.527 159.997 167.346C161.295 167.165 162.525 166.657 163.573 165.87C163.573 165.87 151.321 131.48 153.966 122.915Z" stroke="#263238" stroke-linecap="round" stroke-linejoin="round"/>
<path d="M142.399 137.894C142.461 139.24 142.294 140.587 141.905 141.877C141.297 143.397 135.559 149.37 135.734 150.016C135.909 150.662 136.425 152.737 137.444 152.935" stroke="#263238" stroke-linecap="round" stroke-linejoin="round"/>
<path d="M148.76 143.237C149.558 141.641 152.18 143.199 152.142 146.794" stroke="#263238" stroke-linecap="round" stroke-linejoin="round"/>
<path d="M135.764 138.54C135.764 138.54 137.999 137.56 139.997 141.178" stroke="#263238" stroke-linecap="round" stroke-linejoin="round"/>
<path d="M145.583 148.504C148.165 148.634 150.62 149.664 152.522 151.415" stroke="#263238" stroke-width="0.5" stroke-linecap="round" stroke-linejoin="round"/>
<path d="M133.066 143.754C134.401 143.932 135.705 144.293 136.942 144.826" stroke="#263238" stroke-width="0.5" stroke-linecap="round" stroke-linejoin="round"/>
<path d="M142.148 134.52C141.558 134.208 140.904 134.037 140.236 134.021C139.569 134.006 138.907 134.145 138.303 134.429C136.258 135.409 135.004 136.488 135.141 135.234C135.278 133.98 137.679 132.597 138.401 132.415C139.123 132.232 142.353 131.731 142.148 134.52Z" fill="#263238"/>
<path d="M147.879 131.685C150.009 133.409 151.702 135.612 152.819 138.115C154.339 141.915 155.539 137.765 154.339 135.28C153.138 132.795 149.665 130.15 147.879 131.685Z" fill="#263238"/>
<path d="M163.907 172.368C163.907 174.139 162.904 175.575 161.673 175.575C160.441 175.575 159.446 174.139 159.446 172.368C159.446 170.597 160.441 166.09 161.673 166.09C162.904 166.09 163.907 170.597 163.907 172.368Z" fill="#4267B2" stroke="#263238" stroke-linecap="round" stroke-linejoin="round"/>
<path d="M148.958 142.546C148.87 142.778 148.802 143.017 148.753 143.26C148.532 144.385 148.312 146.733 148.753 146.832C149.193 146.931 150.273 144.734 150.463 143.61C150.505 143.389 150.531 143.165 150.539 142.941C150.02 142.778 149.492 142.646 148.958 142.546Z" fill="#263238"/>
<path d="M135.992 138.32C135.925 138.519 135.871 138.722 135.833 138.928C135.605 140.053 135.612 142.523 136.091 142.614C136.57 142.705 137.353 140.395 137.573 139.27C137.628 138.997 137.659 138.72 137.664 138.442C137.12 138.292 136.552 138.251 135.992 138.32Z" fill="#263238"/>
<path d="M148.76 143.275L149.52 141.862C150.725 142.096 151.817 142.728 152.621 143.655" stroke="#263238" stroke-width="0.75" stroke-linecap="round" stroke-linejoin="round"/>
<path d="M135.992 138.32L136.752 137.431C136.752 137.431 137.079 137.271 138.873 138.084" stroke="#263238" stroke-width="0.75" stroke-linecap="round" stroke-linejoin="round"/>
<path d="M133.112 158.931C133.112 158.931 134.389 156.583 136.099 156.583C137.809 156.583 139.085 160.421 139.085 160.421" stroke="#263238" stroke-linecap="round" stroke-linejoin="round"/>
<path d="M78.0802 260.209C76.4276 260.127 74.8044 259.74 73.2922 259.069C73.0813 258.991 72.8885 258.871 72.7255 258.716C72.5626 258.561 72.4328 258.375 72.3442 258.168C72.2556 257.961 72.2099 257.739 72.21 257.514C72.2101 257.289 72.2559 257.067 72.3447 256.86C72.4335 256.654 72.5634 256.468 72.7266 256.313C72.8897 256.158 73.0825 256.038 73.2935 255.96C73.5044 255.883 73.729 255.849 73.9535 255.86C74.178 255.872 74.3977 255.929 74.5994 256.029C76.1194 256.675 78.0878 257.078 78.6122 256.85C79.5774 255.77 81.0594 249.25 79.1442 246.103C78.711 245.404 78.3082 245.275 78.0422 245.244C76.9554 245.092 75.3442 246.21 74.7742 246.764C74.6155 246.914 74.4289 247.031 74.225 247.109C74.0211 247.186 73.8039 247.223 73.5858 247.217C73.3677 247.21 73.1531 247.161 72.954 247.072C72.755 246.982 72.5755 246.855 72.4258 246.696C72.2761 246.537 72.1591 246.351 72.0815 246.147C72.0039 245.943 71.9673 245.726 71.9736 245.508C71.98 245.29 72.0292 245.075 72.1185 244.876C72.2078 244.677 72.3355 244.497 72.4942 244.348C72.7906 244.059 75.5342 241.589 78.4602 241.984C79.1859 242.09 79.8774 242.362 80.4811 242.778C81.0847 243.195 81.5843 243.745 81.941 244.386C84.7606 248.984 82.8302 257.731 80.6642 259.464C79.9115 259.997 79.0008 260.259 78.0802 260.209Z" fill="white"/>
<mask id="mask15_96_208" style="mask-type:luminance" maskUnits="userSpaceOnUse" x="71" y="241" width="13" height="20">
<path d="M78.0802 260.209C76.4276 260.127 74.8044 259.74 73.2922 259.069C73.0813 258.991 72.8885 258.871 72.7255 258.716C72.5626 258.561 72.4328 258.375 72.3442 258.168C72.2556 257.961 72.2099 257.739 72.21 257.514C72.2101 257.289 72.2559 257.067 72.3447 256.86C72.4335 256.654 72.5634 256.468 72.7266 256.313C72.8897 256.158 73.0825 256.038 73.2935 255.96C73.5044 255.883 73.729 255.849 73.9535 255.86C74.178 255.872 74.3977 255.929 74.5994 256.029C76.1194 256.675 78.0878 257.078 78.6122 256.85C79.5774 255.77 81.0594 249.25 79.1442 246.103C78.711 245.404 78.3082 245.275 78.0422 245.244C76.9554 245.092 75.3442 246.21 74.7742 246.764C74.6155 246.914 74.4289 247.031 74.225 247.109C74.0211 247.186 73.8039 247.223 73.5858 247.217C73.3677 247.21 73.1531 247.161 72.954 247.072C72.755 246.982 72.5755 246.855 72.4258 246.696C72.2761 246.537 72.1591 246.351 72.0815 246.147C72.0039 245.943 71.9673 245.726 71.9736 245.508C71.98 245.29 72.0292 245.075 72.1185 244.876C72.2078 244.677 72.3355 244.497 72.4942 244.348C72.7906 244.059 75.5342 241.589 78.4602 241.984C79.1859 242.09 79.8774 242.362 80.4811 242.778C81.0847 243.195 81.5843 243.745 81.941 244.386C84.7606 248.984 82.8302 257.731 80.6642 259.464C79.9115 259.997 79.0008 260.259 78.0802 260.209Z" fill="white"/>
</mask>
<g mask="url(#mask15_96_208)">
<path d="M80.307 245.602C80.1077 245.13 79.7957 244.714 79.3981 244.39C79.0006 244.067 78.5298 243.846 78.027 243.747C76.127 243.443 74.3411 245.351 74.1435 245.564C73.9618 245.782 73.8496 246.05 73.8211 246.333C73.7927 246.616 73.8493 246.901 73.9838 247.152C74.2828 247.092 74.5591 246.95 74.7819 246.742C75.3519 246.21 76.9631 245.092 78.0499 245.222C78.3159 245.222 78.7187 245.381 79.1519 246.08C81.0671 249.196 79.5851 255.748 78.6199 256.827C78.0955 257.055 76.1346 256.652 74.607 256.006C74.419 255.927 74.2181 255.883 74.0142 255.877C74.0281 256.085 74.0938 256.287 74.2052 256.463C74.3167 256.64 74.4705 256.786 74.6527 256.888C75.6136 257.401 76.6737 257.702 77.761 257.769C78.3815 257.799 78.9892 257.586 79.4558 257.176C80.8846 255.862 82.1462 249.136 80.307 245.602Z" fill="#4267B2"/>
<path opacity="0.5" d="M80.307 245.602C80.1077 245.13 79.7957 244.714 79.3981 244.39C79.0006 244.067 78.5298 243.846 78.027 243.747C76.127 243.443 74.3411 245.351 74.1435 245.564C73.9618 245.782 73.8496 246.05 73.8211 246.333C73.7927 246.616 73.8493 246.901 73.9838 247.152C74.2828 247.092 74.5591 246.95 74.7819 246.742C75.3519 246.21 76.9631 245.092 78.0499 245.222C78.3159 245.222 78.7187 245.381 79.1519 246.08C81.0671 249.196 79.5851 255.748 78.6199 256.827C78.0955 257.055 76.1346 256.652 74.607 256.006C74.419 255.927 74.2181 255.883 74.0142 255.877C74.0281 256.085 74.0938 256.287 74.2052 256.463C74.3167 256.64 74.4705 256.786 74.6527 256.888C75.6136 257.401 76.6737 257.702 77.761 257.769C78.3815 257.799 78.9892 257.586 79.4558 257.176C80.8846 255.862 82.1462 249.136 80.307 245.602Z" fill="white"/>
</g>
<path d="M78.0802 260.209C76.4276 260.127 74.8044 259.74 73.2922 259.069C73.0813 258.991 72.8885 258.871 72.7255 258.716C72.5626 258.561 72.4328 258.375 72.3442 258.168C72.2556 257.961 72.2099 257.739 72.21 257.514C72.2101 257.289 72.2559 257.067 72.3447 256.86C72.4335 256.654 72.5634 256.468 72.7266 256.313C72.8897 256.158 73.0825 256.038 73.2935 255.96C73.5044 255.883 73.729 255.849 73.9535 255.86C74.178 255.872 74.3977 255.929 74.5994 256.029C76.1194 256.675 78.0878 257.078 78.6122 256.85C79.5774 255.77 81.0594 249.25 79.1442 246.103C78.711 245.404 78.3082 245.275 78.0422 245.244C76.9554 245.092 75.3442 246.21 74.7742 246.764C74.6155 246.914 74.4289 247.031 74.225 247.109C74.0211 247.186 73.8039 247.223 73.5858 247.217C73.3677 247.21 73.1531 247.161 72.954 247.072C72.755 246.982 72.5755 246.855 72.4258 246.696C72.2761 246.537 72.1591 246.351 72.0815 246.147C72.0039 245.943 71.9673 245.726 71.9736 245.508C71.98 245.29 72.0292 245.075 72.1185 244.876C72.2078 244.677 72.3355 244.497 72.4942 244.348C72.7906 244.059 75.5342 241.589 78.4602 241.984C79.1859 242.09 79.8774 242.362 80.4811 242.778C81.0847 243.195 81.5843 243.745 81.941 244.386C84.7606 248.984 82.8302 257.731 80.6642 259.464C79.9115 259.997 79.0008 260.259 78.0802 260.209Z" stroke="#263238" stroke-linecap="round" stroke-linejoin="round"/>
<path d="M75.1769 240.601H56.8989V264.86H75.1769V240.601Z" fill="white"/>
<mask id="mask16_96_208" style="mask-type:luminance" maskUnits="userSpaceOnUse" x="56" y="240" width="20" height="25">
<path d="M75.1769 240.601H56.8989V264.86H75.1769V240.601Z" fill="white"/>
</mask>
<g mask="url(#mask16_96_208)">
<path d="M64.3849 240.601H56.8989V264.86H64.3849V240.601Z" fill="#4267B2"/>
<path opacity="0.5" d="M64.3849 240.601H56.8989V264.86H64.3849V240.601Z" fill="white"/>
</g>
<path d="M75.1769 240.601H56.8989V264.86H75.1769V240.601Z" stroke="#263238" stroke-linecap="round" stroke-linejoin="round"/>
<path d="M175.618 264.526H97.5361L94.9901 221.601C94.9197 221.185 94.9404 220.758 95.0509 220.351C95.1613 219.943 95.3588 219.565 95.6297 219.241C95.9007 218.917 96.2386 218.656 96.6202 218.476C97.0018 218.296 97.418 218.2 97.8401 218.196H175.284C175.709 218.196 176.128 218.288 176.514 218.466C176.899 218.645 177.241 218.905 177.515 219.23C177.789 219.554 177.989 219.934 178.102 220.343C178.214 220.753 178.235 221.182 178.164 221.601L175.618 264.526Z" fill="#263238" stroke="#263238" stroke-linecap="round" stroke-linejoin="round"/>
<path d="M101.382 219.222H174.722C175.136 219.218 175.546 219.304 175.924 219.475C176.301 219.646 176.636 219.897 176.906 220.212C177.177 220.526 177.375 220.895 177.487 221.294C177.599 221.693 177.623 222.112 177.556 222.52" stroke="white" stroke-linecap="round" stroke-linejoin="round"/>
<path d="M95.5601 221.844C95.6212 221.126 95.9509 220.457 96.4834 219.971C97.0159 219.485 97.712 219.218 98.4329 219.222" stroke="white" stroke-linecap="round" stroke-linejoin="round"/>
<path d="M175.945 260.346H97.2092V264.526H175.945V260.346Z" fill="white" stroke="#263238" stroke-linecap="round" stroke-linejoin="round"/>
<path d="M136.296 244.872C139.377 244.872 141.875 243.375 141.875 241.528C141.875 239.681 139.377 238.184 136.296 238.184C133.215 238.184 130.718 239.681 130.718 241.528C130.718 243.375 133.215 244.872 136.296 244.872Z" fill="white" stroke="#263238" stroke-linecap="round" stroke-linejoin="round"/>
<path d="M294.703 264.032H1.44922V271.153H294.703V264.032Z" fill="#263238"/>
<path d="M218.665 0H77.5859C72.8303 0 68.9751 3.85519 68.9751 8.6108V89.5584C68.9751 94.314 72.8303 98.1692 77.5859 98.1692H218.665C223.42 98.1692 227.275 94.314 227.275 89.5584V8.6108C227.275 3.85519 223.42 0 218.665 0Z" fill="#4267B2"/>
<path d="M151.848 56.4149C164.645 54.3583 173.352 42.3168 171.296 29.5195C169.239 16.7223 157.197 8.01532 144.4 10.072C131.603 12.1286 122.896 24.1701 124.953 36.9674C127.009 49.7646 139.051 58.4716 151.848 56.4149Z" fill="#263238"/>
<path d="M147.947 37.582L140.126 47.6216C139.86 48.0395 139.495 48.3848 139.062 48.6262C138.63 48.8677 138.144 48.9978 137.649 49.0048C136.969 49.0141 136.314 48.7546 135.825 48.2828C135.576 48.0548 135.38 47.7759 135.248 47.465C135.117 47.1542 135.055 46.8188 135.065 46.4816C135.089 45.7264 135.356 44.9991 135.825 44.4068L144.74 33.3792L136.38 22.344C135.991 21.8261 135.778 21.1978 135.772 20.5504C135.77 20.1643 135.848 19.782 136.001 19.4275C136.154 19.0731 136.378 18.7541 136.661 18.4908C136.926 18.2139 137.245 17.9937 137.597 17.8435C137.95 17.6933 138.329 17.6162 138.713 17.6168C139.204 17.6248 139.685 17.7555 140.112 17.9971C140.54 18.2387 140.9 18.5835 141.16 19L148.714 28.9484L156.314 19.1672C156.586 18.7109 156.966 18.3286 157.421 18.0542C157.875 17.7798 158.391 17.6217 158.921 17.594C159.25 17.5932 159.576 17.6603 159.878 17.791C160.18 17.9218 160.452 18.1134 160.677 18.354C160.916 18.5795 161.107 18.8515 161.238 19.1534C161.369 19.4553 161.436 19.7807 161.437 20.1096C161.429 20.6982 161.226 21.2676 160.859 21.7284L151.914 33.174L160.555 44.574C160.964 45.0836 161.191 45.7146 161.201 46.3676C161.204 46.7452 161.124 47.1188 160.968 47.4626C160.812 47.8064 160.583 48.1122 160.297 48.3588C159.739 48.895 158.996 49.1946 158.222 49.1948C157.729 49.1887 157.245 49.0588 156.814 48.8172C156.384 48.5755 156.022 48.2298 155.76 47.8116L147.947 37.582Z" fill="white"/>
<path d="M192.84 81.168H103.38C101.566 81.168 99.8264 80.4474 98.5437 79.1646C97.2609 77.8819 96.5403 76.1421 96.5403 74.328C96.5403 72.514 97.2609 70.7742 98.5437 69.4914C99.8264 68.2087 101.566 67.488 103.38 67.488H192.84C194.654 67.488 196.394 68.2087 197.676 69.4914C198.959 70.7742 199.68 72.514 199.68 74.328C199.68 76.1421 198.959 77.8819 197.676 79.1646C196.394 80.4474 194.654 81.168 192.84 81.168Z" fill="white"/>
<path d="M115.639 76.532C115.579 76.532 115.52 76.5199 115.465 76.4964C115.411 76.4728 115.361 76.4384 115.32 76.3952C115.275 76.3506 115.24 76.2972 115.216 76.2384C115.192 76.1796 115.181 76.1165 115.183 76.0532C115.183 75.9462 115.212 75.8411 115.267 75.7492L115.951 74.6852H114.552C114.488 74.6885 114.423 74.678 114.363 74.6545C114.302 74.6309 114.248 74.5947 114.203 74.5484C114.124 74.4574 114.082 74.3415 114.082 74.2216C114.082 74.1017 114.124 73.9858 114.203 73.8948C114.248 73.8485 114.302 73.8123 114.363 73.7888C114.423 73.7652 114.488 73.7547 114.552 73.758L115.928 73.796L115.32 72.808C115.259 72.7068 115.225 72.5917 115.221 72.4736C115.219 72.4103 115.23 72.3472 115.254 72.2884C115.278 72.2296 115.313 72.1762 115.358 72.1316C115.4 72.0882 115.451 72.0537 115.507 72.0302C115.564 72.0067 115.624 71.9946 115.685 71.9948C115.77 71.9935 115.853 72.0174 115.925 72.0633C115.997 72.1093 116.053 72.1753 116.087 72.2532L116.756 73.4464L117.395 72.3064C117.435 72.2177 117.499 72.1417 117.579 72.0868C117.659 72.0318 117.753 72 117.851 71.9948C117.91 71.9948 117.969 72.0069 118.024 72.0304C118.079 72.054 118.129 72.0884 118.17 72.1316C118.214 72.1734 118.25 72.2241 118.273 72.2804C118.297 72.3367 118.308 72.3974 118.307 72.4584C118.306 72.5663 118.274 72.6718 118.215 72.7624L117.547 73.834L118.937 73.796C119.002 73.7922 119.067 73.8024 119.127 73.8261C119.188 73.8497 119.242 73.8861 119.287 73.9328C119.365 74.0238 119.408 74.1397 119.408 74.2596C119.408 74.3795 119.365 74.4954 119.287 74.5864C119.242 74.6331 119.188 74.6695 119.127 74.6931C119.067 74.7168 119.002 74.727 118.937 74.7232H117.531L118.155 75.696C118.225 75.8134 118.264 75.9468 118.269 76.0836C118.271 76.1452 118.26 76.2066 118.238 76.264C118.216 76.3215 118.182 76.3739 118.139 76.418C118.099 76.4607 118.051 76.4948 117.998 76.5183C117.944 76.5418 117.886 76.5542 117.828 76.5548C117.734 76.5525 117.642 76.5234 117.564 76.4709C117.486 76.4184 117.425 76.3447 117.387 76.2584L116.756 75.1412L116.125 76.2584C116.08 76.3464 116.009 76.4192 115.923 76.4678C115.837 76.5164 115.738 76.5387 115.639 76.532Z" fill="#1F1F1F"/>
<path d="M122.616 76.532C122.556 76.532 122.497 76.5199 122.442 76.4964C122.387 76.4729 122.338 76.4385 122.297 76.3952C122.252 76.3506 122.216 76.2972 122.193 76.2384C122.169 76.1796 122.158 76.1166 122.16 76.0532C122.16 75.9462 122.189 75.8412 122.243 75.7492L122.927 74.6852H121.529C121.464 74.6886 121.4 74.6781 121.339 74.6545C121.279 74.6309 121.225 74.5947 121.179 74.5484C121.101 74.4575 121.058 74.3415 121.058 74.2216C121.058 74.1017 121.101 73.9858 121.179 73.8948C121.225 73.8485 121.279 73.8124 121.339 73.7888C121.4 73.7652 121.464 73.7547 121.529 73.758L122.905 73.796L122.259 72.77C122.198 72.6688 122.164 72.5537 122.16 72.4356C122.158 72.3723 122.169 72.3093 122.193 72.2505C122.216 72.1917 122.252 72.1383 122.297 72.0936C122.339 72.0502 122.39 72.0157 122.446 71.9922C122.502 71.9687 122.563 71.9567 122.623 71.9568C122.709 71.9556 122.792 71.9794 122.864 72.0254C122.935 72.0713 122.992 72.1374 123.026 72.2152L123.695 73.4084L124.333 72.2684C124.374 72.1797 124.437 72.1038 124.518 72.0488C124.598 71.9939 124.692 71.9621 124.789 71.9568C124.849 71.9568 124.908 71.969 124.963 71.9925C125.018 72.016 125.067 72.0504 125.109 72.0936C125.153 72.1354 125.188 72.1861 125.212 72.2424C125.236 72.2987 125.247 72.3594 125.245 72.4204C125.244 72.5284 125.213 72.6338 125.154 72.7244L124.485 73.796L125.876 73.758C125.941 73.7542 126.006 73.7645 126.066 73.7881C126.126 73.8117 126.181 73.8481 126.226 73.8948C126.304 73.9858 126.347 74.1017 126.347 74.2216C126.347 74.3415 126.304 74.4575 126.226 74.5484C126.181 74.5951 126.126 74.6316 126.066 74.6552C126.006 74.6788 125.941 74.6891 125.876 74.6852H124.47L125.093 75.658C125.164 75.7755 125.203 75.9089 125.207 76.0456C125.21 76.1072 125.199 76.1686 125.177 76.2261C125.155 76.2835 125.121 76.3359 125.078 76.38C125.038 76.4227 124.99 76.4568 124.936 76.4803C124.883 76.5038 124.825 76.5162 124.767 76.5168C124.672 76.5155 124.58 76.4868 124.502 76.4341C124.424 76.3815 124.363 76.3073 124.326 76.2204L123.695 75.1032L123.064 76.2204C123.027 76.3096 122.965 76.3862 122.885 76.4414C122.806 76.4966 122.712 76.528 122.616 76.532Z" fill="#1F1F1F"/>
<path d="M129.593 76.532C129.533 76.532 129.474 76.5199 129.419 76.4964C129.364 76.4729 129.315 76.4385 129.273 76.3952C129.228 76.3506 129.193 76.2972 129.17 76.2384C129.146 76.1796 129.135 76.1166 129.137 76.0532C129.137 75.9462 129.165 75.8412 129.22 75.7492L129.904 74.6852H128.506C128.441 74.6886 128.377 74.6781 128.316 74.6545C128.256 74.6309 128.201 74.5947 128.156 74.5484C128.078 74.4575 128.035 74.3415 128.035 74.2216C128.035 74.1017 128.078 73.9858 128.156 73.8948C128.201 73.8485 128.256 73.8124 128.316 73.7888C128.377 73.7652 128.441 73.7547 128.506 73.758L129.881 73.796L129.235 72.77C129.174 72.6688 129.14 72.5537 129.137 72.4356C129.135 72.3723 129.146 72.3093 129.17 72.2505C129.193 72.1917 129.228 72.1383 129.273 72.0936C129.316 72.0502 129.367 72.0157 129.423 71.9922C129.479 71.9687 129.539 71.9567 129.6 71.9568C129.685 71.9556 129.769 71.9794 129.841 72.0254C129.912 72.0713 129.969 72.1374 130.003 72.2152L130.672 73.4084L131.31 72.2684C131.35 72.1797 131.414 72.1038 131.495 72.0488C131.575 71.9939 131.669 71.9621 131.766 71.9568C131.826 71.9568 131.885 71.969 131.94 71.9925C131.995 72.016 132.044 72.0504 132.085 72.0936C132.13 72.1354 132.165 72.1861 132.189 72.2424C132.212 72.2987 132.224 72.3594 132.222 72.4204C132.221 72.5284 132.19 72.6338 132.131 72.7244L131.462 73.796L132.853 73.758C132.918 73.7542 132.982 73.7645 133.043 73.7881C133.103 73.8117 133.158 73.8481 133.203 73.8948C133.281 73.9858 133.324 74.1017 133.324 74.2216C133.324 74.3415 133.281 74.4575 133.203 74.5484C133.158 74.5951 133.103 74.6316 133.043 74.6552C132.982 74.6788 132.918 74.6891 132.853 74.6852H131.447L132.07 75.658C132.141 75.7755 132.18 75.9089 132.184 76.0456C132.186 76.1072 132.176 76.1686 132.154 76.2261C132.132 76.2835 132.098 76.3359 132.055 76.38C132.015 76.4227 131.967 76.4568 131.913 76.4803C131.86 76.5038 131.802 76.5162 131.743 76.5168C131.649 76.5155 131.557 76.4868 131.479 76.4341C131.401 76.3815 131.339 76.3073 131.303 76.2204L130.672 75.1032L130.041 76.2204C130.004 76.3096 129.942 76.3862 129.862 76.4414C129.783 76.4966 129.689 76.528 129.593 76.532Z" fill="#1F1F1F"/>
<path d="M136.6 76.532C136.54 76.532 136.481 76.5199 136.426 76.4964C136.371 76.4729 136.322 76.4385 136.281 76.3952C136.236 76.3506 136.2 76.2972 136.177 76.2384C136.153 76.1796 136.142 76.1166 136.144 76.0532C136.144 75.9462 136.173 75.8412 136.228 75.7492L136.912 74.6852H135.513C135.449 74.6886 135.384 74.6781 135.324 74.6545C135.263 74.6309 135.209 74.5947 135.164 74.5484C135.085 74.4575 135.042 74.3415 135.042 74.2216C135.042 74.1017 135.085 73.9858 135.164 73.8948C135.209 73.8485 135.263 73.8124 135.324 73.7888C135.384 73.7652 135.449 73.7547 135.513 73.758L136.889 73.796L136.243 72.77C136.182 72.6688 136.148 72.5537 136.144 72.4356C136.142 72.3723 136.153 72.3093 136.177 72.2505C136.2 72.1917 136.236 72.1383 136.281 72.0936C136.323 72.0502 136.374 72.0157 136.43 71.9922C136.486 71.9687 136.547 71.9567 136.608 71.9568C136.693 71.9556 136.776 71.9794 136.848 72.0254C136.92 72.0713 136.976 72.1374 137.01 72.2152L137.679 73.4084L138.318 72.2684C138.358 72.1797 138.422 72.1038 138.502 72.0488C138.582 71.9939 138.676 71.9621 138.774 71.9568C138.833 71.9568 138.892 71.969 138.947 71.9925C139.002 72.016 139.052 72.0504 139.093 72.0936C139.137 72.1354 139.173 72.1861 139.196 72.2424C139.22 72.2987 139.231 72.3594 139.23 72.4204C139.229 72.5284 139.197 72.6338 139.138 72.7244L138.47 73.796L139.86 73.758C139.925 73.7542 139.99 73.7645 140.05 73.7881C140.111 73.8117 140.165 73.8481 140.21 73.8948C140.288 73.9858 140.331 74.1017 140.331 74.2216C140.331 74.3415 140.288 74.4575 140.21 74.5484C140.165 74.5951 140.111 74.6316 140.05 74.6552C139.99 74.6788 139.925 74.6891 139.86 74.6852H138.454L139.078 75.658C139.148 75.7755 139.187 75.9089 139.192 76.0456C139.194 76.1072 139.183 76.1686 139.161 76.2261C139.139 76.2835 139.105 76.3359 139.062 76.38C139.022 76.4227 138.974 76.4568 138.921 76.4803C138.867 76.5038 138.809 76.5162 138.751 76.5168C138.657 76.5145 138.565 76.4854 138.487 76.4329C138.409 76.3804 138.348 76.3067 138.31 76.2204L137.679 75.1032L137.048 76.2204C137.011 76.3096 136.949 76.3862 136.869 76.4414C136.79 76.4966 136.697 76.528 136.6 76.532Z" fill="#1F1F1F"/>
<path d="M143.546 76.532C143.487 76.532 143.427 76.5199 143.373 76.4964C143.318 76.4729 143.268 76.4385 143.227 76.3952C143.182 76.3506 143.147 76.2972 143.123 76.2384C143.1 76.1796 143.088 76.1166 143.09 76.0532C143.094 75.9467 143.122 75.8426 143.174 75.7492L143.858 74.6852H142.459C142.395 74.6886 142.33 74.6781 142.27 74.6545C142.21 74.6309 142.155 74.5947 142.11 74.5484C142.032 74.4575 141.989 74.3415 141.989 74.2216C141.989 74.1017 142.032 73.9858 142.11 73.8948C142.155 73.8485 142.21 73.8124 142.27 73.7888C142.33 73.7652 142.395 73.7547 142.459 73.758L143.835 73.796L143.189 72.77C143.128 72.6688 143.094 72.5537 143.09 72.4356C143.088 72.3723 143.1 72.3093 143.123 72.2505C143.147 72.1917 143.182 72.1383 143.227 72.0936C143.27 72.0502 143.32 72.0157 143.377 71.9922C143.433 71.9687 143.493 71.9567 143.554 71.9568C143.639 71.9556 143.723 71.9794 143.794 72.0254C143.866 72.0713 143.922 72.1374 143.957 72.2152L144.625 73.4084L145.264 72.2684C145.304 72.1797 145.368 72.1038 145.448 72.0488C145.529 71.9939 145.623 71.9621 145.72 71.9568C145.78 71.9559 145.839 71.9676 145.894 71.9912C145.949 72.0148 145.998 72.0497 146.039 72.0936C146.084 72.1354 146.119 72.1861 146.142 72.2424C146.166 72.2987 146.177 72.3594 146.176 72.4204C146.175 72.5284 146.143 72.6338 146.085 72.7244L145.416 73.796L146.807 73.758C146.871 73.7542 146.936 73.7645 146.996 73.7881C147.057 73.8117 147.111 73.8481 147.156 73.8948C147.234 73.9858 147.277 74.1017 147.277 74.2216C147.277 74.3415 147.234 74.4575 147.156 74.5484C147.111 74.5952 147.057 74.6316 146.996 74.6552C146.936 74.6788 146.871 74.6891 146.807 74.6852H145.401L146.024 75.658C146.094 75.7755 146.133 75.9089 146.138 76.0456C146.14 76.1072 146.13 76.1686 146.107 76.2261C146.085 76.2835 146.052 76.3359 146.009 76.38C145.969 76.4227 145.92 76.4568 145.867 76.4803C145.813 76.5038 145.756 76.5163 145.697 76.5168C145.603 76.5145 145.512 76.4854 145.433 76.4329C145.355 76.3804 145.294 76.3067 145.256 76.2204L144.625 75.1032L143.995 76.2204C143.957 76.3096 143.895 76.3862 143.816 76.4414C143.736 76.4966 143.643 76.528 143.546 76.532Z" fill="#1F1F1F"/>
<path d="M150.523 76.532C150.463 76.532 150.404 76.5199 150.349 76.4964C150.295 76.4729 150.245 76.4385 150.204 76.3952C150.159 76.3506 150.124 76.2972 150.1 76.2384C150.076 76.1796 150.065 76.1166 150.067 76.0532C150.071 75.9467 150.099 75.8426 150.151 75.7492L150.835 74.6852H149.444C149.378 74.6892 149.312 74.679 149.25 74.6554C149.189 74.6318 149.133 74.5953 149.087 74.5484C149.009 74.4575 148.966 74.3415 148.966 74.2216C148.966 74.1017 149.009 73.9858 149.087 73.8948C149.133 73.8479 149.189 73.8115 149.25 73.7879C149.312 73.7643 149.378 73.7541 149.444 73.758L150.812 73.796L150.166 72.77C150.105 72.6688 150.071 72.5537 150.067 72.4356C150.065 72.3723 150.076 72.3093 150.1 72.2505C150.124 72.1917 150.159 72.1383 150.204 72.0936C150.246 72.0502 150.297 72.0157 150.353 71.9922C150.41 71.9687 150.47 71.9567 150.531 71.9568C150.616 71.9556 150.699 71.9794 150.771 72.0254C150.843 72.0713 150.899 72.1374 150.933 72.2152L151.602 73.4084L152.241 72.2684C152.281 72.1797 152.345 72.1038 152.425 72.0488C152.505 71.9939 152.599 71.9621 152.697 71.9568C152.756 71.9559 152.816 71.9676 152.871 71.9912C152.926 72.0148 152.975 72.0497 153.016 72.0936C153.06 72.1354 153.096 72.1861 153.119 72.2424C153.143 72.2987 153.154 72.3594 153.153 72.4204C153.152 72.5284 153.12 72.6338 153.061 72.7244L152.393 73.796L153.783 73.758C153.848 73.7542 153.913 73.7645 153.973 73.7881C154.034 73.8117 154.088 73.8481 154.133 73.8948C154.211 73.9858 154.254 74.1017 154.254 74.2216C154.254 74.3415 154.211 74.4575 154.133 74.5484C154.088 74.5952 154.034 74.6316 153.973 74.6552C153.913 74.6788 153.848 74.6891 153.783 74.6852H152.377L153.001 75.658C153.071 75.7755 153.11 75.9089 153.115 76.0456C153.117 76.1072 153.106 76.1686 153.084 76.2261C153.062 76.2835 153.028 76.3359 152.985 76.38C152.945 76.4227 152.897 76.4568 152.844 76.4803C152.79 76.5038 152.732 76.5163 152.674 76.5168C152.58 76.5145 152.488 76.4854 152.41 76.4329C152.332 76.3804 152.271 76.3067 152.233 76.2204L151.602 75.1032L150.971 76.2204C150.934 76.3096 150.872 76.3862 150.793 76.4414C150.713 76.4966 150.62 76.528 150.523 76.532Z" fill="#1F1F1F"/>
<path d="M157.5 76.532C157.44 76.532 157.381 76.5199 157.326 76.4964C157.271 76.4729 157.222 76.4384 157.181 76.3952C157.136 76.3506 157.1 76.2972 157.077 76.2384C157.053 76.1796 157.042 76.1165 157.044 76.0532C157.044 75.9462 157.073 75.8411 157.127 75.7492L157.811 74.6852H156.413C156.348 74.6885 156.284 74.678 156.224 74.6545C156.163 74.6309 156.109 74.5947 156.063 74.5484C155.985 74.4574 155.942 74.3415 155.942 74.2216C155.942 74.1017 155.985 73.9858 156.063 73.8948C156.109 73.8485 156.163 73.8123 156.224 73.7888C156.284 73.7652 156.348 73.7547 156.413 73.758L157.789 73.796L157.12 72.808C157.059 72.7068 157.025 72.5917 157.021 72.4736C157.019 72.4103 157.03 72.3473 157.054 72.2884C157.078 72.2296 157.113 72.1762 157.158 72.1316C157.2 72.0882 157.251 72.0537 157.307 72.0302C157.364 72.0067 157.424 71.9946 157.485 71.9948C157.57 71.9935 157.653 72.0174 157.725 72.0633C157.797 72.1093 157.853 72.1753 157.887 72.2532L158.556 73.4464L159.195 72.3064C159.235 72.2177 159.299 72.1417 159.379 72.0868C159.459 72.0319 159.553 72 159.651 71.9948C159.71 71.9939 159.77 72.0056 159.825 72.0292C159.88 72.0527 159.929 72.0876 159.97 72.1316C160.014 72.1734 160.05 72.2241 160.073 72.2804C160.097 72.3367 160.108 72.3974 160.107 72.4584C160.106 72.5663 160.074 72.6718 160.015 72.7624L159.347 73.834L160.737 73.796C160.802 73.7922 160.867 73.8024 160.927 73.8261C160.988 73.8497 161.042 73.8861 161.087 73.9328C161.165 74.0238 161.208 74.1397 161.208 74.2596C161.208 74.3795 161.165 74.4954 161.087 74.5864C161.042 74.6331 160.988 74.6695 160.927 74.6932C160.867 74.7168 160.802 74.727 160.737 74.7232H159.331L159.955 75.696C160.025 75.8134 160.064 75.9468 160.069 76.0836C160.071 76.1452 160.06 76.2066 160.038 76.264C160.016 76.3215 159.982 76.3739 159.939 76.418C159.899 76.4607 159.851 76.4948 159.798 76.5183C159.744 76.5418 159.686 76.5542 159.628 76.5548C159.534 76.5525 159.442 76.5234 159.364 76.4709C159.286 76.4184 159.225 76.3447 159.187 76.2584L158.556 75.1412L157.925 76.2584C157.884 76.3371 157.824 76.4038 157.749 76.4518C157.674 76.4998 157.588 76.5274 157.5 76.532Z" fill="#1F1F1F"/>
<path d="M164.477 76.532C164.417 76.532 164.358 76.5198 164.303 76.4963C164.248 76.4728 164.199 76.4384 164.157 76.3952C164.112 76.3505 164.077 76.2971 164.054 76.2383C164.03 76.1795 164.019 76.1165 164.021 76.0532C164.024 75.9467 164.053 75.8425 164.104 75.7492L164.788 74.6852H163.397C163.333 74.69 163.268 74.6803 163.207 74.6566C163.147 74.6329 163.092 74.5959 163.048 74.5484C162.965 74.4597 162.919 74.3429 162.919 74.2216C162.919 74.1002 162.965 73.9834 163.048 73.8948C163.092 73.8472 163.147 73.8102 163.207 73.7865C163.268 73.7628 163.333 73.7531 163.397 73.758L164.765 73.796L164.119 72.77C164.058 72.6688 164.024 72.5536 164.021 72.4356C164.019 72.3734 164.029 72.3115 164.051 72.2535C164.074 72.1955 164.108 72.1425 164.151 72.0979C164.194 72.0532 164.246 72.0177 164.303 71.9934C164.36 71.9692 164.422 71.9567 164.484 71.9568C164.569 71.9555 164.653 71.9793 164.725 72.0253C164.796 72.0712 164.853 72.1373 164.887 72.2152L165.556 73.4084L166.194 72.2684C166.234 72.1797 166.298 72.1037 166.379 72.0487C166.459 71.9938 166.553 71.962 166.65 71.9568C166.71 71.9548 166.77 71.9661 166.825 71.9897C166.88 72.0134 166.929 72.0488 166.969 72.0936C167.014 72.1353 167.049 72.186 167.073 72.2423C167.096 72.2987 167.108 72.3593 167.106 72.4204C167.105 72.5283 167.074 72.6337 167.015 72.7244L166.346 73.796L167.737 73.758C167.802 73.7541 167.866 73.7644 167.927 73.788C167.987 73.8116 168.042 73.848 168.087 73.8948C168.165 73.9857 168.208 74.1017 168.208 74.2216C168.208 74.3415 168.165 74.4574 168.087 74.5484C168.042 74.5951 167.987 74.6315 167.927 74.6551C167.866 74.6787 167.802 74.689 167.737 74.6852H166.331L166.954 75.658C167.025 75.7754 167.064 75.9088 167.068 76.0456C167.07 76.1054 167.06 76.1652 167.039 76.2213C167.018 76.2774 166.986 76.3288 166.945 76.3725C166.905 76.4163 166.855 76.4515 166.801 76.4763C166.746 76.501 166.687 76.5148 166.627 76.5168C166.533 76.5145 166.442 76.4854 166.364 76.4329C166.286 76.3803 166.224 76.3066 166.187 76.2204L165.556 75.1032L164.925 76.2204C164.888 76.3095 164.826 76.3862 164.746 76.4413C164.667 76.4965 164.573 76.528 164.477 76.532Z" fill="#1F1F1F"/>
<path d="M171.453 76.532C171.394 76.532 171.335 76.5198 171.28 76.4963C171.225 76.4728 171.175 76.4384 171.134 76.3952C171.089 76.3505 171.054 76.2971 171.03 76.2383C171.007 76.1795 170.996 76.1165 170.997 76.0532C171.001 75.9467 171.03 75.8425 171.081 75.7492L171.765 74.6852H170.367C170.303 74.6889 170.239 74.6786 170.18 74.6549C170.121 74.6313 170.068 74.5949 170.025 74.5484C169.942 74.4597 169.896 74.3429 169.896 74.2216C169.896 74.1002 169.942 73.9834 170.025 73.8948C170.068 73.8482 170.121 73.8118 170.18 73.7882C170.239 73.7645 170.303 73.7542 170.367 73.758L171.742 73.796L171.096 72.77C171.035 72.6688 171.001 72.5536 170.997 72.4356C170.995 72.3734 171.006 72.3115 171.028 72.2535C171.051 72.1955 171.084 72.1425 171.128 72.0979C171.171 72.0532 171.223 72.0177 171.28 71.9934C171.337 71.9692 171.399 71.9567 171.461 71.9568C171.546 71.9555 171.63 71.9793 171.701 72.0253C171.773 72.0712 171.829 72.1373 171.864 72.2152L172.533 73.4084L173.171 72.2684C173.211 72.1797 173.275 72.1037 173.355 72.0487C173.436 71.9938 173.53 71.962 173.627 71.9568C173.687 71.9548 173.747 71.9661 173.802 71.9897C173.857 72.0134 173.906 72.0488 173.946 72.0936C173.991 72.1353 174.026 72.186 174.05 72.2423C174.073 72.2987 174.085 72.3593 174.083 72.4204C174.082 72.5283 174.05 72.6337 173.992 72.7244L173.323 73.796L174.714 73.758C174.779 73.7541 174.843 73.7644 174.904 73.788C174.964 73.8116 175.018 73.848 175.063 73.8948C175.142 73.9857 175.184 74.1017 175.184 74.2216C175.184 74.3415 175.142 74.4574 175.063 74.5484C175.018 74.5951 174.964 74.6315 174.904 74.6551C174.843 74.6787 174.779 74.689 174.714 74.6852H173.308L173.931 75.658C174.001 75.7754 174.041 75.9088 174.045 76.0456C174.047 76.1054 174.037 76.1652 174.016 76.2213C173.995 76.2774 173.963 76.3288 173.922 76.3725C173.881 76.4163 173.832 76.4515 173.778 76.4763C173.723 76.501 173.664 76.5148 173.604 76.5168C173.51 76.5145 173.419 76.4854 173.341 76.4329C173.263 76.3803 173.201 76.3066 173.163 76.2204L172.533 75.1032L171.902 76.2204C171.864 76.3095 171.802 76.3862 171.723 76.4413C171.644 76.4965 171.55 76.528 171.453 76.532Z" fill="#1F1F1F"/>
<path d="M178.4 76.532C178.34 76.532 178.281 76.5198 178.226 76.4963C178.171 76.4728 178.122 76.4384 178.081 76.3952C178.036 76.3505 178 76.2971 177.977 76.2383C177.953 76.1795 177.942 76.1165 177.944 76.0532C177.947 75.9467 177.976 75.8425 178.028 75.7492L178.712 74.6852H177.313C177.25 74.6889 177.186 74.6786 177.127 74.6549C177.068 74.6313 177.015 74.5949 176.971 74.5484C176.888 74.4597 176.842 74.3429 176.842 74.2216C176.842 74.1002 176.888 73.9834 176.971 73.8948C177.015 73.8482 177.068 73.8118 177.127 73.7882C177.186 73.7645 177.25 73.7542 177.313 73.758L178.689 73.796L178.043 72.77C177.982 72.6688 177.948 72.5536 177.944 72.4356C177.942 72.3722 177.953 72.3092 177.977 72.2504C178 72.1916 178.036 72.1382 178.081 72.0936C178.123 72.0501 178.174 72.0156 178.23 71.9921C178.286 71.9686 178.347 71.9566 178.408 71.9568C178.493 71.9555 178.576 71.9793 178.648 72.0253C178.72 72.0712 178.776 72.1373 178.81 72.2152L179.479 73.4084L180.118 72.2684C180.158 72.1797 180.222 72.1037 180.302 72.0487C180.382 71.9938 180.476 71.962 180.574 71.9568C180.634 71.9548 180.693 71.9661 180.748 71.9897C180.803 72.0134 180.853 72.0488 180.893 72.0936C180.937 72.1353 180.973 72.186 180.996 72.2423C181.02 72.2987 181.031 72.3593 181.03 72.4204C181.029 72.5283 180.997 72.6337 180.938 72.7244L180.27 73.796L181.66 73.758C181.725 73.7541 181.79 73.7644 181.85 73.788C181.911 73.8116 181.965 73.848 182.01 73.8948C182.088 73.9857 182.131 74.1017 182.131 74.2216C182.131 74.3415 182.088 74.4574 182.01 74.5484C181.965 74.5951 181.911 74.6315 181.85 74.6551C181.79 74.6787 181.725 74.689 181.66 74.6852H180.254L180.878 75.658C180.948 75.7754 180.987 75.9088 180.992 76.0456C180.994 76.1071 180.983 76.1685 180.961 76.226C180.939 76.2835 180.905 76.3358 180.862 76.38C180.822 76.4226 180.774 76.4567 180.721 76.4802C180.667 76.5037 180.609 76.5162 180.551 76.5168C180.457 76.5145 180.365 76.4854 180.287 76.4329C180.209 76.3803 180.148 76.3066 180.11 76.2204L179.479 75.1032L178.848 76.2204C178.811 76.3095 178.749 76.3862 178.669 76.4413C178.59 76.4965 178.497 76.528 178.4 76.532Z" fill="#1F1F1F"/>
<path d="M202.31 93.3433H211.604" stroke="white" stroke-width="3" stroke-linecap="round" stroke-linejoin="round"/>
<path d="M73.3906 24.9052V86.64C73.3906 88.4278 74.1009 90.1425 75.3651 91.4067C76.6293 92.6709 78.3439 93.3811 80.1318 93.3811H193.486" stroke="white" stroke-width="3" stroke-linecap="round" stroke-linejoin="round"/>
<path d="M73.3906 8.53479V17.7916" stroke="white" stroke-width="3" stroke-linecap="round" stroke-linejoin="round"/>
</g>
<defs>
<clipPath id="clip0_96_208">
<rect width="303" height="271" fill="white"/>
</clipPath>
</defs>
</svg>
