<svg width="300" height="276" viewBox="0 0 300 276" fill="none" xmlns="http://www.w3.org/2000/svg">
<path d="M107.795 12.0638L15.9714 131.41L262.917 69.9949L125.37 7.6536C122.374 6.29299 119.005 5.9883 115.813 6.78923C112.621 7.59016 109.795 9.44944 107.795 12.0638Z" fill="#EBEBEB"/>
<path d="M14.6692 132.259L107.389 11.7646C109.457 9.05512 112.385 7.13067 115.692 6.30803C118.999 5.48539 122.487 5.81358 125.582 7.23857L264.489 70.1878L14.6692 132.259ZM119.332 6.80431C117.175 6.80577 115.047 7.30659 113.116 8.26758C111.185 9.22856 109.502 10.6236 108.2 12.3436L17.264 130.57L261.373 69.8597L125.168 8.09745C123.333 7.27023 121.343 6.84574 119.332 6.85256V6.80431Z" fill="#E0E0E0"/>
<path d="M15.9648 131.414L263.78 69.7848L297.167 204.149C297.828 206.809 297.405 209.623 295.993 211.972C294.58 214.32 292.292 216.011 289.633 216.673L61.8704 273.315C59.2113 273.976 56.3985 273.554 54.0509 272.14C51.7032 270.727 50.013 268.439 49.352 265.778L15.9648 131.414Z" fill="#F0F0F0"/>
<path d="M248.525 77.1457L162.672 164.896L32.9104 135.675L18.0647 66.8199C17.2431 63.2681 17.8496 59.5356 19.7533 56.4271C21.657 53.3185 24.7055 51.0828 28.2416 50.202L215.959 3.52323C217.728 3.08156 219.568 2.99341 221.372 3.2638C223.175 3.5342 224.908 4.15784 226.471 5.09904C228.034 6.04023 229.395 7.28049 230.478 8.74882C231.561 10.2172 232.344 11.8847 232.782 13.6561L248.525 77.1457Z" fill="white"/>
<path d="M150.885 157.996L48.9329 264.575C49.2928 266.024 49.9348 267.388 50.822 268.59C51.7092 269.791 52.8242 270.805 54.1035 271.575C55.3827 272.345 56.801 272.855 58.2774 273.076C59.7537 273.297 61.2592 273.225 62.7078 272.864L288.721 216.651C291.645 215.924 294.16 214.064 295.714 211.482C297.268 208.9 297.733 205.806 297.007 202.88L296.795 202.031L163.483 154.985C161.316 154.219 158.974 154.096 156.739 154.63C154.504 155.164 152.471 156.333 150.885 157.996Z" fill="#E0E0E0"/>
<path d="M118.312 60.3673L44.8755 78.644L46.7408 86.1453L120.178 67.8686L118.312 60.3673Z" fill="#D2832D"/>
<path d="M212.54 57.1111L49.6028 97.6624L51.7103 106.138L214.648 65.5864L212.54 57.1111Z" fill="#D2832D"/>
<path d="M217.694 77.817L54.7568 118.368L56.8644 126.844L219.802 86.2923L217.694 77.817Z" fill="#D2832D"/>
<path d="M221.119 105.257L216.017 110.362L79.232 146.136L61.3574 141.958L60.6821 140.018L223.097 99.6022L223.801 102.41L221.119 105.257Z" fill="#D2832D"/>
<path d="M186.132 140.915L124.512 156.24L105.672 151.936L197.766 129.016L186.132 140.915Z" fill="#D2832D"/>
<path d="M147.161 161.876C147.161 161.876 147.093 161.982 146.929 162.165L146.196 162.966L143.36 166.006L132.856 177.133C123.962 186.504 111.634 199.454 97.9842 213.65C84.3347 227.846 71.7945 240.584 62.6498 249.713C58.0774 254.278 54.3539 257.964 51.7687 260.483L48.788 263.378L47.997 264.121C47.9145 264.213 47.8205 264.295 47.7173 264.363C47.7885 264.262 47.8693 264.168 47.9584 264.083L48.7109 263.301L51.6047 260.338L62.3797 249.462C71.4568 240.266 83.9295 227.498 97.608 213.293C111.286 199.088 123.653 186.272 132.576 176.882L143.187 165.871L146.081 162.899L146.852 162.136C147.065 161.953 147.161 161.876 147.161 161.876Z" fill="#FAFAFA"/>
<path d="M296.795 202.012C296.746 202.147 268.319 192.274 233.303 179.961C198.287 167.647 169.936 157.552 169.984 157.417C170.033 157.282 198.46 167.145 233.476 179.459C268.492 191.773 296.843 201.867 296.795 202.012Z" fill="#FAFAFA"/>
<path d="M252.605 72.9189C252.551 73.0049 252.49 73.0857 252.422 73.1602L251.881 73.8261L249.595 76.3641L241.077 85.6188C233.862 93.4066 223.811 104.08 212.544 115.728C201.277 127.376 190.878 137.769 183.335 145.239L174.354 154.04L171.885 156.404L171.238 157.012C171.084 157.147 171.007 157.215 170.997 157.205C171.058 157.123 171.126 157.045 171.2 156.973L171.807 156.327L174.209 153.895L183.065 144.978C190.55 137.441 200.843 127 212.11 115.361C223.376 103.723 233.467 93.1268 240.759 85.4065L249.393 76.2676L251.756 73.7971L252.383 73.1602C252.447 73.071 252.521 72.9899 252.605 72.9189Z" fill="#FAFAFA"/>
<path d="M147.161 161.876C147.047 161.869 146.933 161.85 146.824 161.818L145.859 161.586L142 160.621C138.701 159.791 133.907 158.624 127.975 157.234C116.119 154.426 99.6724 150.807 81.4988 146.87C63.3251 142.932 46.8878 139.255 35.0518 136.351C29.129 134.903 24.3444 133.687 21.055 132.799L17.264 131.767L16.2994 131.487C16.1855 131.463 16.0752 131.424 15.9714 131.371L16.3091 131.439L17.2737 131.661L21.1322 132.626C24.4409 133.456 29.2351 134.614 35.1676 136.013C47.0229 138.821 63.4602 142.44 81.6435 146.377C99.8267 150.315 116.254 153.992 128.09 156.896C134.013 158.344 138.798 159.55 142.087 160.448L145.869 161.48L146.833 161.76L147.161 161.876Z" fill="#FAFAFA"/>
<path d="M248.524 77.1458C248.524 77.1458 248.428 76.8273 248.264 76.1807L247.56 73.4497C246.942 71.0274 246.045 67.4857 244.888 62.9211L235.174 24.2039C234.66 22.1581 234.135 20.0639 233.602 17.9216C233.341 16.86 233.071 15.7695 232.791 14.679C232.656 14.129 232.521 13.5789 232.348 13.0481C232.196 12.5062 232.003 11.9771 231.769 11.4655C230.813 9.30047 229.309 7.42221 227.406 6.01592C225.503 4.60962 223.266 3.72388 220.917 3.44603C219.697 3.27726 218.461 3.27726 217.242 3.44603C216.026 3.65834 214.791 3.9961 213.547 4.29526L205.975 6.22533L190.145 10.1337L119.814 27.6974L49.3959 45.1838L33.5856 49.1018L29.7271 50.0669C28.4747 50.3272 27.248 50.6986 26.0615 51.1767C23.773 52.169 21.7986 53.7673 20.3509 55.7992C19.6503 56.7866 19.0797 57.8602 18.6531 58.9934C18.2553 60.1129 17.993 61.276 17.8718 62.4579C17.592 64.8223 18.248 67.0997 18.711 69.3483C19.6756 73.8518 20.5984 78.1655 21.4795 82.2894C25.0004 98.7818 27.846 112.119 29.8139 121.354C30.7785 125.967 31.5406 129.537 32.0615 131.969C32.3026 133.176 32.4955 134.102 32.6306 134.739C32.7656 135.376 32.8042 135.704 32.8042 135.704C32.8042 135.704 32.7174 135.386 32.5727 134.739C32.428 134.092 32.2255 133.185 31.9554 131.989C31.4152 129.547 30.6338 125.977 29.6209 121.373C27.6049 112.148 24.7013 98.8108 21.1129 82.3473C20.2254 78.2266 19.2801 73.9129 18.3058 69.4062C17.8428 67.1866 17.1676 64.8319 17.457 62.3904C17.5679 61.1682 17.8337 59.9651 18.248 58.8101C18.6887 57.6408 19.2753 56.5318 19.9939 55.5097C20.7248 54.4693 21.5983 53.5369 22.5888 52.74C23.5806 51.9127 24.689 51.2364 25.8782 50.7327C27.0852 50.2399 28.3348 49.8587 29.6113 49.594L33.4698 48.629L49.3091 44.7109L119.727 27.1859L190.145 9.69946L205.955 5.78141L213.528 3.90924C214.772 3.60043 215.988 3.27232 217.261 3.05036C219.12 2.77252 221.016 2.86838 222.838 3.33234C224.66 3.7963 226.371 4.61905 227.872 5.75246C229.781 7.19814 231.288 9.10834 232.251 11.3014C232.493 11.8284 232.693 12.3738 232.849 12.9323C233.023 13.4824 233.158 14.0325 233.293 14.5825C233.563 15.673 233.824 16.7635 234.094 17.8347C234.624 19.9771 235.135 22.0712 235.647 24.1171L245.197 62.9018C246.306 67.4761 247.174 71.0274 247.762 73.4497C248.052 74.656 248.274 75.5727 248.418 76.2C248.563 76.8273 248.524 77.1458 248.524 77.1458Z" fill="#E0E0E0"/>
<path d="M140.669 26.211L131.129 33.4778L131.592 47.355L122.862 40.4164L118.039 44.5467L99.7112 21.907L140.669 26.211Z" fill="#4267B2"/>
<path d="M127.541 36.4308C127.541 36.8554 131.592 47.355 131.592 47.355L122.862 40.4164L127.541 36.4308Z" fill="#4267B2"/>
<g opacity="0.3">
<path d="M127.541 36.4308C127.541 36.8554 131.592 47.355 131.592 47.355L122.862 40.4164L127.541 36.4308Z" fill="#1F1F1F"/>
</g>
<path d="M99.7112 21.907L127.541 36.4308L131.592 47.355L131.129 33.4778L99.7112 21.907Z" fill="#4267B2"/>
<path opacity="0.1" d="M99.7112 21.907L127.541 36.4308L131.592 47.355L131.129 33.4778L99.7112 21.907Z" fill="#1F1F1F"/>
<path d="M176.881 209.143C175.166 209.086 173.482 208.676 171.933 207.937C173.648 207.994 175.333 208.404 176.881 209.143Z" fill="#4267B2"/>
<path d="M184.772 211.073C184.772 211.218 184.049 211.17 183.238 210.977C182.428 210.784 181.791 210.494 181.82 210.349C181.849 210.205 182.544 210.253 183.364 210.455C184.184 210.658 184.811 210.928 184.772 211.073Z" fill="#4267B2"/>
<path d="M152.206 45.5407C151.351 45.5532 150.499 45.4194 149.689 45.1451C148.839 45.0407 148.015 44.7823 147.258 44.3827C148.118 44.2697 148.992 44.3555 149.814 44.6336C150.673 44.7389 151.494 45.0501 152.206 45.5407Z" fill="#4267B2"/>
<path d="M161.544 49.5455C159.926 49.0143 158.395 48.2469 157 47.2681C157.862 47.35 158.691 47.6343 159.422 48.098C160.685 48.7349 161.621 49.4201 161.544 49.5455Z" fill="#4267B2"/>
<path d="M169.637 55.6832C169.531 55.7894 168.673 55.0656 167.592 54.1585C166.512 53.2514 165.663 52.4793 165.788 52.3539C166.611 52.6446 167.354 53.1238 167.959 53.7532C169.01 54.6796 169.743 55.5867 169.637 55.6832Z" fill="#4267B2"/>
<path d="M175.811 63.7413C175.676 63.8088 175.039 62.8727 174.267 61.7147C173.727 61.051 173.303 60.3005 173.013 59.4951C173.119 59.4083 173.93 60.2382 174.711 61.4252C175.255 62.0994 175.632 62.8931 175.811 63.7413Z" fill="#4267B2"/>
<path d="M179.312 73.2661C178.898 72.5177 178.611 71.7057 178.463 70.8632C178.141 70.0678 177.961 69.2217 177.933 68.3638C178.454 69.0584 178.807 69.8644 178.965 70.7185C179.289 71.526 179.409 72.4013 179.312 73.2661Z" fill="#4267B2"/>
<path d="M179.833 83.399C179.661 82.561 179.625 81.7007 179.727 80.8513C179.655 79.9982 179.733 79.139 179.959 78.3132C180.253 79.1281 180.356 80 180.258 80.8609C180.319 81.7286 180.173 82.5983 179.833 83.399Z" fill="#4267B2"/>
<path d="M177.2 93.1845C177.303 92.3373 177.545 91.5126 177.914 90.743C178.11 89.9155 178.436 89.1242 178.878 88.3979C178.925 89.2674 178.749 90.1345 178.367 90.9167C178.171 91.7573 177.77 92.5363 177.2 93.1845Z" fill="#4267B2"/>
<path d="M171.306 101.426C171.209 101.31 171.962 100.461 172.878 99.4186C173.795 98.3764 174.528 97.4885 174.653 97.5947C174.379 98.4212 173.906 99.1671 173.274 99.766C172.338 100.847 171.402 101.532 171.306 101.426Z" fill="#4267B2"/>
<path d="M162.798 106.907C163.45 106.356 164.186 105.913 164.978 105.595C165.69 105.122 166.476 104.77 167.303 104.553C166.742 105.22 166.027 105.741 165.219 106.068C164.494 106.543 163.662 106.832 162.798 106.907Z" fill="#4267B2"/>
<path d="M152.901 109.04C153.708 108.743 154.559 108.583 155.419 108.567C156.253 108.375 157.113 108.32 157.965 108.403C157.208 108.832 156.356 109.068 155.486 109.088C154.634 109.292 153.744 109.276 152.901 109.04Z" fill="#4267B2"/>
<path d="M142.965 107.158C144.615 107.502 146.229 107.996 147.788 108.635C146.924 108.743 146.046 108.623 145.242 108.287C144.397 108.117 143.612 107.728 142.965 107.158Z" fill="#4267B2"/>
<path d="M135.923 100.171C136.068 100.123 136.512 101.136 137.303 102.275C138.094 103.414 138.856 104.205 138.75 104.35C138.644 104.495 137.698 103.771 136.869 102.584C136.285 101.913 135.951 101.06 135.923 100.171Z" fill="#4267B2"/>
<path d="M140.206 92.2676C140.206 92.422 139.155 92.7598 138.055 93.5415C136.956 94.3232 136.367 95.2978 136.232 95.2206C136.097 95.1434 136.521 93.9854 137.747 93.1169C138.428 92.5308 139.308 92.2271 140.206 92.2676Z" fill="#4267B2"/>
<path d="M148.927 95.8866C148.792 95.9638 148.174 95.0181 147.171 94.0917C146.168 93.1652 145.145 92.702 145.242 92.5573C146.138 92.6279 146.973 93.0388 147.576 93.7056C148.269 94.2509 148.747 95.0232 148.927 95.8866Z" fill="#4267B2"/>
<path d="M149.254 105.74C149.326 104.899 149.484 104.068 149.727 103.259C149.799 102.416 149.958 101.581 150.2 100.77C150.459 101.612 150.459 102.513 150.2 103.356C150.133 104.228 149.804 105.059 149.254 105.74Z" fill="#4267B2"/>
<path d="M142.647 113.315C142.56 113.19 143.438 112.466 144.489 111.568C145.541 110.671 146.419 109.899 146.486 109.995C146.554 110.092 145.927 111.038 144.837 111.925C143.747 112.813 142.724 113.441 142.647 113.315Z" fill="#4267B2"/>
<path d="M133.627 118.005C134.266 117.427 135.014 116.984 135.827 116.702C136.569 116.265 137.393 115.985 138.248 115.882C136.872 116.904 135.299 117.627 133.627 118.005Z" fill="#4267B2"/>
<path d="M124.55 122.618C124.473 122.493 125.389 121.807 126.605 121.074C127.314 120.579 128.125 120.249 128.978 120.109C129.055 120.254 128.071 120.842 126.865 121.537C126.176 122.054 125.388 122.422 124.55 122.618Z" fill="#4267B2"/>
<path d="M116.833 129.258C116.727 129.161 117.393 128.215 118.406 127.221C118.964 126.559 119.667 126.034 120.46 125.687C120.557 125.803 119.775 126.652 118.782 127.617C117.788 128.582 116.988 129.354 116.833 129.258Z" fill="#4267B2"/>
<path d="M111.045 137.576C111.207 136.724 111.564 135.922 112.087 135.231C112.83 134.025 113.592 133.156 113.708 133.243C113.458 134.063 113.062 134.831 112.541 135.511C111.807 136.698 111.18 137.644 111.045 137.576Z" fill="#4267B2"/>
<path d="M107.341 147.033C107.292 146.169 107.451 145.305 107.804 144.515C107.986 143.666 108.366 142.872 108.914 142.199C108.631 143.876 108.101 145.502 107.341 147.024V147.033Z" fill="#4267B2"/>
<path d="M106.01 157.108C105.66 155.416 105.78 153.661 106.357 152.032C106.504 152.875 106.504 153.737 106.357 154.58C106.391 155.437 106.273 156.292 106.01 157.108Z" fill="#4267B2"/>
<path d="M107.341 167.174C106.908 166.428 106.636 165.599 106.541 164.742C106.257 163.921 106.184 163.041 106.328 162.184C106.702 162.957 106.95 163.785 107.062 164.636C107.329 165.453 107.424 166.317 107.341 167.174Z" fill="#4267B2"/>
<path d="M111.267 176.535C111.142 176.612 110.457 175.685 109.83 174.411C109.365 173.679 109.083 172.845 109.01 171.98C109.566 172.632 110.003 173.377 110.303 174.18C110.76 174.902 111.086 175.699 111.267 176.535Z" fill="#4267B2"/>
<path d="M117.364 184.67C117.267 184.766 116.399 184.033 115.434 182.952C114.813 182.346 114.338 181.607 114.045 180.79C114.171 180.694 114.933 181.543 115.84 182.605C116.746 183.666 117.47 184.564 117.364 184.67Z" fill="#4267B2"/>
<path d="M125.197 191.136C124.358 190.91 123.585 190.49 122.939 189.91C121.801 189.08 121.01 188.25 121.087 188.134C121.884 188.455 122.618 188.912 123.258 189.485C124.377 190.306 125.274 191.01 125.197 191.136Z" fill="#4267B2"/>
<path d="M134.361 195.517C133.493 195.511 132.639 195.296 131.872 194.89C131.035 194.656 130.27 194.218 129.644 193.616C130.488 193.74 131.306 194.005 132.065 194.397C132.885 194.646 133.66 195.024 134.361 195.517Z" fill="#4267B2"/>
<path d="M139.463 196.82C139.463 196.955 139.377 197.07 139.328 197.061C139.28 197.051 139.261 196.926 139.328 196.781C139.396 196.636 139.415 196.53 139.463 196.54C139.512 196.549 139.492 196.675 139.463 196.82Z" fill="#4267B2"/>
<path d="M132.088 171.547L121.54 168.082L119.385 174.646L129.933 178.112L132.088 171.547Z" fill="#4267B2"/>
<g opacity="0.3">
<path d="M132.088 171.547L121.54 168.082L119.385 174.646L129.933 178.112L132.088 171.547Z" fill="#1F1F1F"/>
</g>
<path d="M132.065 171.565C130.092 172.554 128.048 173.393 125.949 174.074L125.766 174.141L125.65 173.987L125.467 173.755C124.003 171.975 122.684 170.081 121.521 168.09C123.111 169.759 124.572 171.546 125.891 173.437L126.065 173.668L125.766 173.582C127.808 172.741 129.914 172.066 132.065 171.565Z" fill="#4267B2"/>
<g opacity="0.1">
<path d="M132.065 171.565C130.092 172.554 128.048 173.393 125.949 174.074L125.766 174.141L125.65 173.987L125.467 173.755C124.003 171.975 122.684 170.081 121.521 168.09C123.111 169.759 124.572 171.546 125.891 173.437L126.065 173.668L125.766 173.582C127.808 172.741 129.914 172.066 132.065 171.565Z" fill="#1F1F1F"/>
</g>
<path d="M124.55 172.115C123.824 172.768 122.984 173.282 122.071 173.63C121.231 174.128 120.31 174.478 119.351 174.662C120.083 174.013 120.926 173.5 121.84 173.147C122.678 172.651 123.594 172.302 124.55 172.115Z" fill="#4267B2"/>
<g opacity="0.1">
<path d="M124.55 172.115C123.824 172.768 122.984 173.282 122.071 173.63C121.231 174.128 120.31 174.478 119.351 174.662C120.083 174.013 120.926 173.5 121.84 173.147C122.678 172.651 123.594 172.302 124.55 172.115Z" fill="#1F1F1F"/>
</g>
<path d="M130.097 178.185C129.506 177.457 129.049 176.63 128.746 175.743C128.11 174.305 127.685 173.07 127.878 173.089C128.47 173.818 128.93 174.644 129.238 175.531C129.688 176.354 129.979 177.254 130.097 178.185Z" fill="#4267B2"/>
<g opacity="0.1">
<path d="M130.097 178.185C129.506 177.457 129.049 176.63 128.746 175.743C128.11 174.305 127.685 173.07 127.878 173.089C128.47 173.818 128.93 174.644 129.238 175.531C129.688 176.354 129.979 177.254 130.097 178.185Z" fill="#1F1F1F"/>
</g>
<path d="M175.103 197.263L147.975 188.351L142.431 205.24L169.559 214.152L175.103 197.263Z" fill="#4267B2"/>
<path d="M175.078 197.283C174.691 197.505 174.284 197.689 173.862 197.833L170.486 199.155C167.592 200.245 163.647 201.732 159.2 203.362L159.017 203.43L158.901 203.276L158.447 202.677C155.496 198.817 152.833 195.218 150.933 192.622L148.666 189.543C148.377 189.175 148.122 188.781 147.904 188.366C148.258 188.686 148.581 189.038 148.869 189.418L151.232 192.4C153.21 194.928 155.91 198.45 158.872 202.359L159.325 202.948L159.026 202.861C163.464 201.239 167.467 199.811 170.361 198.808L173.795 197.64C174.21 197.481 174.64 197.361 175.078 197.283Z" fill="#4267B2"/>
<g opacity="0.2">
<path d="M175.078 197.283C174.691 197.505 174.284 197.689 173.862 197.833L170.486 199.155C167.592 200.245 163.647 201.732 159.2 203.362L159.017 203.43L158.901 203.276L158.447 202.677C155.496 198.817 152.833 195.218 150.933 192.622L148.666 189.543C148.377 189.175 148.122 188.781 147.904 188.366C148.258 188.686 148.581 189.038 148.869 189.418L151.232 192.4C153.21 194.928 155.91 198.45 158.872 202.359L159.325 202.948L159.026 202.861C163.464 201.239 167.467 199.811 170.361 198.808L173.795 197.64C174.21 197.481 174.64 197.361 175.078 197.283Z" fill="#1F1F1F"/>
</g>
<path d="M155.785 198.721C153.676 200.039 151.477 201.21 149.206 202.224C147.011 203.388 144.739 204.401 142.406 205.254C144.507 203.924 146.702 202.75 148.975 201.741C151.168 200.569 153.444 199.559 155.785 198.721Z" fill="#4267B2"/>
<g opacity="0.2">
<path d="M155.785 198.721C153.676 200.039 151.477 201.21 149.206 202.224C147.011 203.388 144.739 204.401 142.406 205.254C144.507 203.924 146.702 202.75 148.975 201.741C151.168 200.569 153.444 199.559 155.785 198.721Z" fill="#1F1F1F"/>
</g>
<path d="M170.023 214.325C168.836 212.254 167.801 210.1 166.927 207.879C165.896 205.723 165.025 203.494 164.322 201.21C165.51 203.284 166.545 205.442 167.418 207.667C168.45 209.819 169.32 212.044 170.023 214.325Z" fill="#4267B2"/>
<g opacity="0.2">
<path d="M170.023 214.325C168.836 212.254 167.801 210.1 166.927 207.879C165.896 205.723 165.025 203.494 164.322 201.21C165.51 203.284 166.545 205.442 167.418 207.667C168.45 209.819 169.32 212.044 170.023 214.325Z" fill="#1F1F1F"/>
</g>
<path d="M149.438 192.525C148.763 193.021 147.956 193.305 147.119 193.342C146.283 193.379 145.454 193.167 144.738 192.732C144.022 192.298 143.45 191.661 143.096 190.902C142.742 190.143 142.62 189.296 142.747 188.468C142.873 187.64 143.243 186.868 143.808 186.25C144.373 185.632 145.109 185.195 145.922 184.995C146.735 184.795 147.589 184.841 148.376 185.127C149.164 185.412 149.849 185.925 150.345 186.6C150.674 187.048 150.912 187.558 151.045 188.098C151.178 188.639 151.203 189.2 151.119 189.751C151.034 190.301 150.843 190.829 150.554 191.305C150.266 191.781 149.886 192.196 149.438 192.525Z" fill="#4267B2"/>
<path d="M149.631 188.327C148.735 188.994 147.782 189.581 146.785 190.084L146.11 190.46L145.984 190.528L145.917 190.412C145.46 189.687 145.073 188.922 144.759 188.125C145.297 188.793 145.765 189.514 146.158 190.277L145.975 190.219L146.65 189.833C147.598 189.245 148.595 188.741 149.631 188.327Z" fill="white"/>
<path d="M157.677 174.508L143.463 169.838L140.559 178.686L154.773 183.356L157.677 174.508Z" fill="#4267B2"/>
<g opacity="0.2">
<path d="M157.677 174.508L143.463 169.838L140.559 178.686L154.773 183.356L157.677 174.508Z" fill="#1F1F1F"/>
</g>
<path d="M157.647 174.518C157.449 174.636 157.238 174.733 157.02 174.807L155.245 175.502C153.75 176.071 151.666 176.853 149.332 177.702H149.235L149.177 177.615L148.946 177.307C147.393 175.261 146.052 173.398 145 172.037L143.843 170.464C143.693 170.27 143.561 170.064 143.447 169.847C143.626 170.014 143.788 170.198 143.93 170.397L145.174 171.96C146.206 173.282 147.624 175.126 149.168 177.171L149.409 177.49H149.254C151.579 176.641 153.672 175.888 155.196 175.367L156.991 174.759C157.2 174.654 157.42 174.573 157.647 174.518Z" fill="#4267B2"/>
<g opacity="0.2">
<path d="M157.647 174.518C157.449 174.636 157.238 174.733 157.02 174.807L155.245 175.502C153.75 176.071 151.666 176.853 149.332 177.702H149.235L149.177 177.615L148.946 177.307C147.393 175.261 146.052 173.398 145 172.037L143.843 170.464C143.693 170.27 143.561 170.064 143.447 169.847C143.626 170.014 143.788 170.198 143.93 170.397L145.174 171.96C146.206 173.282 147.624 175.126 149.168 177.171L149.409 177.49H149.254C151.579 176.641 153.672 175.888 155.196 175.367L156.991 174.759C157.2 174.654 157.42 174.573 157.647 174.518Z" fill="#4267B2"/>
</g>
<path d="M147.547 175.27C146.441 175.958 145.291 176.571 144.103 177.104C142.951 177.715 141.759 178.247 140.534 178.696C141.635 177.998 142.786 177.382 143.978 176.853C145.128 176.24 146.321 175.711 147.547 175.27Z" fill="#4267B2"/>
<g opacity="0.2">
<path d="M147.547 175.27C146.441 175.958 145.291 176.571 144.103 177.104C142.951 177.715 141.759 178.247 140.534 178.696C141.635 177.998 142.786 177.382 143.978 176.853C145.128 176.24 146.321 175.711 147.547 175.27Z" fill="#4267B2"/>
</g>
<path d="M155.004 183.444C154.381 182.36 153.84 181.231 153.383 180.067C152.847 178.935 152.389 177.768 152.013 176.573C153.183 178.784 154.183 181.081 155.004 183.444Z" fill="#4267B2"/>
<g opacity="0.2">
<path d="M155.004 183.444C154.381 182.36 153.84 181.231 153.383 180.067C152.847 178.935 152.389 177.768 152.013 176.573C153.183 178.784 154.183 181.081 155.004 183.444Z" fill="#4267B2"/>
</g>
<path d="M43.5214 63.7606C42.5404 67.623 40.4367 71.1076 37.4763 73.7739C34.5159 76.4402 30.8316 78.1685 26.8894 78.7401C22.9472 79.3118 18.9241 78.7012 15.3287 76.9855C11.7334 75.2698 8.7273 72.5261 6.69056 69.1014C4.65383 65.6766 3.67791 61.7246 3.88621 57.7449C4.09451 53.7653 5.47767 49.9368 7.86081 46.7436C10.2439 43.5504 13.52 41.1358 17.2748 39.8051C21.0296 38.4745 25.0945 38.2876 28.9554 39.268C34.1325 40.5853 38.5749 43.9051 41.3063 48.4979C44.0376 53.0906 44.8343 58.5804 43.5214 63.7606Z" fill="#4267B2"/>
<path d="M31.4345 47.876C31.7914 48.0208 29.5052 54.7664 26.3219 62.9499C25.8492 64.1369 25.3573 65.2756 24.9618 66.3951L24.7206 67.003L24.1129 66.7714C17.5824 64.2527 12.8074 62.1779 12.9232 61.8787C13.039 61.5795 17.9972 63.1429 24.5759 65.5265L23.7271 65.9125C24.1515 64.7931 24.5952 63.6447 25.0486 62.4577C28.2222 54.2646 31.0872 47.7699 31.4345 47.876Z" fill="white"/>
</svg>
