<svg width="350" height="350" viewBox="0 0 350 350" fill="none" xmlns="http://www.w3.org/2000/svg">
<path d="M312.431 101.703C312.431 101.703 256.151 20.678 185.885 12.103C123.858 4.48702 66.283 34.153 58.268 98.245C55.412 121.1 50.33 146.349 41.3 167.181C31.171 190.547 13.888 210 27.125 254.919C40.362 299.838 96.264 340.403 136.899 340.319C177.534 340.235 215.705 303.296 247.198 269.703C278.691 236.11 378.98 204.519 312.431 101.703Z" fill="#4267B2"/>
<path opacity="0.7" d="M312.431 101.703C312.431 101.703 256.151 20.678 185.885 12.103C123.858 4.48702 66.283 34.153 58.268 98.245C55.412 121.1 50.33 146.349 41.3 167.181C31.171 190.547 13.888 210 27.125 254.919C40.362 299.838 96.264 340.403 136.899 340.319C177.534 340.235 215.705 303.296 247.198 269.703C278.691 236.11 378.98 204.519 312.431 101.703Z" fill="white"/>
<path opacity="0.3" d="M219.247 214.795L224.343 236.243L202.895 241.339L206.444 256.263L227.892 251.167L232.988 272.615L247.905 269.066L242.809 247.618L264.257 242.522L260.715 227.598L239.267 232.701L234.171 211.253L219.247 214.795Z" stroke="#1F1F1F" stroke-miterlimit="10"/>
<path opacity="0.3" d="M186.816 260.841L189.245 271.054L179.032 273.483L180.719 280.588L190.932 278.159L193.361 288.379L200.466 286.692L198.044 276.472L208.257 274.043L206.57 266.938L196.35 269.367L193.928 259.147L186.816 260.841Z" stroke="#1F1F1F" stroke-miterlimit="10"/>
<path opacity="0.3" d="M38.43 160.874L40.859 171.087L30.646 173.516L32.333 180.628L42.546 178.199L44.975 188.412L52.087 186.725L49.658 176.512L59.871 174.083L58.184 166.971L47.971 169.4L45.542 159.187L38.43 160.874Z" stroke="#1F1F1F" stroke-miterlimit="10"/>
<path opacity="0.3" d="M228.865 21.959L231.294 32.179L221.074 34.608L222.761 41.713L232.981 39.284L235.41 49.504L242.515 47.81L240.086 37.597L250.306 35.168L248.612 28.063L238.399 30.485L235.97 20.272L228.865 21.959Z" stroke="#1F1F1F" stroke-miterlimit="10"/>
<path opacity="0.3" d="M53.865 21.938L55.552 29.022L48.461 30.709L49.637 35.637L56.721 33.957L58.408 41.041L63.336 39.872L61.656 32.781L68.74 31.101L67.571 26.166L60.48 27.853L58.8 20.762L53.865 21.938Z" stroke="#1F1F1F" stroke-miterlimit="10"/>
<path opacity="0.3" d="M239.351 149.814L241.031 156.905L233.947 158.585L235.116 163.52L242.207 161.833L243.894 168.924L248.822 167.748L247.135 160.664L254.226 158.977L253.057 154.049L245.966 155.729L244.279 148.638L239.351 149.814Z" stroke="#1F1F1F" stroke-miterlimit="10"/>
<path d="M129.969 68.418L132.398 78.631L122.178 81.06L123.865 88.172L134.085 85.743L136.514 95.956L143.619 94.269L141.19 84.056L151.41 81.627L149.716 74.515L139.503 76.944L137.074 66.731L129.969 68.418Z" fill="white" stroke="#263238" stroke-miterlimit="10"/>
<path d="M189.007 33.95L184.828 57.505L206.024 46.403L196.707 68.439L219.835 62.335L205.849 81.746L229.761 80.941L211.806 96.747L235.298 101.283L214.27 112.707L236.166 122.353L213.129 128.807L232.323 143.087L208.425 144.256L223.965 162.442L200.41 158.263L211.512 179.459L189.476 170.142L195.58 193.277L176.169 179.291L176.974 203.196L161.161 185.241L156.625 208.733L145.208 187.712L135.562 209.601L129.108 186.564L114.828 205.765L113.659 181.867L95.466 197.407L99.645 173.845L78.456 184.947L87.773 162.911L64.638 169.015L78.624 149.611L54.712 150.416L72.667 134.603L49.182 130.067L70.203 118.65L48.314 108.997L71.344 102.543L52.15 88.263L76.048 87.101L60.508 68.908L84.063 73.087L72.968 51.891L95.004 61.208L88.893 38.08L108.304 52.066L107.499 28.154L123.312 46.109L127.848 22.617L139.265 43.638L148.918 21.749L155.372 44.786L169.652 25.592L170.814 49.483L189.007 33.95Z" fill="#4267B2"/>
<path opacity="0.3" d="M258.405 338.212C281.141 338.212 299.572 335.843 299.572 332.92C299.572 329.997 281.141 327.628 258.405 327.628C235.669 327.628 217.238 329.997 217.238 332.92C217.238 335.843 235.669 338.212 258.405 338.212Z" fill="#1F1F1F"/>
<path opacity="0.3" d="M67.557 330.813C67.557 332.57 56.476 333.991 42.812 333.991C29.148 333.991 18.067 332.591 18.067 330.813C18.067 329.035 29.148 327.635 42.812 327.635C56.476 327.635 67.557 329.056 67.557 330.813Z" fill="#1F1F1F"/>
<path d="M68.229 235.403C68.2398 235.39 68.2458 235.374 68.2458 235.357C68.2458 235.341 68.2398 235.325 68.229 235.312C68.2112 235.304 68.1913 235.304 68.1732 235.31C68.155 235.317 68.14 235.33 68.131 235.347C65.964 240.507 64.2472 245.844 63 251.3C61.7554 256.749 60.8206 262.265 60.2 267.82L59.801 272.02C59.738 272.72 59.668 273.42 59.612 274.12L59.5 276.22C59.444 277.62 59.353 279.02 59.318 280.42V284.62L59.367 286.72C59.367 287.42 59.444 288.12 59.493 288.82C59.598 290.22 59.682 291.62 59.815 293.02C60.081 295.82 60.515 298.571 60.928 301.329C60.9329 301.345 60.9427 301.358 60.9559 301.368C60.9691 301.378 60.9851 301.383 61.0015 301.383C61.0179 301.383 61.0339 301.378 61.0471 301.368C61.0603 301.358 61.0701 301.345 61.075 301.329C61.075 299.929 61.005 298.529 60.977 297.129C60.949 295.729 60.816 294.329 60.837 292.964C60.858 291.599 60.837 290.164 60.788 288.799L60.753 286.699L60.788 284.599V280.441L60.9 276.29L60.942 274.19C60.942 273.49 61.019 272.79 61.061 272.09L61.313 267.932C61.7999 262.392 62.5968 256.884 63.7 251.433C64.7456 245.969 66.2609 240.606 68.229 235.403Z" fill="#263238"/>
<path d="M68.824 257.145C68.8274 257.136 68.8289 257.127 68.8286 257.118C68.8283 257.108 68.8261 257.099 68.8222 257.091C68.8183 257.082 68.8127 257.074 68.8058 257.068C68.7989 257.062 68.7908 257.057 68.782 257.054C68.7724 257.051 68.7622 257.049 68.752 257.05C68.7418 257.051 68.7319 257.053 68.7228 257.058C68.7137 257.062 68.7056 257.069 68.6989 257.077C68.6922 257.084 68.6872 257.093 68.684 257.103C66.3045 264.038 64.7262 271.222 63.98 278.516C63.609 282.156 63.203 285.796 63.154 289.457C63.0619 293.118 63.1905 296.781 63.539 300.426C63.5427 300.443 63.5513 300.459 63.5637 300.471C63.5761 300.484 63.5919 300.492 63.609 300.496C63.6283 300.496 63.6469 300.489 63.6611 300.476C63.6754 300.463 63.6843 300.445 63.686 300.426C64.113 296.786 64.386 293.153 64.617 289.52C64.848 285.887 64.911 282.247 65.149 278.614C65.3777 274.99 65.8101 271.381 66.444 267.806C67.0419 264.211 67.8364 260.652 68.824 257.145Z" fill="#263238"/>
<path d="M80.878 264.796C80.8649 264.783 80.8473 264.776 80.829 264.776C80.8107 264.776 80.7931 264.783 80.78 264.796C77.7654 266.724 75.0487 269.082 72.716 271.796C71.5453 273.166 70.4916 274.632 69.566 276.178L68.922 277.396L68.411 278.67C68.2386 279.104 68.0913 279.548 67.97 280C67.837 280.434 67.697 280.861 67.578 281.302C66.6541 284.767 66.0958 288.319 65.912 291.9C65.73 295.475 65.8635 299.059 66.311 302.61C66.3137 302.626 66.3212 302.64 66.3325 302.651C66.3438 302.663 66.3583 302.67 66.374 302.673C66.3941 302.673 66.4136 302.666 66.429 302.653C66.4444 302.641 66.4547 302.623 66.458 302.603L67.375 291.998C67.625 288.492 68.0737 285.002 68.719 281.547C68.81 281.12 68.936 280.707 69.041 280.28C69.1416 279.857 69.2678 279.441 69.419 279.034L69.846 277.809L70.399 276.647C71.2403 275.12 72.2073 273.666 73.29 272.3C75.438 269.488 77.9876 267.007 80.857 264.936C80.8716 264.932 80.8848 264.924 80.8948 264.913C80.9049 264.902 80.9115 264.888 80.9137 264.873C80.9159 264.858 80.9137 264.843 80.9074 264.829C80.9011 264.815 80.8908 264.804 80.878 264.796Z" fill="#263238"/>
<path d="M75.047 278.418C73.4893 279.556 72.2366 281.061 71.4 282.8C70.4983 284.521 69.7939 286.339 69.3 288.218C69.1566 288.678 69.0375 289.145 68.943 289.618L68.607 291.018C68.4321 291.964 68.3129 292.92 68.25 293.881C68.25 294.84 68.208 295.806 68.25 296.758C68.3199 297.719 68.4461 298.675 68.628 299.621C68.6309 299.635 68.6377 299.649 68.6475 299.66C68.6573 299.671 68.6699 299.679 68.684 299.684C68.6941 299.686 68.7045 299.686 68.7147 299.684C68.7248 299.682 68.7344 299.678 68.7428 299.672C68.7513 299.666 68.7586 299.658 68.7641 299.65C68.7696 299.641 68.7733 299.631 68.775 299.621C68.9954 298.698 69.1637 297.763 69.279 296.821C69.433 295.89 69.573 294.959 69.685 294.021C69.797 293.083 69.944 292.18 70.014 291.221C70.084 290.262 70.217 289.359 70.413 288.456C70.7357 286.62 71.264 284.826 71.988 283.108C72.6329 281.351 73.689 279.774 75.068 278.509C75.0794 278.495 75.0856 278.478 75.0856 278.46C75.0856 278.442 75.0794 278.425 75.068 278.411C75.0607 278.412 75.0536 278.414 75.047 278.418Z" fill="#263238"/>
<path d="M58.142 289.037C57.743 284.333 56.966 279.671 56.231 275.037C55.496 270.403 54.684 265.713 53.837 261.1C52.99 256.487 52.031 251.846 51.037 247.247C51.0363 247.237 51.0334 247.227 51.0286 247.219C51.0238 247.21 51.0172 247.202 51.0093 247.196C51.0013 247.191 50.9922 247.186 50.9825 247.184C50.9728 247.182 50.9628 247.182 50.953 247.184C50.9337 247.189 50.9171 247.201 50.9067 247.218C50.8962 247.235 50.8928 247.255 50.897 247.275C51.702 251.909 52.43 256.564 53.116 261.219C53.802 265.874 54.516 270.536 55.076 275.219C55.636 279.902 56.098 284.571 56.686 289.219L58.408 303.219C58.4108 303.237 58.419 303.253 58.4316 303.265C58.4442 303.278 58.4605 303.286 58.478 303.289C58.4973 303.289 58.5159 303.282 58.5302 303.269C58.5444 303.256 58.5533 303.238 58.555 303.219C58.604 302.036 58.611 300.853 58.639 299.67C58.667 298.487 58.59 297.311 58.569 296.128C58.52 293.741 58.317 291.389 58.142 289.037Z" fill="#263238"/>
<path d="M55.3 288.967C55.055 287.105 54.712 285.25 54.355 283.402L53.655 280.658C53.438 279.741 53.235 278.824 52.955 277.921C52.0164 274.271 50.8139 270.694 49.357 267.218L48.79 265.923L48.167 264.656C47.768 263.802 47.285 262.99 46.823 262.164C45.9023 260.516 44.76 259.001 43.428 257.663C43.4149 257.65 43.3973 257.643 43.379 257.643C43.3607 257.643 43.3431 257.65 43.33 257.663C43.3167 257.677 43.3093 257.696 43.3093 257.715C43.3093 257.735 43.3167 257.754 43.33 257.768C44.566 259.157 45.609 260.706 46.431 262.374C46.844 263.207 47.278 264.033 47.628 264.894L48.181 266.175L48.671 267.484C49.9711 270.972 51.0191 274.549 51.807 278.187C52.234 280 52.507 281.848 52.871 283.675L53.312 286.433C53.466 287.35 53.662 288.26 53.795 289.184C54.089 291.018 54.425 292.859 54.747 294.7C55.069 296.541 55.37 298.389 55.762 300.23C55.7651 300.247 55.7736 300.262 55.7862 300.273C55.7989 300.285 55.815 300.292 55.832 300.293C55.8519 300.291 55.8706 300.283 55.8847 300.269C55.8988 300.255 55.9074 300.236 55.909 300.216C55.909 298.34 55.867 296.457 55.776 294.581C55.685 292.705 55.51 290.843 55.3 288.967Z" fill="#263238"/>
<path d="M51.422 289.205C50.554 286.741 49.539 284.305 48.44 281.953C47.3297 279.596 46.0791 277.307 44.695 275.1C44.6812 275.088 44.6639 275.082 44.646 275.082C44.6282 275.082 44.6108 275.088 44.597 275.1C44.5842 275.113 44.577 275.131 44.577 275.149C44.577 275.167 44.5842 275.185 44.597 275.198C45.8053 277.495 46.8736 279.863 47.796 282.289C48.748 284.69 49.609 287.133 50.337 289.618C51.065 292.103 51.597 294.623 52.255 297.115C52.913 299.607 53.508 302.113 54.278 304.633C54.2824 304.648 54.2915 304.662 54.304 304.672C54.3166 304.682 54.332 304.688 54.348 304.689C54.3578 304.689 54.3676 304.687 54.3765 304.683C54.3855 304.679 54.3936 304.673 54.4002 304.666C54.4068 304.659 54.4118 304.65 54.4149 304.641C54.4179 304.632 54.419 304.622 54.418 304.612C54.462 301.986 54.2273 299.362 53.718 296.786C53.1593 294.201 52.3915 291.665 51.422 289.205Z" fill="#263238"/>
<path d="M51.261 297.437C50.773 295.895 50.0657 294.431 49.161 293.09C48.3458 291.715 47.35 290.455 46.2 289.345C45.6046 288.806 44.9627 288.322 44.282 287.896C43.6118 287.456 42.8774 287.123 42.105 286.909C42.0884 286.907 42.0716 286.91 42.0566 286.917C42.0417 286.925 42.0293 286.936 42.021 286.951C42.0165 286.96 42.014 286.97 42.0138 286.98C42.0135 286.99 42.0154 287 42.0194 287.01C42.0234 287.019 42.0294 287.027 42.0369 287.034C42.0444 287.041 42.0533 287.046 42.063 287.049C43.451 287.714 44.6803 288.669 45.668 289.849C46.6735 291.001 47.5209 292.281 48.188 293.657C48.888 295.008 49.266 296.506 49.889 297.899C50.162 298.599 50.435 299.299 50.75 300.041C51.0187 300.787 51.3368 301.514 51.702 302.218C51.7074 302.23 51.7162 302.241 51.7274 302.248C51.7385 302.256 51.7516 302.26 51.765 302.26C51.7748 302.261 51.7847 302.26 51.794 302.257C51.8033 302.254 51.8119 302.249 51.8191 302.242C51.8264 302.235 51.8322 302.227 51.8361 302.218C51.8401 302.209 51.8421 302.2 51.842 302.19C51.8678 301.386 51.8374 300.581 51.751 299.782C51.618 298.998 51.45 298.2 51.261 297.437Z" fill="#263238"/>
<path d="M51.555 253.96C49.2037 253.304 47.0765 252.017 45.4036 250.239C43.7306 248.461 42.5754 246.26 42.063 243.873C40.278 235.571 46.018 239.127 40.873 226.079C35.728 213.031 36.918 210.063 38.696 206.304C40.474 202.545 41.496 203.735 43.05 208.677C44.604 213.619 50.4 221.333 52.542 235.767C54.684 250.201 51.555 253.96 51.555 253.96Z" fill="#D2832D"/>
<path d="M66.78 239.918C66.78 239.918 61.635 238.14 61.439 228.452C61.243 218.764 65.198 220.752 65.786 208.677C66.374 196.602 67.186 188.111 69.349 187.915C71.512 187.719 77.259 193.844 79.233 207.291C81.207 220.738 76.664 229.635 72.709 233.59C68.754 237.545 66.78 239.918 66.78 239.918Z" fill="#D2832D"/>
<path d="M48.783 265.629C48.783 265.629 47.6 258.51 45.227 255.129C42.854 251.748 37.709 248.829 34.349 242.27C30.989 235.711 27.23 232.582 27.426 241.878C27.622 251.174 31.78 255.92 36.918 259.084C42.056 262.248 48.783 265.629 48.783 265.629Z" fill="#D2832D"/>
<path d="M46.606 277.9C46.606 277.9 41.86 268.8 34.944 262.08C28.028 255.36 22.484 252 24.444 255.36C26.404 258.72 28.791 258.524 32.144 264.46C35.497 270.396 34.517 274.743 39.263 278.103C44.009 281.463 46.606 277.9 46.606 277.9Z" fill="#D2832D"/>
<path d="M46.018 289.555C45.815 288.96 45.619 284.613 38.899 281.05C32.179 277.487 25.844 278.873 26.635 280.658C27.426 282.443 31.577 285.404 35.735 287.182C39.893 288.96 46.018 289.555 46.018 289.555Z" fill="#D2832D"/>
<path d="M66.381 266C66.381 266 63.42 262.241 64.981 254.338C66.542 246.435 70.126 248.402 74.081 244.251C78.036 240.1 77.245 239.505 81.2 235.151C85.155 230.797 88.711 228.431 90.3 230.209C91.889 231.987 89.509 237.524 87.136 240.709C84.763 243.894 81.011 245.455 79.226 249.41C77.441 253.365 78.239 259.693 73.689 262.661C69.139 265.629 66.381 266 66.381 266Z" fill="#D2832D"/>
<path d="M76.3 268.198C76.3 268.198 83.419 260.092 88.557 254.156C93.695 248.22 95.676 243.656 95.872 247.632C96.068 251.608 97.657 254.751 93.499 259.896C89.341 265.041 76.3 268.198 76.3 268.198Z" fill="#D2832D"/>
<path d="M72.513 281.246C72.513 281.246 72.317 278.082 83.587 270.746C94.857 263.41 99.603 262.045 98.42 265.013C97.237 267.981 92.288 270.942 86.947 276.283C81.606 281.624 72.513 281.246 72.513 281.246Z" fill="#D2832D"/>
<path d="M52.024 253.12C52.024 253.12 49.378 238.931 46.606 228.844C43.834 218.757 42.063 212.632 42.063 212.632" stroke="#263238" stroke-linecap="round" stroke-linejoin="round"/>
<path d="M66.325 240.1C66.325 240.1 71.127 224.7 72.709 215.432C74.291 206.164 72.513 199.213 71.722 195.062" stroke="#263238" stroke-linecap="round" stroke-linejoin="round"/>
<path d="M48.16 265.3C46.0305 261.639 43.5927 258.166 40.873 254.919C36.526 249.781 33.173 247.009 31.185 242.067" stroke="#263238" stroke-linecap="round" stroke-linejoin="round"/>
<path d="M66.381 266C66.381 266 67.963 256.508 71.722 251.566C75.481 246.624 82.992 238.91 85.96 233.968" stroke="#263238" stroke-linecap="round" stroke-linejoin="round"/>
<path d="M45.549 289.338C45.549 289.338 38.899 285.005 34.153 282.632" stroke="#263238" stroke-linecap="round" stroke-linejoin="round"/>
<path d="M64.904 331.275H56.196C55.447 331.27 54.716 331.045 54.0937 330.628C53.4715 330.211 52.9854 329.621 52.696 328.93C49.854 322.119 42.259 302.449 46.837 296.87C51.191 291.557 69.937 291.557 74.319 296.87C78.897 302.47 71.302 322.119 68.453 328.93C68.1619 329.63 67.6687 330.226 67.0364 330.644C66.4042 331.062 65.6617 331.282 64.904 331.275Z" fill="#263238" stroke="#263238" stroke-linecap="round" stroke-linejoin="round"/>
<path d="M122.374 276.71L147.287 271.131" stroke="#263238" stroke-miterlimit="10"/>
<path d="M116.469 275.457L111.093 276.66L112.296 282.036L117.672 280.833L116.469 275.457Z" stroke="#263238" stroke-miterlimit="10"/>
<path d="M124.341 285.502L149.254 279.93" stroke="#263238" stroke-miterlimit="10"/>
<path d="M118.441 284.256L113.066 285.459L114.269 290.835L119.645 289.632L118.441 284.256Z" stroke="#263238" stroke-miterlimit="10"/>
<path d="M126.308 294.301L151.221 288.722" stroke="#263238" stroke-miterlimit="10"/>
<path d="M120.406 293.05L115.03 294.253L116.234 299.629L121.609 298.426L120.406 293.05Z" stroke="#263238" stroke-miterlimit="10"/>
<path d="M128.275 303.093L153.195 297.514" stroke="#263238" stroke-miterlimit="10"/>
<path d="M122.377 301.837L117.001 303.04L118.205 308.416L123.581 307.212L122.377 301.837Z" stroke="#263238" stroke-miterlimit="10"/>
<path d="M130.242 311.885L155.162 306.313" stroke="#263238" stroke-miterlimit="10"/>
<path d="M124.343 310.637L118.967 311.841L120.171 317.217L125.547 316.013L124.343 310.637Z" stroke="#263238" stroke-miterlimit="10"/>
<path d="M98.245 230.636L92.645 203.294L98.532 201.978L105.7 218.4L105.448 200.41L111.132 199.143L117.698 226.268L113.666 227.171L109.095 208.81L109.76 228.046L106.302 228.823L98.504 211.043L102.298 229.719L98.245 230.636Z" fill="#263238"/>
<path d="M121.408 225.449L115.318 198.212L127.183 195.559L128.044 199.388L121.744 200.788L123.361 208.019L128.261 206.927L129.129 210.798L124.229 211.89L126.147 220.43L132.531 218.995L133.378 222.761L121.408 225.449Z" fill="#263238"/>
<path d="M143.185 220.997C141.662 221.425 140.043 221.361 138.558 220.815C137.263 220.241 136.193 219.257 135.513 218.015C134.671 216.516 134.064 214.896 133.714 213.213L131.677 204.113C131.262 202.413 131.12 200.657 131.257 198.912C131.373 197.477 131.987 196.127 132.993 195.097C134.263 193.941 135.837 193.171 137.529 192.878C139.112 192.443 140.78 192.423 142.373 192.822C143.612 193.192 144.688 193.972 145.425 195.034C146.25 196.266 146.826 197.647 147.119 199.101L147.469 200.683L142.058 201.894L141.624 199.976C141.492 199.338 141.304 198.713 141.064 198.107C140.895 197.633 140.576 197.227 140.154 196.952C139.634 196.7 139.038 196.658 138.488 196.833C138.188 196.872 137.9 196.976 137.644 197.136C137.388 197.297 137.17 197.511 137.004 197.764C136.745 198.259 136.636 198.818 136.689 199.374C136.737 200.022 136.835 200.666 136.983 201.299L139.685 213.374C139.828 214.064 140.049 214.736 140.343 215.376C140.563 215.892 140.937 216.327 141.414 216.622C141.947 216.883 142.559 216.936 143.129 216.769C143.725 216.675 144.261 216.351 144.62 215.866C144.934 215.378 145.095 214.808 145.082 214.228C145.08 213.504 144.996 212.783 144.83 212.079L144.186 209.188L141.526 209.783L140.777 206.423L148.442 204.701L151.571 218.701L147.938 219.513L147.056 217.133C146.891 218.024 146.492 218.855 145.901 219.541C145.178 220.308 144.224 220.819 143.185 220.997Z" fill="#263238"/>
<path d="M154 218.148L153.181 189.735L159.334 188.335L170.674 214.396L165.557 215.6L163.24 209.839L158.942 210.798L159.236 217.014L154 218.148ZM158.655 207.256L161.917 206.556L157.808 195.93L158.655 207.256Z" fill="#263238"/>
<path d="M112.854 259.952C111.199 260.41 109.448 260.386 107.807 259.882C106.477 259.399 105.355 258.472 104.629 257.257C103.802 255.845 103.218 254.305 102.9 252.7L100.709 242.9C100.307 241.259 100.177 239.564 100.324 237.881C100.466 236.48 101.093 235.173 102.095 234.185C103.377 233.049 104.95 232.292 106.638 232.001C108.21 231.567 109.867 231.55 111.447 231.952C112.667 232.327 113.717 233.117 114.415 234.185C115.197 235.398 115.745 236.747 116.032 238.161L116.543 240.45L111.167 241.654L110.593 239.099C110.463 238.508 110.297 237.926 110.096 237.356C109.941 236.873 109.643 236.449 109.242 236.138C108.991 235.99 108.711 235.898 108.421 235.867C108.131 235.837 107.838 235.87 107.562 235.963C107.264 236.003 106.977 236.104 106.719 236.259C106.462 236.414 106.239 236.621 106.064 236.866C105.803 237.332 105.69 237.867 105.742 238.399C105.786 239.05 105.882 239.696 106.029 240.331L108.829 252.707C108.968 253.381 109.18 254.038 109.459 254.667C109.66 255.148 110.011 255.551 110.46 255.815C110.96 256.049 111.527 256.091 112.056 255.934C112.337 255.899 112.608 255.803 112.849 255.655C113.091 255.507 113.298 255.308 113.456 255.073C113.693 254.602 113.783 254.07 113.715 253.547C113.661 252.916 113.562 252.289 113.421 251.671L112.826 249.018L118.202 247.814L118.713 250.068C119.056 251.497 119.146 252.976 118.979 254.436C118.821 255.728 118.232 256.929 117.306 257.845C116.054 258.958 114.509 259.689 112.854 259.952Z" fill="#263238"/>
<path d="M131.481 255.78C129.854 256.237 128.132 256.237 126.504 255.78C125.184 255.332 124.057 254.445 123.312 253.267C122.429 251.849 121.808 250.284 121.478 248.647L119.21 238.49C118.804 236.876 118.698 235.201 118.895 233.548C119.073 232.176 119.718 230.908 120.722 229.957C122.064 228.937 123.612 228.221 125.258 227.859C126.904 227.496 128.61 227.495 130.256 227.857C131.575 228.284 132.705 229.155 133.455 230.321C134.338 231.725 134.957 233.279 135.282 234.906L137.55 245.063C137.956 246.682 138.063 248.362 137.865 250.019C137.692 251.406 137.047 252.692 136.038 253.659C134.742 254.769 133.165 255.503 131.481 255.78ZM130.592 251.783C131.172 251.702 131.698 251.402 132.062 250.943C132.331 250.504 132.462 249.994 132.44 249.48C132.422 248.872 132.344 248.267 132.209 247.674L129.332 234.801C129.213 234.217 129.034 233.647 128.8 233.1C128.602 232.63 128.265 232.231 127.834 231.959C127.311 231.696 126.705 231.648 126.147 231.826C125.59 231.908 125.088 232.204 124.747 232.652C124.476 233.083 124.344 233.586 124.369 234.094C124.378 234.695 124.454 235.294 124.593 235.879L127.47 248.759C127.598 249.351 127.781 249.93 128.016 250.488C128.202 250.968 128.535 251.378 128.968 251.657C129.474 251.901 130.054 251.946 130.592 251.783Z" fill="#263238"/>
<path d="M143.066 252.798L137.466 225.463L143.346 224.147L150.556 240.576L150.304 222.586L155.988 221.312L162.554 248.444L158.522 249.347L153.93 231L154.63 250.236L151.13 251.006L143.339 233.226L147.126 251.902L143.066 252.798Z" fill="#263238"/>
<path d="M166.236 247.618L160.139 220.381L167.034 218.841C168.137 218.585 169.262 218.438 170.394 218.4C171.387 218.369 172.376 218.533 173.306 218.883C174.21 219.234 174.994 219.837 175.567 220.619C176.271 221.643 176.748 222.805 176.967 224.028C177.21 224.979 177.264 225.968 177.128 226.94C177.009 227.711 176.685 228.437 176.19 229.04C175.663 229.656 174.996 230.137 174.244 230.44C175.236 230.347 176.234 230.513 177.142 230.923C177.999 231.337 178.725 231.979 179.242 232.778C179.866 233.76 180.303 234.85 180.53 235.991C180.823 237.193 180.916 238.434 180.803 239.666C180.704 240.663 180.371 241.622 179.83 242.466C179.273 243.295 178.533 243.984 177.667 244.482C176.635 245.075 175.515 245.5 174.349 245.742L166.236 247.618ZM168.147 230.118L169.547 229.81C170.312 229.687 171.034 229.374 171.647 228.9C172.076 228.511 172.339 227.972 172.382 227.395C172.439 226.669 172.377 225.938 172.2 225.232C172.077 224.532 171.778 223.874 171.332 223.321C170.937 222.881 170.399 222.596 169.813 222.516C169.061 222.425 168.299 222.475 167.566 222.663L166.558 222.894L168.147 230.118ZM170.912 242.459L172.459 242.116C173.859 241.803 174.739 241.241 175.098 240.429C175.48 239.366 175.512 238.208 175.189 237.125C175.021 236.246 174.701 235.402 174.244 234.633C173.895 234.082 173.358 233.676 172.732 233.492C171.973 233.311 171.182 233.323 170.429 233.527L168.98 233.849L170.912 242.459Z" fill="#263238"/>
<path d="M193.2 241.962C191.573 242.423 189.85 242.423 188.223 241.962C186.902 241.512 185.774 240.626 185.024 239.449C184.146 238.029 183.528 236.465 183.197 234.829L180.922 224.672C180.522 223.057 180.417 221.382 180.614 219.73C180.792 218.358 181.437 217.09 182.441 216.139C183.783 215.119 185.331 214.403 186.977 214.041C188.623 213.678 190.329 213.677 191.975 214.039C193.294 214.466 194.424 215.337 195.174 216.503C196.057 217.906 196.674 219.461 196.994 221.088L199.269 231.245C199.672 232.865 199.778 234.543 199.584 236.201C199.408 237.591 198.76 238.878 197.75 239.848C196.454 240.953 194.881 241.684 193.2 241.962ZM192.318 238C192.899 237.923 193.427 237.621 193.788 237.16C194.063 236.723 194.197 236.212 194.173 235.697C194.155 235.089 194.077 234.484 193.942 233.891L191.058 221.018C190.934 220.428 190.746 219.853 190.498 219.303C190.303 218.833 189.968 218.435 189.539 218.162C189.016 217.899 188.41 217.851 187.852 218.029C187.295 218.111 186.793 218.408 186.452 218.855C186.179 219.285 186.045 219.788 186.067 220.297C186.083 220.898 186.158 221.496 186.291 222.082L189.175 234.962C189.303 235.554 189.486 236.133 189.721 236.691C189.905 237.173 190.238 237.583 190.673 237.86C191.183 238.116 191.772 238.166 192.318 238Z" fill="#263238"/>
<path d="M203.707 136.409L201.446 142.583L207.711 140.595L204.127 146.111L210.686 145.572L205.961 150.15L212.471 151.088L206.85 154.504L212.989 156.863L206.752 158.935L212.212 162.603L205.667 163.24L210.175 168.028L203.651 167.195L206.976 172.865L200.802 170.597L202.783 176.869L197.274 173.285L197.806 179.837L193.228 175.119L192.297 181.629L188.881 176.008L186.522 182.147L184.443 175.903L180.782 181.363L180.145 174.818L175.35 179.326L176.19 172.802L170.52 176.134L172.781 169.96L166.516 171.941L170.1 166.425L163.541 166.964L168.266 162.386L161.756 161.448L167.377 158.039L161.238 155.68L167.475 153.601L162.015 149.933L168.56 149.296L164.059 144.508L170.576 145.341L167.251 139.671L173.425 141.939L171.444 135.667L176.953 139.251L176.421 132.699L180.999 137.417L181.93 130.907L185.346 136.528L187.705 130.389L189.784 136.633L193.452 131.173L194.082 137.718L198.877 133.21L198.037 139.734L203.707 136.409Z" fill="#263238" stroke="#263238" stroke-linecap="round" stroke-linejoin="round"/>
<path d="M168.077 165.9L167.3 148.351L174.706 148.029L174.811 150.451L170.975 150.619L171.185 155.365L174.433 155.218L174.545 157.71L171.297 157.85L171.64 165.732L168.077 165.9Z" fill="#D2832D"/>
<path d="M177.191 165.494L176.4 147.952L180.95 147.749C181.978 147.686 183.009 147.778 184.009 148.022C184.815 148.214 185.527 148.685 186.018 149.352C186.558 150.185 186.838 151.16 186.823 152.152C186.861 152.795 186.828 153.441 186.725 154.077C186.639 154.606 186.438 155.11 186.137 155.554C185.812 156.006 185.376 156.365 184.87 156.597L187.67 165.046L184.016 165.207L181.65 157.346L180.397 157.402L180.747 165.347L177.191 165.494ZM180.32 155.267L181.363 155.218C181.835 155.223 182.301 155.104 182.714 154.875C183.051 154.681 183.302 154.366 183.414 153.993C183.538 153.537 183.588 153.065 183.561 152.593C183.567 151.944 183.385 151.307 183.036 150.759C182.823 150.534 182.557 150.364 182.263 150.265C181.969 150.167 181.655 150.141 181.349 150.192L180.138 150.248L180.32 155.267Z" fill="#D2832D"/>
<path d="M189.749 164.941L189 147.399L196.644 147.063L196.756 149.534L192.682 149.709L192.885 154.364L196.028 154.231L196.133 156.716L192.997 156.856L193.235 162.358L197.351 162.176L197.456 164.598L189.749 164.941Z" fill="#D2832D"/>
<path d="M199.234 164.5L198.464 147L206.108 146.664L206.213 149.128L202.146 149.31L202.349 153.965L205.492 153.825L205.597 156.317L202.461 156.457L202.699 161.952L206.815 161.777L206.92 164.199L199.234 164.5Z" fill="#D2832D"/>
<path d="M166.059 139.784C170.435 137.32 170.478 129.099 166.156 121.422C161.833 113.744 154.782 109.518 150.406 111.981C146.03 114.445 145.986 122.666 150.309 130.344C154.631 138.021 161.683 142.248 166.059 139.784Z" fill="white" stroke="#263238" stroke-miterlimit="10"/>
<path d="M181.291 137.894C188.724 134.368 190.404 122.35 185.044 111.05C179.683 99.7509 169.312 93.4494 161.879 96.9756C154.446 100.502 152.766 112.52 158.127 123.82C163.487 135.119 173.859 141.421 181.291 137.894Z" fill="#263238" stroke="#263238" stroke-linecap="round" stroke-linejoin="round"/>
<path d="M178.157 112.889C180.873 118.608 180.551 124.439 177.457 125.916C174.363 127.393 169.624 123.949 166.908 118.216C164.192 112.483 164.521 106.666 167.608 105.196C170.695 103.726 175.448 107.17 178.157 112.889Z" fill="#545454" stroke="#263238" stroke-linecap="round" stroke-linejoin="round"/>
<path d="M158.123 123.823C153.076 113.183 154.273 101.913 160.629 97.6849C160.272 97.8459 155.071 101.885 154.574 102.361C152.732 104.212 151.434 106.535 150.822 109.074C149.331 115.15 150.738 121.786 153.377 127.344C158.732 138.642 169.106 144.949 176.54 141.421C177.046 141.178 177.531 140.892 177.989 140.567L178.178 140.651L181.3 137.9C173.852 141.4 163.485 135.1 158.123 123.823Z" fill="white" stroke="#263238" stroke-miterlimit="10"/>
<path d="M217.371 123.325C223.78 111.245 222.663 98.1044 214.877 93.973C207.091 89.8417 195.583 96.2845 189.174 108.364C182.765 120.443 183.882 133.584 191.668 137.715C199.454 141.846 210.962 135.404 217.371 123.325Z" fill="white" stroke="#263238" stroke-miterlimit="10"/>
<path d="M189.161 108.353C195.223 96.936 205.842 90.559 213.563 93.387L205.1 89.649C197.316 85.519 186.032 91.532 179.9 103.075C173.768 114.618 175.126 127.33 182.91 131.467L189.462 136.136C183.729 130.858 183.4 119.182 189.161 108.353Z" fill="#263238" stroke="#263238" stroke-linecap="round" stroke-linejoin="round"/>
<path d="M223.3 78.099C222.691 67.256 219.289 56.14 214.956 51.156C210.623 46.172 201.201 42.756 196.791 41.881C192.381 41.006 185.829 39.851 178.143 45.885C170.457 51.919 165.466 58.898 159.166 75.481C154.91 86.681 153.286 98.364 152.67 104.769C153.224 103.9 153.87 103.093 154.595 102.361C155.092 101.857 160.293 97.846 160.65 97.685C161.05 97.4259 161.466 97.1921 161.896 96.985C163.6 96.1935 165.486 95.8721 167.356 96.054C169.533 84.644 173.74 70.084 179.375 61.873C185.108 53.536 192.248 49.973 196.07 49.609C201.082 49.126 202.748 51.163 204.582 53.347C205.982 55.006 209.762 61.537 208.985 75.152C208.669 81.8598 207.097 88.4487 204.351 94.577C203.084 97.4265 201.329 100.032 199.164 102.277C194.159 107.464 190.302 112.994 189.707 120.421C189.238 126.273 191.107 132.867 196.644 135.786C204.155 139.776 214.592 134.82 219.947 124.726C223.629 117.782 223.615 109.592 223.027 101.955C222.698 98 223.888 88.935 223.3 78.099Z" fill="white" stroke="#263238" stroke-miterlimit="10"/>
<path d="M219.926 124.74C223.608 117.796 223.594 109.606 223.006 101.969C222.698 98.007 223.888 88.935 223.279 78.099C222.67 67.263 219.268 56.14 214.935 51.156C210.602 46.172 201.18 42.756 196.77 41.881C195.832 41.699 194.803 41.503 193.69 41.363C204.302 46.48 207.2 55.587 207.2 55.587C208.831 58.716 210.882 64.974 210.294 75.355C209.972 82.0598 208.4 88.6454 205.66 94.773C204.393 97.6222 202.637 100.228 200.473 102.473C195.461 107.66 191.604 113.19 191.016 120.624C190.547 126.469 192.416 133.07 197.953 136.024C198.921 136.534 199.955 136.907 201.026 137.13C207.816 137.781 215.558 133 219.926 124.74Z" fill="#4267B2" stroke="#263238" stroke-linecap="round" stroke-linejoin="round"/>
<path d="M218.479 124.693C222.632 116.865 221.389 108.074 215.703 105.057C210.017 102.041 202.041 105.94 197.888 113.767C193.735 121.595 194.978 130.386 200.664 133.403C206.35 136.42 214.326 132.52 218.479 124.693Z" fill="white" stroke="#263238" stroke-miterlimit="10"/>
<path d="M85.862 43.2109L40.551 66.5559C39.0924 67.3103 37.9925 68.6124 37.4925 70.1766C36.9925 71.7408 37.1333 73.4394 37.884 74.8999L94.5 184.8C94.8721 185.531 95.3856 186.18 96.0107 186.711C96.6357 187.242 97.36 187.643 98.1413 187.892C98.9227 188.141 99.7457 188.232 100.563 188.16C101.379 188.088 102.174 187.855 102.9 187.474L148.211 164.129C148.935 163.756 149.578 163.244 150.104 162.623C150.63 162.001 151.028 161.282 151.276 160.506C151.523 159.731 151.616 158.914 151.547 158.103C151.479 157.291 151.252 156.501 150.878 155.778L94.248 45.8779C93.8745 45.1503 93.3608 44.5037 92.7365 43.9753C92.1121 43.447 91.3894 43.0474 90.61 42.7995C89.8305 42.5516 89.0097 42.4604 88.1949 42.531C87.38 42.6016 86.5872 42.8327 85.862 43.2109ZM147.042 154.413C147.794 155.875 147.935 157.576 147.434 159.142C146.933 160.708 145.83 162.011 144.368 162.764L103.964 183.582C103.241 183.956 102.451 184.183 101.639 184.251C100.828 184.32 100.011 184.227 99.2357 183.98C98.4601 183.732 97.7409 183.334 97.1193 182.808C96.4977 182.282 95.9858 181.639 95.613 180.915L41.685 76.2999C41.3048 75.5737 41.0724 74.7793 41.0011 73.9626C40.9298 73.146 41.0212 72.3233 41.2698 71.5421C41.5185 70.761 41.9195 70.0369 42.4498 69.4118C42.98 68.7866 43.6289 68.2727 44.359 67.8999L51.877 64.0499L53.466 65.9819C53.9296 66.5474 54.5732 66.9365 55.2893 67.0843C56.0053 67.2321 56.7505 67.1296 57.4 66.7939L77.511 56.4269C78.1539 56.0878 78.6618 55.5394 78.9508 54.8725C79.2397 54.2055 79.2924 53.4599 79.1 52.7589L78.449 50.3439L84.749 47.0959C86.2111 46.3435 87.9121 46.2026 89.4781 46.704C91.0441 47.2055 92.3469 48.3082 93.1 49.7699L147.042 154.413Z" fill="#878787" stroke="#263238" stroke-miterlimit="10"/>
<path d="M88.4397 43.011L44.5147 65.6436C41.4045 67.2461 40.1823 71.0664 41.7849 74.1766L96.9476 181.236C98.5501 184.346 102.37 185.568 105.481 183.966L149.406 161.333C152.516 159.73 153.738 155.91 152.135 152.8L96.9727 45.7408C95.3702 42.6306 91.5499 41.4084 88.4397 43.011Z" fill="white" stroke="#263238" stroke-miterlimit="10"/>
<path d="M67.62 53.725L50.498 62.552C48.6619 67.8238 46.3883 72.9329 43.701 77.826C43.799 78.036 43.883 78.246 43.988 78.456L52.5 94.948C54.838 90.349 57.323 85.029 59.885 78.848C64.526 67.69 66.703 59.542 67.62 53.725Z" stroke="#263238" stroke-linecap="round" stroke-linejoin="round"/>
<path d="M107.695 66.549C111.244 81.746 113.771 103.691 107.695 126.623C102.291 147 100.695 166.985 100.506 182.168C101.991 182.768 103.587 183.041 105.187 182.967C106.786 182.893 108.351 182.475 109.774 181.741L123.361 174.741C121.891 165.977 121.681 154.343 124.313 139.097C126.17 128.24 127.462 117.293 128.184 106.302L107.695 66.549Z" stroke="#263238" stroke-linecap="round" stroke-linejoin="round"/>
<path d="M93.653 104.489C99.253 75.642 94.955 55.321 90.916 44.107C88.5972 43.748 86.2243 44.1353 84.14 45.213L79.24 47.74C80.5 55.048 81.438 66.556 80.332 83.769C79.373 98.679 75.089 115.367 70.427 129.745L83.93 155.939C86.639 141.197 90.006 123.235 93.653 104.489Z" stroke="#263238" stroke-linecap="round" stroke-linejoin="round"/>
<path d="M88.291 41.958L42.98 65.303C41.5195 66.0574 40.4183 67.3607 39.9182 68.9265C39.4181 70.4924 39.5601 72.1928 40.313 73.654L96.943 183.554C97.6997 185.012 99.0045 186.11 100.571 186.606C102.137 187.102 103.836 186.956 105.294 186.2L150.605 162.855C152.065 162.106 153.168 160.808 153.673 159.247C154.178 157.685 154.044 155.988 153.3 154.525L96.663 44.625C96.2902 43.8985 95.7775 43.2528 95.1543 42.7252C94.5311 42.1975 93.8097 41.7983 93.0316 41.5505C92.2536 41.3026 91.4342 41.211 90.6206 41.2809C89.8071 41.3509 89.0153 41.581 88.291 41.958ZM149.471 153.16C150.223 154.622 150.364 156.323 149.863 157.889C149.361 159.455 148.259 160.758 146.797 161.511L106.4 182.336C104.938 183.088 103.237 183.229 101.671 182.728C100.105 182.226 98.8022 181.124 98.049 179.662L44.1 75.019C43.7276 74.2956 43.5014 73.5059 43.4342 72.695C43.3671 71.8841 43.4603 71.0679 43.7086 70.2931C43.957 69.5183 44.3555 68.7999 44.8814 68.1791C45.4074 67.5583 46.0505 67.0472 46.774 66.675L54.292 62.797L55.874 64.729C56.338 65.2917 56.9803 65.679 57.6945 65.8267C58.4087 65.9744 59.1519 65.8736 59.801 65.541L79.919 55.174C80.567 54.8393 81.0809 54.2928 81.3751 53.6255C81.6693 52.9581 81.7261 52.2101 81.536 51.506L80.885 49.091L87.185 45.85C87.9084 45.4763 88.6983 45.2488 89.5096 45.1806C90.3209 45.1123 91.1378 45.2047 91.9134 45.4524C92.689 45.7001 93.4081 46.0983 94.0297 46.6241C94.6513 47.15 95.1632 47.7932 95.536 48.517L149.471 153.16Z" fill="#263238" stroke="#263238" stroke-miterlimit="10"/>
<path d="M284.298 312.732C284.4 314.094 284.692 315.434 285.166 316.715C285.866 318.269 289.492 323.806 291.221 325.367C292.95 326.928 298.837 330.561 298.144 332.29C297.451 334.019 295.029 334.194 291.221 334.019C287.413 333.844 283.087 333.319 282.569 332.808C282.051 332.297 280 328.3 277.375 326.9C274.75 325.5 270.627 323.092 271.663 319.459C272.699 315.826 276.339 310.8 276.339 310.8C276.339 310.8 281.183 314.461 284.298 312.732Z" fill="#D9D9D9" stroke="#263238" stroke-linecap="round" stroke-linejoin="round"/>
<path d="M298.144 332.29C298.767 330.729 294.07 327.635 291.844 325.892C291.013 325.96 290.206 326.198 289.471 326.592C288.272 327.331 287.118 328.14 286.013 329.014C286.013 329.014 279.09 324.688 277.354 321.223C276.192 318.906 274.806 316.043 274.008 314.405C273.028 316.005 272.234 317.713 271.642 319.494C270.606 323.127 274.757 325.556 277.354 326.935C279.951 328.314 282.03 332.304 282.548 332.822C283.066 333.34 287.392 333.858 291.2 334.033C295.008 334.208 297.451 334.019 298.144 332.29Z" fill="#263238" stroke="#263238" stroke-linecap="round" stroke-linejoin="round"/>
<path d="M304.689 178.262C304.689 178.262 309.694 187.362 305.095 214.48C302.022 232.596 302.337 225.519 297.255 249.949C295.582 258.013 296.821 266.833 292.929 277.249C289.037 287.665 284.529 314.153 284.529 314.153C284.529 314.153 278.607 316.218 276.878 314.055C275.149 311.892 276.444 307.125 276.444 307.125C276.444 307.125 275.576 281.148 276.444 269.892C277.023 262.849 278.327 255.884 280.336 249.109L269.906 204.008L261.954 176.19C261.954 176.19 297.829 170.219 304.689 178.262Z" fill="#263238" stroke="#263238" stroke-linecap="round" stroke-linejoin="round"/>
<path d="M235.2 267.89C235.2 267.89 230.895 270.865 228.242 271.53C225.589 272.195 221.291 273.189 220.297 275.506C219.303 277.823 222.614 288.106 223.279 291.067C223.944 294.028 227.248 301.994 230.895 303.982C234.542 305.97 236.495 307.958 238.182 305.305C239.869 302.652 236.194 294.707 236.194 291.732C236.194 288.757 237.517 277.494 237.517 277.494L235.2 267.89Z" fill="#D9D9D9" stroke="#263238" stroke-linecap="round" stroke-linejoin="round"/>
<path d="M224.861 272.447C222.845 273.105 220.899 274.043 220.269 275.506C219.275 277.823 222.586 288.106 223.251 291.067C223.916 294.028 227.22 301.994 230.867 303.982C234.514 305.97 236.467 307.958 238.154 305.305C239.841 302.652 236.166 294.707 236.166 291.732L229.208 293.055C229.208 293.055 225.645 280.7 224.861 272.447Z" fill="#263238" stroke="#263238" stroke-linecap="round" stroke-linejoin="round"/>
<path d="M280.203 192.388C280.203 192.388 283.514 212.59 287.819 223.188C292.124 233.786 294.777 240.401 292.124 249.347C290.78 253.89 236.495 279.811 236.495 279.811C235.487 279.356 234.601 278.668 233.91 277.804C233.218 276.94 232.742 275.925 232.519 274.841C231.861 271.201 232.855 269.241 232.855 269.241C232.855 269.241 251.398 255.997 256.032 251.692C260.666 247.387 270.935 241.423 270.935 241.423C270.935 241.423 247.751 211.624 249.41 194.404C251.069 177.184 259.7 172.2 259.7 172.2" fill="#263238"/>
<path d="M280.203 192.388C280.203 192.388 283.514 212.59 287.819 223.188C292.124 233.786 294.777 240.401 292.124 249.347C290.78 253.89 236.495 279.811 236.495 279.811C235.487 279.356 234.601 278.668 233.91 277.804C233.218 276.94 232.742 275.925 232.519 274.841C231.861 271.201 232.855 269.241 232.855 269.241C232.855 269.241 251.398 255.997 256.032 251.692C260.666 247.387 270.935 241.423 270.935 241.423C270.935 241.423 247.751 211.624 249.41 194.404C251.069 177.184 259.7 172.2 259.7 172.2" stroke="#263238" stroke-linecap="round" stroke-linejoin="round"/>
<path d="M287.357 253.603C287.357 253.603 291.228 248.871 291.655 243.712C292.082 238.553 283.059 208.012 280.903 202.412C278.747 196.812 269.297 194.243 264.103 193.816" stroke="#787878" stroke-linecap="round" stroke-linejoin="round"/>
<path d="M301 87.1291C301.364 85.918 303.03 85.4771 303.247 84.2101C303.464 82.9431 302.022 82.0051 302.064 80.7101C302.106 79.4151 303.611 78.61 303.464 77.322C303.317 76.034 301.707 75.516 301.427 74.291C301.147 73.066 302.379 71.862 301.931 70.6581C301.483 69.4541 299.761 69.37 299.173 68.264C298.585 67.158 299.474 65.681 298.725 64.638C297.976 63.595 296.296 63.9381 295.442 63.0351C294.588 62.1321 295.057 60.459 294.042 59.647C293.027 58.835 291.508 59.605 290.444 58.947C289.38 58.289 289.401 56.567 288.232 56.042C287.063 55.517 285.775 56.658 284.571 56.294C283.367 55.93 282.947 54.264 281.68 54.047C280.413 53.83 279.461 55.272 278.18 55.23C276.899 55.188 276.08 53.683 274.806 53.83C273.532 53.977 272.979 55.587 271.754 55.874C270.529 56.161 269.332 54.936 268.128 55.391C266.924 55.846 266.826 57.561 265.72 58.191C264.614 58.821 263.137 57.9111 262.094 58.6601C261.051 59.4091 261.394 61.0961 260.484 61.9571C259.574 62.8181 257.908 62.3561 257.096 63.357C256.284 64.3581 257.061 65.8911 256.396 66.9621C255.731 68.0331 254.016 68.019 253.491 69.195C252.966 70.371 254.114 71.659 253.75 72.87C253.386 74.081 251.727 74.508 251.517 75.782C251.307 77.056 252.749 78.0011 252.707 79.2821C252.665 80.5631 251.167 81.382 251.307 82.677C251.447 83.972 253.071 84.504 253.365 85.729C253.659 86.954 252.42 88.1721 252.875 89.383C253.33 90.5941 255.066 90.699 255.675 91.819C256.284 92.939 255.395 94.437 256.151 95.494C256.907 96.551 258.594 96.194 259.462 97.132C260.33 98.07 259.896 99.757 260.862 100.583C261.828 101.409 263.375 100.583 264.439 101.283C265.503 101.983 265.496 103.698 266.665 104.223C267.834 104.748 269.087 103.593 270.291 103.957C271.495 104.321 271.901 105.994 273.161 106.197C274.421 106.4 275.345 104.951 276.584 104.979C277.823 105.007 278.684 106.519 279.93 106.379C281.176 106.239 281.715 104.587 282.926 104.279C284.137 103.971 285.327 105.21 286.524 104.741C287.721 104.272 287.819 102.543 288.918 101.941C290.017 101.339 291.501 102.2 292.544 101.444C293.587 100.688 293.244 98.987 294.154 98.119C295.064 97.251 296.737 97.706 297.549 96.719C298.361 95.732 297.584 94.171 298.249 93.1C298.914 92.029 300.636 92.022 301.161 90.846C301.686 89.67 300.65 88.333 301 87.1291Z" fill="#263238" stroke="#263238" stroke-linecap="round" stroke-linejoin="round"/>
<path d="M261.611 85.708C261.448 85.6518 261.303 85.5502 261.196 85.4151C261.088 85.2799 261.021 85.1169 261.002 84.945C260.782 83.2816 260.782 81.5964 261.002 79.933C263.018 70.35 269.136 62.503 279.419 63.91C289.702 65.317 293.552 74.452 293.482 84.245C293.43 84.934 293.323 85.6175 293.16 86.289C293.055 86.8 293.545 87.255 293.055 87.15C292.565 87.045 292.621 86.45 292.684 85.981C292.747 85.512 292.915 84.868 292.922 84.357C292.978 75.565 288.484 66.941 279.223 65.667C269.962 64.393 263.718 71.764 261.912 80.367C261.727 81.885 261.727 83.42 261.912 84.938C261.942 85.1613 261.886 85.3877 261.756 85.5719C261.627 85.7561 261.432 85.8847 261.212 85.932C261.044 85.96 261.723 85.75 261.611 85.708Z" fill="white" stroke="#263238" stroke-miterlimit="10"/>
<path d="M260.4 86.8001C260.268 86.8001 260.14 86.7479 260.046 86.6549C259.952 86.5619 259.898 86.4355 259.896 86.3031L259.854 80.7521C259.854 80.6202 259.906 80.4938 260 80.4006C260.093 80.3074 260.219 80.2551 260.351 80.2551C260.416 80.2541 260.48 80.2661 260.541 80.2903C260.601 80.3145 260.656 80.3505 260.702 80.3961C260.748 80.4417 260.785 80.496 260.81 80.5559C260.835 80.6158 260.848 80.6801 260.848 80.7451L260.89 86.2961C260.89 86.4273 260.839 86.5534 260.747 86.6476C260.656 86.7417 260.531 86.7964 260.4 86.8001Z" fill="white" stroke="#263238" stroke-miterlimit="10"/>
<path d="M260.813 85.6591C260.645 83.4864 260.671 81.3032 260.89 79.1351C262.108 69.4121 269.024 61.6981 279.307 63.1121C289.59 64.5261 293.741 73.7731 293.664 83.5661C293.664 84.1331 293.664 84.8751 293.594 85.3931C293.524 85.9111 293.391 88.5291 292.894 88.4311C292.397 88.3331 292.502 85.6731 292.558 85.1831C292.67 84.6446 292.749 84.1 292.796 83.5521C292.859 74.7671 288.365 66.1361 279.104 64.8621C269.843 63.5881 263.599 70.9591 261.793 79.5621C261.548 81.887 261.487 84.2276 261.611 86.5621C261.611 87.0451 261.737 86.8141 261.24 86.8911C261.1 86.8841 260.841 86.0091 260.813 85.6591Z" fill="#D2832D" stroke="#263238" stroke-linecap="round" stroke-linejoin="round"/>
<path d="M291.256 90.9301L290.129 90.8671C289.756 90.8366 289.41 90.6627 289.163 90.3819C288.917 90.1011 288.788 89.7355 288.806 89.3621L289.114 80.6681C289.125 80.3041 289.277 79.9587 289.539 79.7051C289.8 79.4516 290.15 79.3099 290.514 79.3101L291.634 79.3801C292.007 79.4088 292.355 79.5822 292.602 79.8634C292.849 80.1446 292.976 80.5112 292.957 80.8851L292.677 89.6001C292.659 89.9628 292.501 90.3042 292.235 90.5524C291.97 90.8005 291.619 90.936 291.256 90.9301Z" fill="white" stroke="#263238" stroke-miterlimit="10"/>
<path d="M263.991 89.796L262.871 89.754C262.497 89.7341 262.145 89.5683 261.891 89.2923C261.637 89.0163 261.501 88.6518 261.513 88.277L261.639 79.576C261.639 79.2047 261.786 78.8486 262.049 78.5861C262.312 78.3235 262.668 78.176 263.039 78.176H264.166C264.54 78.1995 264.89 78.3675 265.142 78.6444C265.394 78.9214 265.529 79.2856 265.517 79.66L265.398 88.361C265.403 88.5484 265.37 88.7348 265.301 88.9092C265.232 89.0836 265.129 89.2424 264.998 89.3762C264.867 89.51 264.71 89.6161 264.537 89.6883C264.364 89.7604 264.178 89.797 263.991 89.796Z" fill="white" stroke="#263238" stroke-miterlimit="10"/>
<path d="M294 87.7591C293.934 87.7573 293.869 87.7424 293.809 87.7153C293.749 87.6882 293.695 87.6494 293.65 87.6012C293.605 87.553 293.57 87.4963 293.547 87.4345C293.525 87.3727 293.514 87.3069 293.517 87.2411L293.727 81.6971C293.729 81.6318 293.743 81.5675 293.77 81.5079C293.797 81.4483 293.835 81.3945 293.882 81.3497C293.93 81.3048 293.986 81.2698 294.047 81.2465C294.108 81.2232 294.173 81.2122 294.238 81.2141C294.37 81.2213 294.494 81.2793 294.584 81.3758C294.674 81.4724 294.723 81.6001 294.721 81.7321L294.511 87.2831C294.509 87.348 294.494 87.412 294.468 87.4712C294.441 87.5305 294.403 87.5838 294.355 87.6281C294.308 87.6724 294.252 87.7068 294.191 87.7293C294.13 87.7517 294.065 87.7619 294 87.7591Z" fill="white" stroke="#263238" stroke-miterlimit="10"/>
<path d="M336.7 121.94C330.302 117.103 312.41 114.464 306.817 112.336C298.76 109.263 295.841 109.536 291.179 110.04C286.517 110.544 286.664 112.686 283.479 110.992C280.294 109.298 282.408 102.382 282.079 99.561C278.46 100.961 274.617 101.57 270.83 100.471C270.83 103.719 272.636 107.744 271.677 110.866C270.718 113.988 269.325 113.624 265.377 113.666C261.429 113.708 259.126 110.635 253.099 114.597C247.072 118.559 233.499 131.341 229.138 136.479C224.777 141.617 226.562 142.527 231.378 143.206C236.194 143.885 247.128 136.444 251.874 133.553C255.115 140.791 261.723 150.843 262.458 158.186C263.193 165.529 258.062 168.07 256.242 174.153C255.815 175.553 250.131 182.553 251.566 183.547C276.234 200.816 306.495 184.695 306.495 184.695C303.849 169.134 299.243 163.499 298.795 161.595C297.248 155.134 297.528 149.583 298.032 143.661C298.536 137.739 298.27 133.287 298.55 127.708C311.444 128.156 322.273 130.634 335.65 132.195C340.368 132.741 341.81 125.797 336.7 121.94Z" fill="#D2832D" stroke="#263238" stroke-linecap="round" stroke-linejoin="round"/>
<path d="M262.003 155.484C273.712 152.737 285.652 151.097 297.668 150.584C297.668 150.024 297.668 149.457 297.717 148.897C285.586 149.401 273.14 150.864 261.548 153.895C261.723 154.42 261.87 154.952 262.003 155.484Z" fill="#263238"/>
<path d="M301 166.04C287.567 166.614 271.915 167.755 258.237 169.96C257.887 170.541 257.537 171.15 257.236 171.787C271.446 169.4 287.7 168.161 301.7 167.643C301.441 167.062 301.196 166.53 301 166.04Z" fill="#263238"/>
<path d="M298.116 157.885C286.075 158.51 274.091 159.96 262.248 162.225C262.125 162.775 261.961 163.316 261.758 163.842C273.846 161.515 286.086 160.058 298.382 159.481C298.277 158.942 298.2 158.41 298.116 157.885Z" fill="#263238"/>
<path d="M314.671 114.583L313.075 114.17C311.517 118.946 311.216 124.042 312.2 128.968C312.774 129.024 313.348 129.087 313.922 129.157C312.861 124.32 313.12 119.286 314.671 114.583Z" fill="#263238"/>
<path d="M256.9 126.483C270.032 128.849 283.5 125.524 296.1 122.031C296.45 123.557 297.409 126.665 297.829 127.743C298.249 128.821 298.067 127.967 298.459 128.443C298.522 128.527 298.571 128.443 298.571 128.443C298.613 128.233 298.571 127.932 298.627 127.687C298.914 127.771 299.103 127.582 299.446 127.848C298.865 126.119 300.146 129.745 299.117 126.763C298.088 123.781 296.1 114.394 297.5 109.837C296.967 109.649 296.406 109.557 295.841 109.564C295.559 111.065 295.402 112.587 295.372 114.114C283.619 118.027 271.306 119.952 259.014 117.698C259.144 115.939 259.144 114.172 259.014 112.413C258.469 112.44 257.926 112.505 257.39 112.609C257.495 114.124 257.495 115.644 257.39 117.159C256.756 115.826 255.944 114.585 254.975 113.47C254.569 113.673 254.17 113.883 253.778 114.121L253.533 114.275C255.472 116.55 256.613 118.797 256.627 121.828C256.242 123.364 255.753 124.873 255.164 126.343C254.314 122.825 252.317 119.689 249.487 117.432C249.081 117.796 248.675 118.132 248.269 118.517C251.51 121.121 253.869 124.873 253.75 128.842C253.75 129.577 253.792 129.059 253.75 129.136C253.33 129.973 252.846 130.776 252.301 131.537C250.741 127.592 247.991 124.23 244.433 121.919L243.194 123.046C247.107 125.587 249.711 128.688 251.069 133.182C250.628 133.714 250.187 134.246 249.753 134.785C250.509 134.337 251.265 133.889 251.993 133.385C252.126 133.679 252.252 133.98 252.385 134.274L252.679 133.889C254.407 131.618 255.826 129.127 256.9 126.483ZM295.337 115.808C295.4 117.362 295.526 118.902 295.743 120.442C283.409 123.942 270.333 126.959 257.446 124.929C257.684 124.229 257.873 123.529 258.076 122.829C258.112 122.733 258.142 122.635 258.167 122.535C258.162 122.489 258.162 122.442 258.167 122.395C258.391 121.373 258.601 120.365 258.762 119.336C271.145 121.548 283.5 119.7 295.344 115.808H295.337Z" fill="#263238"/>
<path d="M298.2 141.918C298.242 141.414 298.284 140.903 298.312 140.392C284.641 138.25 270.501 139.811 259.112 148.26L259.812 149.828C270.9 141.4 284.788 139.923 298.2 141.918Z" fill="#263238"/>
<path d="M325.129 117.418L323.505 116.949C321.694 121.075 320.835 125.557 320.992 130.06L322.651 130.305C322.464 125.875 323.313 121.463 325.129 117.418Z" fill="#263238"/>
<path d="M303.702 111.3C302.887 116.901 302.998 122.598 304.031 128.163L305.676 128.331C304.672 122.901 304.538 117.346 305.277 111.874C304.759 111.664 304.234 111.468 303.702 111.3Z" fill="#263238"/>
<path d="M298.557 133.609C298.557 133.098 298.557 132.587 298.557 132.076C283.696 130.165 267.89 131.229 254.758 139.076C255.024 139.608 255.29 140.14 255.549 140.672C268.45 132.923 283.969 131.873 298.557 133.609Z" fill="#263238"/>
<path d="M256.011 174.692C255.773 175.119 255.402 175.686 254.982 176.323C258.721 176.95 262.498 177.324 266.287 177.443C278.877 177.777 291.429 175.927 303.387 171.976C303.191 171.395 302.995 170.849 302.799 170.331C281.736 177.135 264.754 176.078 256.011 174.692Z" fill="#263238"/>
<path d="M305.9 181.335C305.781 180.747 305.655 180.18 305.529 179.627C288.353 184.86 270.009 184.86 252.833 179.627C252.497 180.18 252.196 180.712 251.951 181.202C260.816 183.903 270.032 185.281 279.3 185.29C288.314 185.307 297.28 183.974 305.9 181.335Z" fill="#263238"/>
<path d="M287.7 111.146C286.3 110.915 284.802 112.462 283.374 111.09C281.043 108.843 281.932 102.69 282.149 99.5331C278.425 100.989 274.701 101.563 270.83 100.464C271.222 103.754 272.146 107.695 271.81 110.873C271.537 113.449 269.318 113.309 267.393 113.771C268.499 119.882 270.718 124.593 278.208 124.67C284.781 124.726 287.448 117.138 287.7 111.146Z" fill="#D9D9D9" stroke="#263238" stroke-linecap="round" stroke-linejoin="round"/>
<path d="M282.023 105.924C281.967 104.524 282.023 103.124 282.023 101.773C282.023 100.982 281.925 100.373 281.946 99.5891C278.25 100.989 274.652 101.591 270.816 100.457C271.11 102.291 271.362 104.118 271.586 105.966C273.595 107.17 275.562 108.122 277.97 107.765C279.482 107.541 280.742 106.694 282.023 105.924Z" fill="#263238" stroke="#263238" stroke-linecap="round" stroke-linejoin="round"/>
<path d="M265.335 78.75C265.202 83.65 264.32 89.95 265.664 94.528C267.008 99.106 271.355 103.509 275.303 105.112C279.251 106.715 282.037 103.187 284.676 100.534C287.315 97.881 289.093 95.466 289.345 90.832C289.597 86.198 290.185 80.332 288.421 74.858C287.273 71.302 282.352 67.795 277.102 67.956C271.852 68.117 266.077 72.471 265.335 78.75Z" fill="#D9D9D9" stroke="#263238" stroke-linecap="round" stroke-linejoin="round"/>
<path d="M273.7 93.2751C273.7 93.2751 274.883 96.6631 276.332 96.8731C277.781 97.0831 280.084 93.0231 280.084 93.0231C280.084 93.0231 276.759 94.6191 273.7 93.2751Z" fill="#263238" stroke="#263238" stroke-linecap="round" stroke-linejoin="round"/>
<path d="M275.275 88.9C276.178 87.332 277.767 87.899 279.062 88.592" stroke="#263238" stroke-linecap="round" stroke-linejoin="round"/>
<path d="M272.251 92.127C275.499 95.193 279.006 93.933 282.261 91.623" stroke="#263238" stroke-linecap="round" stroke-linejoin="round"/>
<path d="M268.513 81.8021C269.332 78.7151 271.467 78.0711 274.351 78.8621" stroke="#263238" stroke-linecap="round" stroke-linejoin="round"/>
<path d="M280.161 78.687C282.352 77.56 284.249 78.526 285.943 80.031" stroke="#263238" stroke-linecap="round" stroke-linejoin="round"/>
<path d="M257.075 81.998C256.186 84.847 254.975 86.345 254.933 89.642C254.891 92.939 258.748 96.642 258.769 100.177C258.79 103.712 260.68 101.164 255.878 105.938C251.076 110.712 231.903 124.264 228.683 130.998C225.463 137.732 223.251 142.03 231.238 143.038C239.225 144.046 248.164 128.415 252.063 122.367C255.962 116.319 262.381 107.093 263.963 101.416C265.545 95.739 259.581 92.26 258.433 89.131C257.285 86.002 258.433 85.043 258.748 82.831C259.063 80.619 258.237 81.333 257.075 81.998Z" fill="#D9D9D9" stroke="#263238" stroke-linecap="round" stroke-linejoin="round"/>
<path d="M252.098 122.311C252.497 121.688 253.351 120.47 253.736 119.84C251.3 117.999 249.102 115.878 246.505 114.24C241.78 117.684 230.671 127.05 228.697 131.04C225.435 137.592 223.237 142.184 231.252 143.066C239.267 143.948 248.066 128.625 252.098 122.311Z" fill="#D2832D" stroke="#263238" stroke-linecap="round" stroke-linejoin="round"/>
<path d="M241.094 118.776L240.933 118.909L240.583 119.21C240.324 119.42 240.051 119.658 239.792 119.875C243.056 121.95 246.211 124.193 249.242 126.595C249.55 126.147 249.851 125.699 250.152 125.244C247.212 122.969 244.237 120.764 241.094 118.776Z" fill="#263238"/>
<path d="M236.278 141.61C236.796 141.225 237.286 140.812 237.776 140.385C233.867 139.135 230.193 137.242 226.905 134.785C226.718 135.345 226.55 135.912 226.401 136.486C229.43 138.66 232.757 140.385 236.278 141.61Z" fill="#263238"/>
<path d="M233.289 125.664L232.946 125.986L232.582 126.343L232.036 126.882C236.172 128.835 240.009 131.366 243.432 134.4C243.782 133.98 244.132 133.546 244.475 133.119C241.097 130.145 237.334 127.638 233.289 125.664Z" fill="#263238"/>
<path d="M296.226 79.247C297.843 81.711 299.376 82.859 300.328 85.967C301.28 89.075 298.543 93.6671 299.523 97.0201C300.503 100.373 297.955 98.5881 303.954 101.647C309.953 104.706 331.8 113.491 336.49 119.511C341.18 125.531 343.924 129.143 336.861 131.922C329.798 134.701 317.261 120.841 312.053 116.27C306.845 111.699 297.885 104.559 294.84 99.638C291.795 94.717 296.583 89.6981 296.849 86.4291C297.115 83.1601 295.757 82.5161 294.861 80.5071C293.965 78.4981 294.931 78.918 296.226 79.247Z" fill="#D9D9D9" stroke="#263238" stroke-linecap="round" stroke-linejoin="round"/>
<path d="M312.025 116.284L309.799 114.331C311.654 111.93 313.236 109.326 315.322 107.114C320.88 109.214 333.606 116.13 336.483 119.567C341.229 125.237 343.938 129.29 336.847 131.95C329.756 134.61 317.38 120.89 312.025 116.284Z" fill="#D2832D" stroke="#263238" stroke-linecap="round" stroke-linejoin="round"/>
<path d="M323.183 126.056L324.457 127.078C327.257 123.587 330.057 120.087 332.857 116.578L331.94 115.983L331.737 115.85C331.648 115.802 331.561 115.748 331.478 115.689C328.72 119.154 325.962 122.605 323.183 126.056Z" fill="#263238"/>
<path d="M324.429 111.65L324.058 111.454L323.05 110.922L315.861 119.7L316.806 120.54L317.072 120.778L324.52 111.72L324.429 111.65Z" fill="#263238"/>
<path d="M338.912 122.668C336.329 125.636 333.718 128.569 331.016 131.418C331.534 131.663 332.066 131.894 332.605 132.118C335.048 129.521 337.421 126.861 339.766 124.173C339.5 123.648 339.213 123.158 338.912 122.668Z" fill="#263238"/>
<path d="M272.769 84.3781C272.811 85.0781 272.643 86.3241 271.754 86.3731C270.865 86.4221 270.564 85.2111 270.529 84.5041C270.494 83.7971 270.655 82.5651 271.544 82.5161C272.433 82.4671 272.727 83.6711 272.769 84.3781Z" fill="#263238"/>
<path d="M283.003 84.7C283.003 85.4 282.87 86.639 281.981 86.688C281.092 86.737 280.798 85.533 280.756 84.826C280.714 84.119 280.889 82.887 281.778 82.838C282.667 82.789 282.961 84 283.003 84.7Z" fill="#263238"/>
</svg>
