<svg width="350" height="326" viewBox="0 0 350 326" fill="none" xmlns="http://www.w3.org/2000/svg">
<g clip-path="url(#clip0_98_2104)">
<path d="M376.787 298.33H344.057V298.577H376.787V298.33Z" fill="#EBEBEB"/>
<path d="M259.503 301.02H250.915V301.267H259.503V301.02Z" fill="#EBEBEB"/>
<path d="M343.068 289.153H324.104V289.4H343.068V289.153Z" fill="#EBEBEB"/>
<path d="M26.7046 290.814H-15.9772V291.061H26.7046V290.814Z" fill="#EBEBEB"/>
<path d="M41.7653 290.814H35.5098V291.061H41.7653V290.814Z" fill="#EBEBEB"/>
<path d="M154.681 294.987H62.1032V295.235H154.681V294.987Z" fill="#EBEBEB"/>
<path d="M167.775 238.313H-23.053C-24.5496 238.313 -25.9849 237.718 -27.0431 236.659C-28.1013 235.6 -28.6958 234.164 -28.6958 232.666V-35.7526C-28.6828 -37.2416 -28.0825 -38.6652 -27.0257 -39.7135C-25.9689 -40.7618 -24.5411 -41.3499 -23.053 -41.3499H167.775C168.516 -41.3499 169.25 -41.2038 169.935 -40.92C170.619 -40.6363 171.241 -40.2203 171.765 -39.696C172.289 -39.1716 172.705 -38.5492 172.989 -37.8641C173.272 -37.179 173.418 -36.4447 173.418 -35.7032V232.666C173.418 233.408 173.272 234.142 172.989 234.827C172.705 235.512 172.289 236.135 171.765 236.659C171.241 237.184 170.619 237.599 169.935 237.883C169.25 238.167 168.516 238.313 167.775 238.313ZM-23.053 -41.1521C-24.4833 -41.1495 -25.8542 -40.5798 -26.8655 -39.5677C-27.8768 -38.5557 -28.4462 -37.1839 -28.4488 -35.7526V232.666C-28.4462 234.098 -27.8768 235.469 -26.8655 236.481C-25.8542 237.493 -24.4833 238.063 -23.053 238.066H167.775C169.205 238.063 170.576 237.493 171.588 236.481C172.599 235.469 173.168 234.098 173.171 232.666V-35.7526C173.168 -37.1839 172.599 -38.5557 171.588 -39.5677C170.576 -40.5798 169.205 -41.1495 167.775 -41.1521H-23.053Z" fill="#EBEBEB"/>
<path d="M381.531 238.313H190.702C189.206 238.313 187.77 237.718 186.712 236.659C185.654 235.6 185.059 234.164 185.059 232.666V-35.7526C185.072 -37.2416 185.673 -38.6652 186.73 -39.7135C187.786 -40.7618 189.214 -41.3499 190.702 -41.3499H381.531C383.027 -41.3499 384.462 -40.7549 385.521 -39.696C386.579 -38.637 387.173 -37.2008 387.173 -35.7032V232.666C387.173 234.164 386.579 235.6 385.521 236.659C384.462 237.718 383.027 238.313 381.531 238.313ZM190.702 -41.1521C189.272 -41.1495 187.901 -40.5798 186.89 -39.5677C185.878 -38.5557 185.309 -37.1839 185.307 -35.7526V232.666C185.309 234.098 185.878 235.469 186.89 236.481C187.901 237.493 189.272 238.063 190.702 238.066H381.531C382.961 238.063 384.332 237.493 385.343 236.481C386.354 235.469 386.924 234.098 386.926 232.666V-35.7526C386.924 -37.1839 386.354 -38.5557 385.343 -39.5677C384.332 -40.5798 382.961 -41.1495 381.531 -41.1521H190.702Z" fill="#EBEBEB"/>
<path d="M426.298 282.418H-67.8201V282.666H426.298V282.418Z" fill="#EBEBEB"/>
<path d="M61.3225 21.3864L68.5268 16.7583L72.4599 24.3729L81.0181 23.9773L80.6228 32.5413L88.2322 36.4771L83.6072 43.6862L88.2322 50.9053L80.6228 54.8411L81.0181 63.405L72.4599 63.0095L68.5268 70.6241L61.3225 65.996L54.1084 70.6241L50.1752 63.0095L41.6171 63.405L42.0124 54.8411L34.403 50.9053L39.0279 43.6862L34.403 36.4771L42.0124 32.5413L41.6171 23.9773L50.1752 24.3729L54.1084 16.7583L61.3225 21.3864Z" fill="#E6E6E6"/>
<path d="M58.5851 54.7027L50.0171 46.1289C49.547 45.6579 49.2829 45.0194 49.2829 44.3538C49.2829 43.6881 49.547 43.0496 50.0171 42.5787C50.4878 42.1082 51.1258 41.844 51.791 41.844C52.4562 41.844 53.0942 42.1082 53.5649 42.5787L58.5851 47.6023L69.0703 37.11C69.5409 36.6396 70.1789 36.3754 70.8442 36.3754C71.5094 36.3754 72.1474 36.6396 72.618 37.11C73.0881 37.581 73.3522 38.2194 73.3522 38.8851C73.3522 39.5508 73.0881 40.1892 72.618 40.6602L58.5851 54.7027Z" fill="#FAFAFA"/>
<path d="M329.312 97.0773L334.965 93.448L338.048 99.421L344.768 99.1045L344.452 105.819L350.421 108.905L346.794 114.571L350.421 120.228L344.452 123.313L344.768 130.028L338.048 129.721L334.965 135.694L329.312 132.065L323.659 135.694L320.576 129.721L313.866 130.028L314.172 123.313L308.203 120.228L311.83 114.571L308.203 108.905L314.172 105.819L313.866 99.1045L320.576 99.421L323.659 93.448L329.312 97.0773Z" fill="#E6E6E6"/>
<path d="M327.168 123.204L320.448 116.48C320.083 116.11 319.878 115.61 319.878 115.09C319.878 114.57 320.083 114.071 320.448 113.701C320.818 113.332 321.319 113.126 321.841 113.126C322.363 113.126 322.864 113.332 323.235 113.701L327.187 117.656L335.41 109.429C335.78 109.06 336.281 108.854 336.803 108.854C337.325 108.854 337.826 109.06 338.196 109.429C338.565 109.799 338.771 110.301 338.771 110.823C338.771 111.346 338.565 111.847 338.196 112.217L327.168 123.204Z" fill="#FAFAFA"/>
<path d="M62.0439 192.032L73.0627 197.659C73.9705 198.119 75.003 198.271 76.0047 198.093C77.0064 197.914 77.923 197.415 78.6166 196.67L87.0463 187.612C87.5346 187.088 87.8956 186.459 88.1013 185.773C88.307 185.087 88.3517 184.362 88.2322 183.656L83.8543 158.775C83.5072 156.824 82.401 155.09 80.7782 153.953C79.1553 152.817 77.1483 152.371 75.1973 152.713L61.2435 155.176C60.2773 155.346 59.3541 155.706 58.5268 156.234C57.6994 156.761 56.9841 157.447 56.4215 158.252C55.859 159.056 55.4603 159.963 55.2482 160.922C55.0362 161.881 55.0149 162.872 55.1856 163.838L59.5635 188.71C59.6952 189.416 59.9873 190.084 60.4174 190.66C60.8474 191.236 61.4039 191.705 62.0439 192.032ZM74.5945 190.054C75.0529 189.971 75.5257 190.026 75.9529 190.212C76.3801 190.398 76.7424 190.707 76.9939 191.099C77.2455 191.492 77.3749 191.95 77.3658 192.416C77.3567 192.882 77.2094 193.335 76.9427 193.718C76.676 194.1 76.3019 194.394 75.8678 194.563C75.4336 194.733 74.9591 194.769 74.5043 194.668C74.0495 194.567 73.6349 194.333 73.3132 193.996C72.9914 193.658 72.777 193.233 72.6971 192.774C72.5906 192.162 72.7303 191.532 73.0858 191.023C73.4412 190.513 73.9836 190.165 74.5945 190.054Z" fill="#E6E6E6"/>
<path d="M62.5821 184.321L83.9054 180.559L83.4987 178.251L62.1754 182.013L62.5821 184.321Z" fill="#FAFAFA"/>
<path d="M58.971 163.811L80.2942 160.048L79.8875 157.74L58.5642 161.503L58.971 163.811Z" fill="#FAFAFA"/>
<path d="M99.7056 30.9788L107.295 39.1274C107.919 39.7965 108.743 40.2443 109.643 40.403C110.544 40.5618 111.471 40.423 112.286 40.0076L122.168 34.9443C122.75 34.6505 123.254 34.2247 123.642 33.701C124.03 33.1774 124.29 32.5703 124.402 31.9282L128.355 9.55911C128.662 7.80472 128.261 5.99993 127.24 4.54084C126.22 3.08174 124.662 2.08753 122.909 1.77641L110.369 -0.438744C108.613 -0.746358 106.807 -0.344358 105.347 0.679042C103.887 1.70244 102.892 3.26364 102.581 5.02002L98.6284 27.3792C98.515 28.0217 98.5533 28.6818 98.7403 29.3069C98.9274 29.9319 99.2579 30.5045 99.7056 30.9788ZM110.902 33.2138C111.315 33.2846 111.697 33.4764 112.001 33.7648C112.304 34.0532 112.515 34.4253 112.607 34.8339C112.7 35.2425 112.668 35.6692 112.518 36.0601C112.368 36.451 112.105 36.7884 111.762 37.0296C111.42 37.2708 111.014 37.405 110.596 37.4151C110.177 37.4253 109.765 37.311 109.412 37.0866C109.058 36.8623 108.779 36.538 108.61 36.1549C108.441 35.7718 108.389 35.347 108.461 34.9345C108.558 34.3828 108.869 33.892 109.327 33.5694C109.784 33.2469 110.351 33.119 110.902 33.2138Z" fill="#F0F0F0"/>
<path d="M102.539 24.6436L121.712 28.0265L122.077 25.9521L102.905 22.5692L102.539 24.6436Z" fill="#FAFAFA"/>
<path d="M106.342 7.3892L125.421 10.701L125.779 8.63681L106.7 5.32496L106.342 7.3892Z" fill="#FAFAFA"/>
<path d="M283.379 6.85935C281.976 4.854 279.835 3.48803 277.426 3.06155C275.017 2.63506 272.537 3.18296 270.532 4.58486L266.579 7.32414L263.832 3.36851C262.425 1.36746 260.284 0.00492805 257.877 -0.421275C255.47 -0.847478 252.992 -0.302687 250.985 1.09402C248.985 2.50136 247.623 4.64365 247.197 7.05263C246.771 9.4616 247.316 11.9413 248.712 13.9498L262.063 33.0258L281.136 19.6657C283.119 18.2563 284.467 16.1212 284.887 13.7237C285.306 11.3262 284.765 8.85972 283.379 6.85935Z" fill="#EBEBEB"/>
<path d="M310.793 8.63936C310.453 8.15051 310.02 7.73364 309.519 7.4127C309.018 7.09177 308.458 6.8731 307.872 6.76926C307.286 6.66542 306.686 6.67845 306.105 6.80761C305.524 6.93677 304.974 7.17952 304.488 7.52189L302.571 8.86681L301.227 6.94832C300.537 5.9653 299.486 5.29575 298.305 5.08631C297.123 4.87686 295.906 5.14459 294.922 5.83086C293.94 6.52408 293.273 7.57786 293.065 8.76193C292.858 9.94599 293.127 11.1641 293.815 12.15L300.347 21.4853L309.686 14.9486C310.174 14.6079 310.589 14.1742 310.909 13.6723C311.229 13.1705 311.446 12.6103 311.549 12.0241C311.652 11.4379 311.638 10.8371 311.508 10.2562C311.378 9.67535 311.135 9.12589 310.793 8.63936Z" fill="#EBEBEB"/>
<path d="M18.5122 99.4309C12.1341 101.264 6.74419 105.556 3.52721 111.364C0.310229 117.171 -0.470584 124.02 1.3564 130.403C3.83687 139.037 18.9667 153.504 29.2642 162.592C30.3203 163.527 31.5946 164.179 32.9693 164.491C34.3441 164.802 35.7751 164.761 37.1302 164.373C38.4853 163.985 39.7208 163.261 40.7226 162.269C41.7244 161.277 42.4603 160.048 42.8623 158.696C46.8152 145.534 51.9442 125.232 49.4736 116.598C48.5679 113.436 47.0485 110.484 45.0022 107.909C42.9558 105.335 40.4226 103.19 37.5474 101.595C34.6721 100.001 31.5111 98.9894 28.245 98.618C24.9788 98.2466 21.6716 98.5228 18.5122 99.4309ZM28.5922 134.606C26.398 135.237 24.0661 135.203 21.8914 134.508C19.7167 133.813 17.7969 132.488 16.3747 130.701C14.9525 128.914 14.0918 126.744 13.9016 124.468C13.7113 122.191 14.1999 119.909 15.3057 117.911C16.4115 115.912 18.0847 114.286 20.1138 113.239C22.1429 112.192 24.4367 111.771 26.7052 112.028C28.9736 112.286 31.1148 113.211 32.8579 114.686C34.601 116.161 35.8678 118.121 36.498 120.317C37.3431 123.261 36.9849 126.42 35.5023 129.1C34.0197 131.78 31.5341 133.76 28.5922 134.606Z" fill="#E0E0E0"/>
<path d="M22.4256 98.3135C16.0555 100.152 10.6752 104.446 7.46597 110.251C4.25679 116.057 3.48113 122.899 5.30934 129.276C7.78981 137.909 22.9197 152.387 33.2171 161.475C34.2773 162.406 35.5549 163.055 36.932 163.361C38.309 163.667 39.741 163.621 41.0954 163.227C42.4499 162.832 43.6832 162.103 44.6812 161.105C45.6792 160.108 46.4098 158.874 46.8053 157.519C50.7583 144.357 55.8872 124.065 53.4166 115.422C52.5061 112.261 50.9818 109.311 48.931 106.74C46.8803 104.169 44.3432 102.028 41.4649 100.439C38.5866 98.8504 35.4236 97.8448 32.1567 97.48C28.8898 97.1153 25.583 97.3985 22.4256 98.3135ZM32.5056 133.489C30.3096 134.122 27.9754 134.089 25.7981 133.394C23.6209 132.7 21.6985 131.374 20.274 129.586C18.8496 127.798 17.9872 125.627 17.7959 123.348C17.6046 121.069 18.093 118.785 19.1993 116.784C20.3055 114.783 21.9801 113.155 24.011 112.107C26.0418 111.058 28.3379 110.636 30.6086 110.894C32.8793 111.151 35.0227 112.077 36.7677 113.553C38.5126 115.03 39.7807 116.991 40.4115 119.189C40.8313 120.648 40.9599 122.175 40.7898 123.683C40.6196 125.191 40.1542 126.651 39.4199 127.979C38.6857 129.307 37.6972 130.477 36.5107 131.422C35.3243 132.368 33.9633 133.07 32.5056 133.489Z" fill="#F5F5F5"/>
<path d="M310.585 35.7848C307.835 34.9892 304.955 34.7448 302.111 35.0656C299.266 35.3865 296.513 36.2664 294.009 37.6547C291.505 39.043 289.3 40.9125 287.52 43.1558C285.74 45.3992 284.42 47.9722 283.636 50.7272C281.482 58.2528 285.978 75.9246 289.397 87.386C289.746 88.5669 290.386 89.6406 291.26 90.5074C292.133 91.3743 293.212 92.0063 294.395 92.3446C295.578 92.683 296.827 92.7168 298.027 92.4429C299.226 92.169 300.337 91.5963 301.256 90.778C310.229 82.8667 323.403 70.268 325.557 62.7523C326.351 59.9979 326.594 57.1136 326.271 54.2651C325.947 51.4165 325.065 48.66 323.673 46.154C322.282 43.6479 320.41 41.4418 318.163 39.6623C315.917 37.8828 313.342 36.565 310.585 35.7848ZM301.78 66.441C299.871 65.8925 298.167 64.7902 296.883 63.2732C295.599 61.7562 294.794 59.8926 294.568 57.9177C294.342 55.9428 294.706 53.9452 295.614 52.1773C296.522 50.4093 297.933 48.9502 299.669 47.9842C301.405 47.0183 303.388 46.5889 305.368 46.7501C307.348 46.9114 309.236 47.6561 310.793 48.8903C312.35 50.1245 313.507 51.7928 314.117 53.6844C314.727 55.5761 314.764 57.6063 314.222 59.5186C313.861 60.7918 313.252 61.9811 312.431 63.0185C311.61 64.056 310.593 64.921 309.437 65.5641C308.281 66.2071 307.01 66.6156 305.696 66.7661C304.382 66.9166 303.051 66.8061 301.78 66.441Z" fill="#E0E0E0"/>
<path d="M313.995 36.7739C311.245 35.9782 308.365 35.7338 305.52 36.0547C302.676 36.3755 299.922 37.2554 297.418 38.6437C294.914 40.032 292.709 41.9015 290.929 44.1448C289.149 46.3882 287.829 48.9612 287.045 51.7162C284.891 59.2319 289.387 76.9136 292.807 88.375C293.155 89.5559 293.796 90.6296 294.669 91.4964C295.543 92.3633 296.621 92.9953 297.804 93.3336C298.987 93.672 300.236 93.7058 301.436 93.4319C302.635 93.158 303.746 92.5853 304.666 91.767C313.629 83.8557 326.802 71.257 328.956 63.7414C329.751 60.9876 329.994 58.1039 329.671 55.2558C329.349 52.4078 328.467 49.6517 327.077 47.1457C325.686 44.6398 323.815 42.4335 321.57 40.6535C319.325 38.8736 316.75 37.5551 313.995 36.7739ZM305.219 67.43C303.309 66.8832 301.603 65.7821 300.318 64.2657C299.033 62.7493 298.226 60.8858 297.998 58.9105C297.771 56.9352 298.134 54.9369 299.042 53.168C299.949 51.3991 301.36 49.9391 303.096 48.9723C304.832 48.0055 306.816 47.5754 308.796 47.7364C310.777 47.8973 312.665 48.6421 314.223 49.8765C315.78 51.111 316.937 52.7797 317.548 54.672C318.158 56.5642 318.194 58.5949 317.651 60.5076C316.92 63.0753 315.199 65.247 312.868 66.5452C310.536 67.8434 307.785 68.1617 305.219 67.43Z" fill="#F5F5F5"/>
<path d="M179.239 326.533C285.061 326.533 370.848 321.521 370.848 315.339C370.848 309.156 285.061 304.145 179.239 304.145C73.4161 304.145 -12.3702 309.156 -12.3702 315.339C-12.3702 321.521 73.4161 326.533 179.239 326.533Z" fill="#F5F5F5"/>
<path d="M118.462 90.0462H129.036C129.56 90.0365 130.081 90.1381 130.563 90.3444C131.044 90.5507 131.477 90.857 131.832 91.243C132.187 91.629 132.456 92.0859 132.621 92.5837C132.787 93.0814 132.845 93.6085 132.792 94.1304L130.815 116.45C130.702 117.561 130.186 118.592 129.365 119.348C128.544 120.104 127.474 120.533 126.358 120.554H115.794C115.269 120.563 114.748 120.459 114.266 120.251C113.784 120.043 113.351 119.735 112.997 119.347C112.643 118.959 112.375 118.5 112.212 118C112.048 117.501 111.993 116.973 112.049 116.45L114.015 94.1304C114.133 93.0247 114.649 91.9998 115.468 91.248C116.287 90.4961 117.351 90.0688 118.462 90.0462Z" fill="#4267B2"/>
<path opacity="0.2" d="M236.754 85.2796H253.277C254.098 85.265 254.912 85.4253 255.665 85.7498C256.419 86.0743 257.095 86.5557 257.648 87.1618C258.202 87.768 258.62 88.485 258.875 89.2654C259.13 90.0457 259.216 90.8715 259.128 91.6877L257.092 114.996C256.915 116.723 256.115 118.327 254.841 119.506C253.568 120.686 251.909 121.361 250.174 121.404H233.592C232.772 121.418 231.959 121.256 231.207 120.931C230.454 120.606 229.78 120.124 229.227 119.518C228.675 118.912 228.258 118.196 228.003 117.416C227.749 116.637 227.663 115.812 227.751 114.996L229.787 91.6877C229.965 89.9523 230.773 88.3422 232.056 87.1616C233.34 85.981 235.011 85.3115 236.754 85.2796Z" fill="#1F1F1F"/>
<path opacity="0.2" d="M233.364 124.005H249.898C250.717 123.992 251.53 124.153 252.283 124.479C253.035 124.804 253.71 125.285 254.262 125.891C254.814 126.497 255.232 127.214 255.486 127.993C255.741 128.773 255.826 129.598 255.738 130.413L253.702 153.722C253.526 155.458 252.719 157.069 251.435 158.25C250.151 159.431 248.479 160.1 246.735 160.13H230.212C229.392 160.145 228.578 159.984 227.824 159.66C227.07 159.335 226.394 158.854 225.841 158.248C225.287 157.642 224.869 156.925 224.614 156.144C224.359 155.364 224.273 154.538 224.362 153.722L226.407 130.413C226.583 128.679 227.389 127.069 228.671 125.888C229.952 124.707 231.622 124.037 233.364 124.005Z" fill="#1F1F1F"/>
<path d="M148.119 41.5799H240.183C243.151 41.5269 246.095 42.1072 248.821 43.2821C251.546 44.457 253.991 46.1995 255.991 48.3936C257.991 50.5877 259.5 53.183 260.42 56.0068C261.339 58.8305 261.646 61.8178 261.322 64.7697L241.675 289.42C241.036 295.698 238.119 301.523 233.478 305.795C228.836 310.066 222.79 312.487 216.485 312.6H124.421C121.455 312.653 118.511 312.072 115.787 310.898C113.062 309.724 110.618 307.982 108.618 305.789C106.618 303.596 105.108 301.002 104.188 298.18C103.268 295.357 102.96 292.371 103.283 289.42L122.909 64.7697C123.547 58.4868 126.465 52.656 131.112 48.3821C135.758 44.1082 141.809 41.6879 148.119 41.5799Z" fill="#4267B2"/>
<path opacity="0.2" d="M148.119 41.5799H240.183C243.151 41.5269 246.095 42.1072 248.821 43.2821C251.546 44.457 253.991 46.1995 255.991 48.3936C257.991 50.5877 259.5 53.183 260.42 56.0068C261.339 58.8305 261.646 61.8178 261.322 64.7697L241.675 289.42C241.036 295.698 238.119 301.523 233.478 305.795C228.836 310.066 222.79 312.487 216.485 312.6H124.421C121.455 312.653 118.511 312.072 115.787 310.898C113.062 309.724 110.618 307.982 108.618 305.789C106.618 303.596 105.108 301.002 104.188 298.18C103.268 295.357 102.96 292.371 103.283 289.42L122.909 64.7697C123.547 58.4868 126.465 52.656 131.112 48.3821C135.758 44.1082 141.809 41.6879 148.119 41.5799Z" fill="#1F1F1F"/>
<path d="M145.145 41.5799H237.219C240.185 41.5286 243.129 42.1099 245.854 43.2854C248.579 44.4608 251.022 46.2033 253.022 48.3971C255.022 50.5908 256.532 53.1855 257.452 56.0085C258.371 58.8315 258.68 61.8182 258.357 64.7698L238.711 289.42C238.069 295.697 235.152 301.521 230.511 305.792C225.869 310.063 219.825 312.485 213.521 312.6H121.457C118.49 312.654 115.545 312.075 112.82 310.901C110.094 309.728 107.65 307.986 105.65 305.793C103.65 303.599 102.139 301.005 101.22 298.181C100.301 295.358 99.9934 292.371 100.318 289.42L119.945 64.7698C121.071 51.9634 132.357 41.5799 145.145 41.5799Z" fill="#4267B2"/>
<path d="M255.59 64.7698L235.954 289.41C235.385 294.938 232.813 300.067 228.723 303.827C224.634 307.588 219.311 309.72 213.758 309.821H121.694C119.081 309.869 116.488 309.359 114.088 308.326C111.688 307.292 109.535 305.759 107.773 303.828C106.012 301.896 104.681 299.612 103.871 297.125C103.061 294.639 102.79 292.009 103.075 289.41L122.722 64.7698C123.288 59.2414 125.858 54.1119 129.945 50.3496C134.032 46.5874 139.355 44.4528 144.907 44.3489H236.971C239.585 44.3023 242.178 44.8134 244.578 45.8479C246.978 46.8825 249.131 48.4169 250.892 50.3489C252.654 52.281 253.984 54.5663 254.794 57.0529C255.604 59.5394 255.875 62.1701 255.59 64.7698Z" fill="white"/>
<g opacity="0.1">
<path d="M121.694 309.821H156.598L212.987 44.3488H168.516L112.602 307.576C115.401 309.064 118.525 309.835 121.694 309.821Z" fill="#1F1F1F"/>
<path d="M234.333 44.3488H225.874L169.475 309.821H177.944L234.333 44.3488Z" fill="#1F1F1F"/>
</g>
<path d="M163.951 43.6962C163.865 44.5253 163.954 45.3633 164.213 46.1555C164.473 46.9477 164.896 47.6764 165.455 48.294C166.014 48.9117 166.698 49.4044 167.46 49.7402C168.223 50.076 169.047 50.2472 169.88 50.2427H210.892C212.67 50.2042 214.372 49.518 215.681 48.3127C216.989 47.1074 217.812 45.4659 217.997 43.6962H163.951Z" fill="#4267B2"/>
<path d="M235.301 51.6074H244.611C244.791 51.6065 244.969 51.6435 245.134 51.716C245.299 51.7885 245.446 51.8949 245.568 52.0282C245.689 52.1616 245.78 52.3189 245.837 52.49C245.893 52.6612 245.913 52.8423 245.895 53.0216L245.539 57.0761C245.501 57.4584 245.324 57.8133 245.042 58.0738C244.759 58.3344 244.392 58.4825 244.008 58.4902H234.699C234.518 58.4927 234.339 58.4568 234.173 58.3848C234.008 58.3128 233.859 58.2065 233.738 58.0728C233.616 57.9391 233.525 57.7811 233.469 57.6093C233.413 57.4374 233.394 57.2557 233.414 57.0761L233.77 53.0216C233.808 52.6393 233.985 52.2844 234.267 52.0238C234.55 51.7633 234.917 51.6152 235.301 51.6074Z" fill="#4267B2"/>
<path d="M135.905 51.6074H148.366C148.57 51.6049 148.771 51.6455 148.958 51.7266C149.145 51.8076 149.312 51.9272 149.449 52.0776C149.587 52.228 149.69 52.4056 149.754 52.599C149.818 52.7924 149.84 52.997 149.819 53.1995L149.493 56.8981C149.449 57.3293 149.249 57.7296 148.931 58.023C148.612 58.3165 148.197 58.4827 147.763 58.4902H135.302C135.099 58.4929 134.897 58.4523 134.711 58.3711C134.525 58.29 134.358 58.1702 134.222 58.0197C134.085 57.8691 133.982 57.6912 133.92 57.4979C133.857 57.3045 133.837 57.1001 133.859 56.8981L134.175 53.1995C134.219 52.7683 134.419 52.368 134.738 52.0746C135.056 51.7811 135.472 51.6149 135.905 51.6074Z" fill="#4267B2"/>
<path opacity="0.4" d="M135.905 51.6074H148.366C148.57 51.6049 148.771 51.6455 148.958 51.7266C149.145 51.8076 149.312 51.9272 149.449 52.0776C149.587 52.228 149.69 52.4056 149.754 52.599C149.818 52.7924 149.84 52.997 149.819 53.1995L149.493 56.8981C149.449 57.3293 149.249 57.7296 148.931 58.023C148.612 58.3165 148.197 58.4827 147.763 58.4902H135.302C135.099 58.4929 134.897 58.4523 134.711 58.3711C134.525 58.29 134.358 58.1702 134.222 58.0197C134.085 57.8691 133.982 57.6912 133.92 57.4979C133.857 57.3045 133.837 57.1001 133.859 56.8981L134.175 53.1995C134.219 52.7683 134.419 52.368 134.738 52.0746C135.056 51.7811 135.472 51.6149 135.905 51.6074Z" fill="white"/>
<path d="M232.821 52.7546H234.283C234.35 52.7528 234.416 52.7652 234.477 52.7909C234.538 52.8167 234.592 52.8552 234.637 52.9039C234.682 52.9526 234.716 53.0104 234.737 53.0733C234.758 53.1362 234.765 53.2029 234.758 53.2688L234.451 56.7695C234.437 56.9094 234.372 57.0392 234.268 57.134C234.164 57.2288 234.029 57.2821 233.888 57.2838H232.426C232.359 57.2855 232.294 57.2731 232.233 57.2474C232.171 57.2216 232.117 57.1831 232.072 57.1344C232.027 57.0857 231.993 57.0279 231.972 56.965C231.951 56.9021 231.944 56.8354 231.951 56.7695L232.258 53.2688C232.272 53.1289 232.338 52.9992 232.441 52.9044C232.545 52.8095 232.68 52.7562 232.821 52.7546Z" fill="#4267B2"/>
<path d="M242.763 52.7545H244.235C244.3 52.7542 244.365 52.7676 244.425 52.794C244.485 52.8204 244.538 52.8591 244.582 52.9076C244.626 52.9562 244.659 53.0134 244.679 53.0757C244.7 53.1379 244.706 53.2037 244.699 53.2687L244.393 56.7695C244.381 56.9086 244.318 57.0382 244.215 57.1332C244.113 57.2282 243.979 57.2818 243.84 57.2837H242.367C242.302 57.2841 242.237 57.2706 242.177 57.2442C242.117 57.2179 242.064 57.1791 242.02 57.1306C241.976 57.0821 241.943 57.0248 241.923 56.9626C241.903 56.9003 241.896 56.8345 241.903 56.7695L242.209 53.2687C242.221 53.1297 242.285 53.0001 242.387 52.9051C242.489 52.8101 242.623 52.7564 242.763 52.7545Z" fill="white"/>
<path d="M239.61 52.7545H241.083C241.148 52.7542 241.213 52.7676 241.273 52.794C241.332 52.8204 241.386 52.8591 241.43 52.9076C241.474 52.9562 241.507 53.0134 241.527 53.0757C241.547 53.1379 241.554 53.2037 241.547 53.2687L241.241 56.7695C241.228 56.9086 241.165 57.0382 241.063 57.1332C240.961 57.2282 240.827 57.2818 240.687 57.2837H239.215C239.149 57.2841 239.085 57.2706 239.025 57.2442C238.965 57.2179 238.911 57.1791 238.868 57.1306C238.824 57.0821 238.791 57.0248 238.77 56.9626C238.75 56.9003 238.743 56.8345 238.75 56.7695L239.057 53.2687C239.069 53.1297 239.132 53.0001 239.235 52.9051C239.337 52.8101 239.471 52.7564 239.61 52.7545Z" fill="white"/>
<path d="M256.153 114.838L254.177 137.81C255.144 137.624 256.026 137.132 256.692 136.405C257.357 135.678 257.771 134.756 257.873 133.776L259.138 118.853C259.238 117.931 258.986 117.004 258.433 116.26C257.879 115.515 257.065 115.007 256.153 114.838Z" fill="#4267B2"/>
<path opacity="0.2" d="M256.153 114.838L254.177 137.81C255.144 137.624 256.026 137.132 256.692 136.405C257.357 135.678 257.771 134.756 257.873 133.776L259.138 118.853C259.238 117.931 258.986 117.004 258.433 116.26C257.879 115.515 257.065 115.007 256.153 114.838Z" fill="#1F1F1F"/>
<path d="M258.298 90.0461L256.321 113.018C257.287 112.834 258.167 112.343 258.831 111.618C259.495 110.892 259.908 109.972 260.007 108.994L261.262 94.1303C261.377 93.2004 261.135 92.2615 260.584 91.5034C260.034 90.7453 259.217 90.2245 258.298 90.0461Z" fill="#4267B2"/>
<path opacity="0.2" d="M258.298 90.0461L256.321 113.018C257.287 112.834 258.167 112.343 258.831 111.618C259.495 110.892 259.908 109.972 260.007 108.994L261.262 94.1303C261.377 93.2004 261.135 92.2615 260.584 91.5034C260.034 90.7453 259.217 90.2245 258.298 90.0461Z" fill="#1F1F1F"/>
<path d="M332.702 142.468H313.303C311.73 142.468 310.222 143.093 309.11 144.206C307.998 145.319 307.373 146.828 307.373 148.402V159.893C307.386 161.458 308.017 162.954 309.127 164.056C310.238 165.158 311.739 165.777 313.303 165.777H318.847V170.256C318.85 170.503 318.925 170.742 319.063 170.946C319.201 171.15 319.396 171.308 319.624 171.402C319.851 171.496 320.101 171.521 320.342 171.473C320.584 171.426 320.806 171.309 320.981 171.137L326.328 165.777H332.702C334.257 165.764 335.745 165.14 336.845 164.039C337.945 162.938 338.569 161.449 338.582 159.893V148.352C338.569 146.796 337.945 145.306 336.845 144.206C335.745 143.105 334.257 142.481 332.702 142.468Z" fill="#D2832D"/>
<path d="M328.008 147.966H318.689C318.6 147.185 318.55 146.8 318.461 145.989H313.332C313.441 146.434 313.5 146.651 313.609 147.096H317.305C317.355 147.423 317.384 147.591 317.434 147.927C317.681 149.559 317.809 150.37 318.056 152.001C318.115 152.446 318.155 152.664 318.224 153.109C318.471 154.74 318.59 155.551 318.837 157.183C318.975 158.063 319.044 158.498 319.173 159.369H329.451C329.549 158.924 329.599 158.706 329.707 158.261H319.973C319.924 157.836 319.894 157.618 319.845 157.183H330.429L331.417 153.109C331.526 152.664 331.575 152.446 331.694 152.001C332.089 150.37 332.297 149.559 332.682 147.927L328.008 147.966ZM318.827 149.064H322.128C322.128 150.261 322.177 150.854 322.217 152.031H319.173L318.827 149.064ZM319.667 156.125C319.519 154.928 319.45 154.335 319.311 153.158H322.276C322.276 154.345 322.325 154.938 322.365 156.125H319.667ZM326.002 156.125H323.323C323.323 154.928 323.323 154.335 323.323 153.158H326.288C326.16 154.335 326.11 154.928 326.002 156.125ZM326.377 152.041H323.333C323.333 150.854 323.333 150.261 323.333 149.074H326.634C326.535 150.261 326.486 150.854 326.377 152.041ZM329.658 156.125H326.99C327.138 154.928 327.207 154.335 327.365 153.158H330.33L329.658 156.125ZM330.538 152.041H327.474C327.632 150.854 327.701 150.261 327.85 149.074H331.15C330.913 150.261 330.785 150.854 330.538 152.041Z" fill="white"/>
<path d="M319.805 160.437C319.545 160.437 319.291 160.514 319.075 160.658C318.859 160.803 318.691 161.008 318.591 161.248C318.492 161.489 318.466 161.753 318.516 162.008C318.567 162.264 318.692 162.498 318.876 162.682C319.06 162.866 319.294 162.991 319.549 163.042C319.804 163.093 320.068 163.066 320.308 162.967C320.549 162.867 320.754 162.699 320.898 162.482C321.043 162.266 321.12 162.012 321.12 161.752C321.12 161.403 320.981 161.068 320.735 160.822C320.488 160.575 320.154 160.437 319.805 160.437Z" fill="white"/>
<path d="M329.115 163.057C329.835 163.057 330.419 162.473 330.419 161.752C330.419 161.031 329.835 160.446 329.115 160.446C328.394 160.446 327.81 161.031 327.81 161.752C327.81 162.473 328.394 163.057 329.115 163.057Z" fill="white"/>
<path d="M202.472 60.1317H171.679C169.139 60.1766 166.704 61.1513 164.833 62.8715C162.963 64.5918 161.788 66.9382 161.53 69.467L159.938 87.7123C159.808 88.9006 159.931 90.1031 160.301 91.2397C160.671 92.3764 161.279 93.4212 162.084 94.3044C162.889 95.1877 163.873 95.8891 164.97 96.3621C166.067 96.8351 167.253 97.0688 168.447 97.0476H177.262L176.64 104.148C176.609 104.537 176.702 104.926 176.904 105.26C177.106 105.595 177.407 105.857 177.766 106.011C178.125 106.165 178.523 106.202 178.904 106.118C179.285 106.034 179.63 105.833 179.891 105.542L189.121 97.097H199.241C201.78 97.05 204.214 96.0746 206.084 94.3547C207.954 92.6349 209.13 90.2897 209.39 87.7617L210.981 69.5164C211.119 68.3243 211.001 67.1164 210.634 65.9737C210.268 64.831 209.661 63.78 208.856 62.8911C208.05 62.0023 207.063 61.2962 205.962 60.8203C204.861 60.3444 203.671 60.1096 202.472 60.1317Z" fill="#D2832D"/>
<path d="M193.262 68.8538H178.488L178.389 65.7882H170.256C170.364 66.4903 170.424 66.8365 170.532 67.5386H176.403C176.403 68.0627 176.452 68.3297 176.482 68.8538C176.65 71.4448 176.738 72.7402 176.906 75.3312C176.906 76.0234 176.976 76.3794 177.015 77.0815C177.183 79.6626 177.272 80.958 177.43 83.549C177.529 84.9335 177.569 85.6257 177.658 87.0102H193.884L194.448 85.2598H179.002V83.549H195.802C196.671 80.958 197.106 79.6626 197.966 77.0815L198.549 75.3312C199.419 72.7402 199.853 71.4448 200.713 68.8538H193.262ZM178.537 70.6042H183.775C183.666 72.493 183.617 73.4325 183.508 75.3312H178.685L178.537 70.6042ZM178.893 81.7986L178.745 77.0815H183.409C183.3 78.9703 183.241 79.9098 183.132 81.7986H178.893ZM188.943 81.7986H184.704C184.872 79.9098 184.961 78.9703 185.129 77.0815H189.793C189.457 78.9703 189.289 79.9098 188.943 81.7986ZM190.109 75.3411H185.287C185.465 73.4424 185.544 72.5029 185.712 70.6141H190.959C190.613 72.493 190.445 73.4325 190.109 75.3411ZM194.754 81.8085H190.515L191.503 77.0914H196.157C195.614 78.9703 195.327 79.9098 194.754 81.7986V81.8085ZM196.731 75.3411H191.888C192.293 73.4424 192.491 72.5029 192.876 70.6141H198.114C197.561 72.493 197.274 73.4325 196.711 75.3411H196.731Z" fill="white"/>
<path d="M178.527 88.6517C177.961 88.6609 177.419 88.8773 177.002 89.26C176.584 89.6427 176.322 90.1651 176.264 90.7284C176.236 90.9929 176.265 91.2604 176.348 91.5131C176.431 91.7658 176.566 91.998 176.746 92.1943C176.925 92.3906 177.144 92.5466 177.388 92.6519C177.632 92.7572 177.896 92.8094 178.162 92.8051C178.727 92.796 179.27 92.5796 179.687 92.1969C180.104 91.8142 180.367 91.2917 180.425 90.7284C180.453 90.4639 180.424 90.1965 180.341 89.9438C180.258 89.6911 180.123 89.4589 179.943 89.2626C179.764 89.0663 179.545 88.9103 179.301 88.805C179.057 88.6997 178.793 88.6475 178.527 88.6517Z" fill="white"/>
<path d="M193.282 88.6517C192.717 88.6611 192.175 88.8779 191.76 89.2608C191.344 89.6437 191.084 90.166 191.028 90.7284C191 90.9929 191.029 91.2604 191.112 91.5131C191.195 91.7658 191.33 91.998 191.51 92.1943C191.689 92.3906 191.908 92.5466 192.152 92.6519C192.396 92.7572 192.66 92.8094 192.926 92.8051C193.491 92.7958 194.032 92.579 194.448 92.1961C194.863 91.8132 195.123 91.2909 195.179 90.7284C195.207 90.4639 195.179 90.1965 195.096 89.9438C195.013 89.6911 194.877 89.4589 194.698 89.2626C194.518 89.0663 194.299 88.9103 194.055 88.805C193.811 88.6997 193.547 88.6475 193.282 88.6517Z" fill="white"/>
<path d="M224.599 189.244H189.388V224.478H224.599V189.244Z" fill="#4267B2"/>
<path d="M246.211 189.244H224.589V224.478H246.211V189.244Z" fill="#4267B2"/>
<path d="M217.869 180.403H182.658L189.388 189.244H224.589L217.869 180.403Z" fill="#4267B2"/>
<path opacity="0.3" d="M246.211 189.244H224.589V224.478H246.211V189.244Z" fill="white"/>
<path opacity="0.4" d="M217.869 180.403H182.658L189.388 189.244H224.589L217.869 180.403Z" fill="white"/>
<path d="M230.963 180.403H252.586L246.221 189.244H224.589L230.963 180.403Z" fill="#4267B2"/>
<path opacity="0.6" d="M224.599 189.244H189.388V224.478H224.599V189.244Z" fill="white"/>
<path opacity="0.2" d="M230.963 180.403H252.586L246.221 189.244H224.589L230.963 180.403Z" fill="white"/>
<path d="M323.669 223.608H234.926V312.412H323.669V223.608Z" fill="#4267B2"/>
<path opacity="0.4" d="M323.669 223.608H234.926V312.412H323.669V223.608Z" fill="white"/>
<path d="M234.906 223.608H180.395V312.412H234.906V223.608Z" fill="#4267B2"/>
<path opacity="0.6" d="M234.906 223.608H180.395V312.412H234.906V223.608Z" fill="white"/>
<path opacity="0.5" d="M197.234 223.608V247.46L199.399 248.598L201.267 247.045L204.221 248.598L207.028 247.045L209.202 248.598L211.692 247.045L213.106 248.321V223.608H197.234Z" fill="white"/>
<path opacity="0.5" d="M213.106 312.412V288.559L210.941 287.412L209.074 288.975L206.119 287.412L203.312 288.975L201.138 287.412L198.648 288.975L197.234 287.699V312.412H213.106Z" fill="white"/>
<path d="M271.145 259.822C271.649 261.849 271.896 262.868 272.4 264.895C272.528 265.439 272.597 265.716 272.736 266.269C273.24 268.297 273.487 269.315 273.991 271.343H287.154C287.085 271.877 287.055 272.144 286.996 272.678H274.87C274.999 273.231 275.058 273.508 275.187 274.052H287.945L288.36 271.343C288.666 269.315 288.824 268.297 289.131 266.269C289.219 265.716 289.259 265.439 289.338 264.895C289.644 262.868 289.803 261.849 290.109 259.822C290.178 259.406 290.208 259.199 290.267 258.783H294.862C294.991 258.239 295.06 257.963 295.198 257.419H288.824C288.706 258.408 288.646 258.853 288.538 259.822H271.145ZM287.945 264.895H284.17C284.17 263.411 284.229 262.67 284.278 261.186H288.379C288.162 262.67 288.083 263.411 287.945 264.895ZM283.992 269.968C283.992 268.485 284.061 267.743 284.1 266.269H287.757L287.312 269.968H283.992ZM279.051 266.269H282.697C282.697 267.743 282.697 268.485 282.697 269.968H279.367C279.278 268.485 279.209 267.743 279.051 266.269ZM278.586 261.186H282.687C282.687 262.67 282.687 263.411 282.687 264.895H278.952C278.813 263.411 278.744 262.67 278.616 261.186H278.586ZM274.04 266.269H277.697C277.875 267.743 277.973 268.485 278.161 269.968H274.831L274.04 266.269ZM272.953 261.186H277.074C277.252 262.67 277.351 263.411 277.529 264.895H273.754L272.953 261.186Z" fill="white"/>
<path d="M287.115 278.601C288.015 278.601 288.745 277.871 288.745 276.969C288.745 276.068 288.015 275.338 287.115 275.338C286.214 275.338 285.484 276.068 285.484 276.969C285.484 277.871 286.214 278.601 287.115 278.601Z" fill="white"/>
<path d="M275.542 278.601C276.443 278.601 277.173 277.871 277.173 276.969C277.173 276.068 276.443 275.338 275.542 275.338C274.642 275.338 273.912 276.068 273.912 276.969C273.912 277.871 274.642 278.601 275.542 278.601Z" fill="white"/>
<g opacity="0.5">
<path d="M195.634 259.822C196.138 261.849 196.385 262.868 196.889 264.895C197.017 265.439 197.086 265.716 197.225 266.269C197.729 268.297 197.976 269.315 198.48 271.343H211.643C211.574 271.877 211.544 272.144 211.485 272.678H199.379C199.507 273.231 199.567 273.508 199.695 274.052H212.414L212.829 271.343C213.135 269.315 213.293 268.297 213.6 266.269C213.679 265.716 213.728 265.439 213.807 264.895C214.114 262.868 214.272 261.849 214.578 259.822L214.736 258.783H219.341C219.47 258.239 219.539 257.963 219.677 257.419H213.303C213.185 258.408 213.125 258.853 213.017 259.822H195.634ZM212.434 264.895H208.659L208.767 261.186H212.839C212.671 262.67 212.582 263.411 212.414 264.895H212.434ZM208.481 269.968C208.53 268.485 208.55 267.743 208.589 266.269H212.246L211.801 269.968H208.481ZM203.589 266.269H207.235C207.235 267.743 207.235 268.485 207.235 269.968H203.945C203.787 268.485 203.717 267.743 203.589 266.269ZM203.115 261.186H207.226C207.226 262.67 207.226 263.411 207.226 264.895H203.451L203.115 261.186ZM198.579 266.269H202.235L202.69 269.968H199.369L198.579 266.269ZM197.491 261.186H201.603C201.78 262.67 201.879 263.411 202.057 264.895H198.282L197.491 261.186Z" fill="white"/>
<path d="M211.623 278.601C212.524 278.601 213.254 277.871 213.254 276.969C213.254 276.068 212.524 275.338 211.623 275.338C210.723 275.338 209.993 276.068 209.993 276.969C209.993 277.871 210.723 278.601 211.623 278.601Z" fill="white"/>
<path d="M200.051 278.601C200.952 278.601 201.682 277.871 201.682 276.969C201.682 276.068 200.952 275.338 200.051 275.338C199.15 275.338 198.42 276.068 198.42 276.969C198.42 277.871 199.15 278.601 200.051 278.601Z" fill="white"/>
</g>
<path d="M291.265 152.941C291.265 152.941 294.348 175.082 297.115 178.899C299.883 182.717 312.315 193.278 312.315 193.278L320.171 192.131L325.438 197.076L321.624 199.716L317.424 197.837C315.055 198.1 312.667 198.156 310.289 198.005C306.276 197.758 290.603 187.127 287.717 181.579C284.832 176.032 281.57 155.492 281.57 155.492L291.265 152.941Z" fill="#CE7A63"/>
<path d="M293.874 159.339L293.083 159.477C292.54 154.276 290.366 138.473 284.407 142.528C278.685 146.434 280.296 157.519 281.126 161.663L280.138 161.831L281.007 164.56L294.18 162.039L293.874 159.339Z" fill="#4267B2"/>
<path opacity="0.2" d="M288.933 148.886L287.48 145.761L282.924 150.35L280.306 154.305C280.378 156.781 280.663 159.246 281.155 161.673L280.167 161.841L281.037 164.57L288.468 163.146C289.297 158.439 289.453 153.638 288.933 148.886Z" fill="#1F1F1F"/>
<path d="M289.387 109.152C289.387 109.152 305.1 112.554 296.75 120.03L289.832 113.988L289.387 109.152Z" fill="#263238"/>
<path d="M311.198 275.18L301.197 299.695L294.259 296.995L299.853 272.628L311.198 275.18Z" fill="#CE7A63"/>
<path opacity="0.2" d="M300.347 270.898L296.404 288.075L304.952 289.983L311.692 273.439L300.347 270.898Z" fill="#1F1F1F"/>
<path d="M302.768 299.121C304.043 302.018 304.903 304.402 310.121 307.497C311.257 308.15 309.33 311.156 306.494 309.88C301.81 307.764 303.035 307.724 299.023 305.984C295.653 304.491 293.143 303.591 290.395 302.444C290.324 302.414 290.258 302.374 290.198 302.325C289.964 302.15 289.809 301.889 289.767 301.6C289.724 301.311 289.797 301.017 289.97 300.782L294.022 295.234C294.111 295.11 294.241 295.021 294.389 294.981C294.536 294.941 294.693 294.954 294.833 295.017L301.394 297.845C301.992 298.089 302.48 298.543 302.768 299.121Z" fill="#263238"/>
<path d="M333.581 217.566C332.307 233.388 309.597 285.692 309.597 285.692L296.117 281.934C296.117 281.934 306.415 231.687 313.135 223.371C313.135 223.371 310.941 223.371 307.413 223.44C295.129 223.549 266.658 223.529 258.446 221.343C252.586 219.781 240.341 216.646 243.622 197.026L258.802 196.502L276.481 195.889C276.481 195.889 335.38 195.988 333.581 217.566Z" fill="#263238"/>
<path opacity="0.2" d="M307.413 223.44C295.129 223.549 266.658 223.529 258.446 221.343C252.586 219.781 240.341 216.646 243.622 197.026L258.802 196.502C270.749 197.916 286.363 200.28 297.007 204.858C302.185 207.083 305.782 211.098 306.84 215.825C307.204 218.348 307.395 220.892 307.413 223.44Z" fill="#1F1F1F"/>
<path d="M287.757 274.309L282.756 299.299L275.236 298.953L276.125 273.963L287.757 274.309Z" fill="#CE7A63"/>
<path opacity="0.2" d="M287.757 274.309L276.125 273.963L275.611 288.906L284.772 289.232L287.757 274.309Z" fill="#1F1F1F"/>
<path d="M283.903 299.892C285.128 302.859 285.879 305.351 291.147 308.654C292.273 309.386 290.218 312.402 287.381 310.998C282.677 308.694 283.932 308.703 279.891 306.795C276.481 305.183 273.961 304.184 271.204 302.928L270.996 302.829C270.879 302.739 270.781 302.625 270.708 302.496C270.635 302.367 270.589 302.225 270.571 302.078C270.554 301.93 270.566 301.781 270.606 301.638C270.647 301.496 270.716 301.363 270.809 301.247L275.107 295.699C275.2 295.576 275.332 295.489 275.482 295.453C275.632 295.417 275.789 295.434 275.928 295.502L282.509 298.577C283.121 298.827 283.618 299.296 283.903 299.892Z" fill="#263238"/>
<path d="M234.748 196.977C234.748 196.977 230.449 212.433 237.555 218.535C247.486 227.069 283.369 224.468 283.369 224.468C277.173 244.316 274.406 283.743 274.406 283.743H287.856C287.856 283.743 306.178 229.809 303.47 215.865C300.762 201.921 252.694 196.987 252.694 196.987L234.748 196.977Z" fill="#263238"/>
<path d="M294.922 283.496L310.18 287.343L313.293 280.806L296.532 276.05L294.922 283.496Z" fill="#4267B2"/>
<path d="M273.072 285.662L288.636 286.463L290.247 279.61L273.072 278.809V285.662Z" fill="#4267B2"/>
<path d="M280.207 175.606C284.16 163.947 289.101 155.077 289.674 145.138C276.145 125.597 249.69 137.148 249.69 137.148C233.681 167.211 234.748 196.977 234.748 196.977C271.125 196.977 273.21 196.354 273.21 196.354C273.21 196.354 273.339 191.241 280.207 175.606Z" fill="#4267B2"/>
<path opacity="0.2" d="M267.992 136.574C268.575 140.016 269.791 146.226 271.234 147.126C273.21 148.332 276.175 146.641 276.175 146.641C276.175 146.641 278.576 149.895 281.116 147.729C282.542 146.363 283.655 144.703 284.377 142.864C283.63 144.138 282.686 145.286 281.58 146.266C279.011 148.421 276.639 145.178 276.639 145.178C276.639 145.178 273.675 146.859 271.698 145.662C270.394 144.881 268.872 139.966 267.992 136.574Z" fill="#1F1F1F"/>
<path d="M271.253 131.828L274.86 133.064L272.034 135.546L271.253 131.828Z" fill="#4267B2"/>
<path opacity="0.2" d="M271.253 131.828L274.86 133.064L272.034 135.546L271.253 131.828Z" fill="#1F1F1F"/>
<path d="M282.717 135.546L283.705 138.513C283.705 138.513 278.547 143.912 277.064 143.971C275.582 144.031 271.234 133.815 271.234 133.815C276.975 131.214 276.442 128.356 276.442 128.356L282.717 135.546Z" fill="#CE7A63"/>
<path opacity="0.2" d="M280.839 141.272C282.361 139.877 283.725 138.463 283.725 138.463L282.737 135.496L277.153 129.039C276.422 131.897 275.71 137.771 280.839 141.272Z" fill="#1F1F1F"/>
<path d="M285.662 140.609C284.733 142.785 283.36 144.742 281.63 146.355C279.051 148.51 276.689 145.277 276.689 145.277C276.689 145.277 273.724 146.948 271.747 145.751C269.771 144.555 267.192 133.578 267.192 133.578L271.253 131.828L276.847 143.694L284.387 137.454L285.662 140.609Z" fill="#4267B2"/>
<path d="M276.244 118.329C276.236 116.573 276.689 114.846 277.559 113.321C278.429 111.796 279.685 110.527 281.2 109.641C282.715 108.756 284.436 108.284 286.19 108.275C287.945 108.265 289.671 108.718 291.196 109.587C298.371 113.454 298.568 124.747 296.434 131.343C295.918 133.076 294.937 134.634 293.599 135.847C292.26 137.061 290.614 137.885 288.841 138.229C287.067 138.572 285.233 138.423 283.538 137.796C281.844 137.17 280.353 136.09 279.228 134.676C275.71 130.344 276.165 125.904 276.264 118.28L276.244 118.329Z" fill="#CE7A63"/>
<path d="M289.605 123.056C290.02 123.056 290.277 123.659 290.168 124.262C290.059 124.866 289.694 125.251 289.289 125.251C288.883 125.251 288.627 124.648 288.725 124.045C288.824 123.442 289.19 123.026 289.605 123.056Z" fill="#263238"/>
<path d="M296.453 124.342C296.878 124.342 297.135 124.925 297.036 125.538C296.938 126.151 296.552 126.527 296.137 126.527C295.722 126.527 295.485 125.934 295.574 125.321C295.663 124.707 296.038 124.292 296.453 124.342Z" fill="#263238"/>
<path d="M287.767 121.612C288.121 121.338 288.535 121.153 288.975 121.073C289.415 120.992 289.868 121.017 290.297 121.147C290.384 121.176 290.48 121.169 290.563 121.129C290.646 121.088 290.71 121.017 290.741 120.93C290.768 120.839 290.761 120.742 290.721 120.656C290.681 120.57 290.611 120.502 290.524 120.465C289.973 120.3 289.39 120.271 288.825 120.381C288.26 120.491 287.731 120.737 287.283 121.098C287.231 121.132 287.19 121.181 287.166 121.239C287.141 121.296 287.135 121.36 287.146 121.421C287.158 121.482 287.187 121.539 287.231 121.583C287.274 121.628 287.33 121.659 287.391 121.671C287.452 121.704 287.521 121.715 287.589 121.705C287.657 121.694 287.719 121.661 287.767 121.612Z" fill="#263238"/>
<path d="M298.183 123.54C298.263 123.49 298.32 123.409 298.342 123.317C298.364 123.225 298.349 123.128 298.301 123.046C298.021 122.54 297.625 122.107 297.146 121.782C296.667 121.457 296.118 121.25 295.544 121.177C295.468 121.179 295.395 121.207 295.336 121.255C295.277 121.303 295.235 121.37 295.218 121.444C295.206 121.49 295.204 121.538 295.211 121.585C295.218 121.632 295.235 121.677 295.26 121.718C295.284 121.759 295.317 121.794 295.356 121.821C295.395 121.849 295.438 121.869 295.485 121.879C295.948 121.95 296.389 122.127 296.773 122.396C297.157 122.665 297.474 123.02 297.698 123.432C297.725 123.484 297.764 123.528 297.813 123.561C297.861 123.594 297.917 123.614 297.975 123.62C298.05 123.614 298.123 123.586 298.183 123.54Z" fill="#263238"/>
<path d="M292.392 131.086C292.857 131.298 293.363 131.408 293.874 131.408C294.385 131.408 294.891 131.298 295.356 131.086C294.449 129.241 293.785 127.287 293.38 125.271L292.392 131.086Z" fill="#BA4D3C"/>
<path d="M275.77 123.264C272.805 112.485 277.598 109.676 282.776 107.738C287.955 105.8 290.83 107.659 292.481 109.478C292.995 110.052 294.022 111.773 290.702 112C288.691 112.078 286.678 111.922 284.703 111.535C284.308 111.466 283.902 111.507 283.529 111.654C283.156 111.8 282.831 112.047 282.588 112.366C281.442 113.869 279.624 116.677 279.624 119.13C279.693 120.063 279.557 120.999 279.226 121.874C278.895 122.749 278.376 123.54 277.707 124.193L275.77 123.264Z" fill="#263238"/>
<path d="M272.034 177.436C272.292 177.438 272.544 177.516 272.757 177.661C272.97 177.806 273.136 178.012 273.233 178.251C273.33 178.49 273.354 178.753 273.302 179.006C273.249 179.258 273.123 179.49 272.94 179.671C272.756 179.852 272.522 179.975 272.269 180.023C272.016 180.072 271.753 180.044 271.516 179.943C271.278 179.843 271.076 179.674 270.934 179.458C270.792 179.242 270.718 178.99 270.72 178.731C270.72 178.559 270.754 178.388 270.821 178.229C270.888 178.07 270.986 177.925 271.109 177.805C271.233 177.684 271.379 177.589 271.539 177.526C271.7 177.463 271.871 177.432 272.044 177.436H272.034Z" fill="#4267B2"/>
<path d="M269.168 191.241C269.339 191.241 269.509 191.275 269.667 191.34C269.826 191.406 269.969 191.502 270.091 191.623C270.212 191.745 270.308 191.889 270.373 192.047C270.439 192.205 270.473 192.375 270.473 192.546C270.473 192.718 270.439 192.888 270.373 193.046C270.308 193.204 270.212 193.348 270.091 193.469C269.969 193.591 269.826 193.687 269.667 193.752C269.509 193.818 269.339 193.852 269.168 193.852C268.821 193.849 268.49 193.709 268.245 193.463C268.001 193.217 267.864 192.884 267.864 192.537C267.864 192.366 267.897 192.196 267.963 192.039C268.029 191.881 268.125 191.737 268.246 191.617C268.368 191.497 268.511 191.401 268.67 191.337C268.828 191.272 268.997 191.24 269.168 191.241Z" fill="#4267B2"/>
<path d="M275.849 120.831C277.944 121.207 278.952 124.163 278.971 126.102C278.991 128.04 277.489 129.751 275.641 128.515C274.238 127.545 273.251 126.084 272.874 124.421C272.469 122.334 273.763 120.416 275.849 120.831Z" fill="#CE7A63"/>
<path d="M285.415 130.977C287.685 131.619 289.889 132.476 291.996 133.538C291.347 134.235 290.477 134.686 289.534 134.815C288.59 134.945 287.631 134.745 286.818 134.25C286.503 134.139 286.214 133.963 285.97 133.734C285.726 133.506 285.532 133.229 285.4 132.921C285.268 132.614 285.201 132.282 285.204 131.948C285.206 131.613 285.278 131.283 285.415 130.977Z" fill="#263238"/>
<path d="M288.449 133.687C287.541 133.202 286.503 133.018 285.484 133.163C285.796 133.664 286.255 134.058 286.798 134.29C287.705 134.777 288.744 134.96 289.763 134.814C289.458 134.306 288.997 133.91 288.449 133.687Z" fill="#A02724"/>
<path d="M285.652 131.036C285.617 131.231 285.638 131.431 285.711 131.615C285.785 131.799 285.908 131.958 286.067 132.075C287.465 132.722 288.917 133.248 290.405 133.647C290.634 133.733 290.881 133.76 291.122 133.726C291.364 133.691 291.594 133.596 291.789 133.449C289.809 132.487 287.757 131.68 285.652 131.036Z" fill="white"/>
<path d="M293.22 203.583L311.107 203.679L311.122 200.802L293.235 200.705L293.22 203.583Z" fill="#263238"/>
<path d="M294.691 203.594L271.962 203.471C271.786 203.47 271.611 203.434 271.448 203.366C271.286 203.298 271.138 203.198 271.014 203.072C270.89 202.947 270.791 202.798 270.725 202.634C270.658 202.471 270.624 202.296 270.625 202.119L270.634 200.596L294.707 200.726L294.691 203.604L294.691 203.594Z" fill="#263238"/>
<path opacity="0.3" d="M294.691 203.594L271.962 203.471C271.786 203.47 271.611 203.434 271.448 203.366C271.286 203.298 271.138 203.198 271.014 203.072C270.89 202.947 270.791 202.798 270.725 202.634C270.658 202.471 270.624 202.296 270.625 202.119L270.634 200.596L294.707 200.726L294.691 203.604L294.691 203.594Z" fill="white"/>
<path d="M288.214 202.633L291.09 202.648L291.095 201.63L288.219 201.614L288.214 202.633Z" fill="#263238"/>
<path d="M283.727 202.627L286.603 202.643L286.608 201.624L283.732 201.609L283.727 202.627Z" fill="#263238"/>
<path d="M298.104 200.754L296.196 200.744L303.806 174.815L305.713 174.825L298.104 200.754Z" fill="#263238"/>
<path opacity="0.3" d="M298.104 200.754L296.196 200.744L303.806 174.815L305.713 174.825L298.104 200.754Z" fill="white"/>
<path d="M297.402 200.754L330.972 200.932L338.582 174.993L305.011 174.815L297.402 200.754Z" fill="#263238"/>
<path opacity="0.6" d="M297.402 200.754L330.972 200.932L338.582 174.993L305.011 174.815L297.402 200.754Z" fill="white"/>
<path d="M295.762 200.745L330.706 200.932C331.289 200.932 331.763 201.585 331.763 202.376C331.763 203.167 331.279 203.81 330.686 203.81L295.742 203.622C295.159 203.622 294.684 202.97 294.684 202.178C294.684 201.387 295.169 200.745 295.762 200.745Z" fill="#263238"/>
<path opacity="0.5" d="M295.762 200.745L330.706 200.932C331.289 200.932 331.763 201.585 331.763 202.376C331.763 203.167 331.279 203.81 330.686 203.81L295.742 203.622C295.159 203.622 294.684 202.97 294.684 202.178C294.684 201.387 295.169 200.745 295.762 200.745Z" fill="white"/>
<path d="M294.684 202.178C294.684 202.97 295.159 203.612 295.742 203.622C296.325 203.632 296.809 202.979 296.819 202.188C296.829 201.397 296.345 200.745 295.762 200.745C295.179 200.745 294.694 201.387 294.684 202.178Z" fill="#263238"/>
<path opacity="0.3" d="M294.684 202.178C294.684 202.97 295.159 203.612 295.742 203.622C296.325 203.632 296.809 202.979 296.819 202.188C296.829 201.397 296.345 200.745 295.762 200.745C295.179 200.745 294.694 201.387 294.684 202.178Z" fill="white"/>
<path opacity="0.2" d="M261.687 176.734C260.076 174.519 258.367 166.311 257.171 159.527L258.723 159.23L258.357 156.422L257.546 156.57C256.983 151.269 254.789 135.328 248.85 138.77C247.121 142.132 245.599 145.514 244.275 148.856C244.157 152.198 244.442 155.542 245.124 158.815L244.136 158.993L245.045 161.831L247.15 161.435C248.405 167.982 250.234 176.269 251.933 179.552C254.167 183.864 263.792 191.063 270.235 194.564C277.479 193.278 279.13 192.368 279.13 192.368C278.922 192.096 278.753 191.796 278.626 191.478L277.459 191.646C277.459 191.646 264.563 180.699 261.687 176.734Z" fill="#1F1F1F"/>
<path d="M259.918 149.885C259.918 149.885 262.033 172.996 264.721 177.09C267.409 181.184 279.792 192.754 279.792 192.754L287.994 191.943L293.212 197.372L289.131 199.943L284.861 197.778C282.391 197.941 279.91 197.885 277.45 197.61C273.309 197.155 257.566 185.407 254.839 179.473C252.111 173.54 249.73 152.11 249.73 152.11L259.918 149.885Z" fill="#CE7A63"/>
<path d="M261.756 154.869L260.936 155.017C260.373 149.618 258.11 133.202 251.933 137.415C246.004 141.469 247.654 152.98 248.524 157.282L247.536 157.46L248.445 160.298L262.122 157.678L261.756 154.869Z" fill="#4267B2"/>
<path d="M61.8562 234.12L59.4943 233.991L60.0477 223.272C60.2742 219.718 61.8336 216.382 64.4137 213.93C66.9939 211.479 70.4043 210.093 73.9621 210.05C75.6872 210.033 77.3973 210.372 78.9857 211.046C80.574 211.72 82.0064 212.715 83.1934 213.967C84.3805 215.22 85.2966 216.704 85.8847 218.327C86.4728 219.95 86.7202 221.677 86.6115 223.4L86.0482 234.12L83.6863 233.991L84.2496 223.272C84.3438 221.868 84.1467 220.46 83.6707 219.137C83.1948 217.813 82.4503 216.602 81.484 215.581C80.5177 214.559 79.3507 213.748 78.0561 213.2C76.7616 212.651 75.3677 212.377 73.9621 212.394C71.008 212.43 68.1769 213.583 66.0363 215.621C63.8956 217.658 62.6037 220.43 62.4195 223.381L61.8562 234.12Z" fill="#263238"/>
<path d="M112.523 229.354H42.6844L40.3126 312.273L50.6694 309.9L61.0261 312.273H114.895L112.523 229.354Z" fill="#D2832D"/>
<path opacity="0.6" d="M112.523 229.354H42.6844L40.3126 312.273L50.6694 309.9L61.0261 312.273H114.895L112.523 229.354Z" fill="white"/>
<path d="M61.0261 312.273L50.6694 309.9L40.3126 312.273L42.6844 229.354H58.6642L61.0261 312.273Z" fill="#D2832D"/>
<path opacity="0.3" d="M61.0261 312.273L50.6694 309.9L40.3126 312.273L42.6844 229.354H58.6642L61.0261 312.273Z" fill="white"/>
<path d="M97.739 234.12L97.2152 223.4C97.0308 220.448 95.7375 217.675 93.5948 215.637C91.4521 213.599 88.6186 212.448 85.6628 212.414C84.2579 212.398 82.8651 212.674 81.5718 213.223C80.2784 213.772 79.1125 214.582 78.1473 215.604C77.1821 216.626 76.4385 217.836 75.9632 219.159C75.4878 220.482 75.291 221.889 75.3851 223.292L75.9484 234.011L73.5865 234.14L73.0232 223.42C72.9131 221.698 73.1591 219.971 73.7461 218.348C74.3331 216.725 75.2483 215.241 76.4345 213.988C77.6208 212.735 79.0526 211.74 80.6405 211.066C82.2283 210.392 83.938 210.053 85.6628 210.07C89.2212 210.11 92.6329 211.495 95.2135 213.947C97.7942 216.4 99.3529 219.737 99.5771 223.292L100.14 234.011L97.739 234.12Z" fill="#263238"/>
<g opacity="0.2">
<path d="M97.739 234.12L97.2152 223.4C97.0308 220.448 95.7375 217.675 93.5948 215.637C91.4521 213.599 88.6186 212.448 85.6628 212.414C84.2579 212.398 82.8651 212.674 81.5718 213.223C80.2784 213.772 79.1125 214.582 78.1473 215.604C77.1821 216.626 76.4385 217.836 75.9632 219.159C75.4878 220.482 75.291 221.889 75.3851 223.292L75.9484 234.011L73.5865 234.14L73.0232 223.42C72.9131 221.698 73.1591 219.971 73.7461 218.348C74.3331 216.725 75.2483 215.241 76.4345 213.988C77.6208 212.735 79.0526 211.74 80.6405 211.066C82.2283 210.392 83.938 210.053 85.6628 210.07C89.2212 210.11 92.6329 211.495 95.2135 213.947C97.7942 216.4 99.3529 219.737 99.5771 223.292L100.14 234.011L97.739 234.12Z" fill="white"/>
</g>
<path d="M103.085 259.634H70.612C69.8806 259.634 69.2877 260.227 69.2877 260.959V266.21C69.2877 266.942 69.8806 267.535 70.612 267.535H103.085C103.817 267.535 104.41 266.942 104.41 266.21V260.959C104.41 260.227 103.817 259.634 103.085 259.634Z" fill="white"/>
<path d="M29.7583 259.881L28.1672 259.792L28.5428 252.613C28.685 250.224 29.7265 247.977 31.4575 246.326C33.1884 244.675 35.4803 243.741 37.8717 243.712C39.0239 243.701 40.1661 243.927 41.2275 244.375C42.2889 244.824 43.2468 245.486 44.0419 246.321C44.8369 247.155 45.4521 248.144 45.8493 249.227C46.2465 250.309 46.4172 251.462 46.3508 252.613L45.9752 259.802L44.3941 259.713L44.7696 252.533C44.8296 251.592 44.6945 250.649 44.3728 249.762C44.0511 248.876 43.5497 248.065 42.9002 247.382C42.2506 246.698 41.4668 246.156 40.5981 245.791C39.7294 245.425 38.7944 245.242 37.8519 245.255C35.8726 245.279 33.9752 246.05 32.5402 247.414C31.1052 248.779 30.2386 250.636 30.1141 252.613L29.7583 259.881Z" fill="#263238"/>
<path d="M63.7239 256.687H16.9014L15.3202 312.273L22.2576 310.681L29.2049 312.273H65.315L63.7239 256.687Z" fill="#D2832D"/>
<path d="M29.2049 312.273L22.2576 310.681L15.3202 312.273L16.9014 256.687H27.6138L29.2049 312.273Z" fill="#D2832D"/>
<path opacity="0.2" d="M29.2049 312.273L22.2576 310.681L15.3202 312.273L16.9014 256.687H27.6138L29.2049 312.273Z" fill="#1F1F1F"/>
<path d="M53.8119 259.881L53.4364 252.692C53.2983 250.718 52.4261 248.868 50.9919 247.506C49.5577 246.144 47.6656 245.369 45.6886 245.334C44.7453 245.318 43.809 245.499 42.9389 245.864C42.0688 246.229 41.2838 246.77 40.6336 247.454C39.9834 248.138 39.4822 248.95 39.1616 249.838C38.841 250.726 38.708 251.671 38.771 252.613L39.1465 259.792L37.5654 259.881L37.1799 252.692C37.115 251.541 37.2867 250.389 37.6844 249.307C38.0821 248.226 38.6974 247.237 39.4921 246.403C40.2869 245.569 41.2443 244.907 42.305 244.457C43.3657 244.008 44.5072 243.782 45.659 243.792C48.0504 243.82 50.3423 244.754 52.0732 246.405C53.8042 248.056 54.8457 250.303 54.9879 252.692L55.3635 259.871L53.8119 259.881Z" fill="#263238"/>
<g opacity="0.2">
<path d="M53.8119 259.881L53.4364 252.692C53.2983 250.718 52.4261 248.868 50.9919 247.506C49.5577 246.144 47.6656 245.369 45.6886 245.334C44.7453 245.318 43.809 245.499 42.9389 245.864C42.0688 246.229 41.2838 246.77 40.6336 247.454C39.9834 248.138 39.4822 248.95 39.1616 249.838C38.841 250.726 38.708 251.671 38.771 252.613L39.1465 259.792L37.5654 259.881L37.1799 252.692C37.115 251.541 37.2867 250.389 37.6844 249.307C38.0821 248.226 38.6974 247.237 39.4921 246.403C40.2869 245.569 41.2443 244.907 42.305 244.457C43.3657 244.008 44.5072 243.782 45.659 243.792C48.0504 243.82 50.3423 244.754 52.0732 246.405C53.8042 248.056 54.8457 250.303 54.9879 252.692L55.3635 259.871L53.8119 259.881Z" fill="white"/>
</g>
<path d="M56.9545 276.989H36.0632C35.3319 276.989 34.739 277.582 34.739 278.314V280.955C34.739 281.687 35.3319 282.28 36.0632 282.28H56.9545C57.6859 282.28 58.2788 281.687 58.2788 280.955V278.314C58.2788 277.582 57.6859 276.989 56.9545 276.989Z" fill="white"/>
<path d="M101.84 306.844L94.3197 306.063L94.6952 288.48L102.216 289.261L101.84 306.844Z" fill="#B55B52"/>
<path d="M165.463 281.627L158.733 285.059L148.613 270.541L155.353 267.11L165.463 281.627Z" fill="#B55B52"/>
<path d="M157.33 284.119L164.247 279.175C164.365 279.089 164.51 279.048 164.656 279.061C164.801 279.073 164.937 279.139 165.038 279.244L169.722 284.188C169.836 284.316 169.922 284.466 169.974 284.628C170.026 284.791 170.043 284.963 170.025 285.132C170.006 285.302 169.952 285.466 169.866 285.614C169.779 285.761 169.663 285.889 169.524 285.988C167.083 287.669 165.819 288.352 162.775 290.527C160.907 291.862 158.308 294.008 155.729 295.848C153.149 297.687 151.183 295.235 152.092 294.236C156.173 289.756 155.916 287.778 156.569 285.256C156.679 284.799 156.949 284.396 157.33 284.119Z" fill="#263238"/>
<path d="M93.6773 305.114L102.127 305.994C102.272 306.006 102.408 306.071 102.508 306.177C102.608 306.283 102.666 306.422 102.67 306.567L102.937 313.361C102.938 313.532 102.903 313.702 102.834 313.858C102.765 314.015 102.664 314.155 102.537 314.27C102.41 314.385 102.26 314.472 102.098 314.525C101.935 314.578 101.763 314.596 101.593 314.578C98.6284 314.212 97.2547 313.895 93.539 313.51C91.2463 313.262 84.6449 312.817 81.5023 312.521C78.3597 312.224 78.5376 309.05 79.8519 308.901C85.8703 308.249 90.2185 306.923 92.3729 305.47C92.7524 305.201 93.2142 305.075 93.6773 305.114Z" fill="#263238"/>
<g opacity="0.2">
<path d="M94.6952 288.48L94.4976 297.549L102.028 298.33L102.216 289.271L94.6952 288.48Z" fill="#1F1F1F"/>
<path d="M155.353 267.12L148.613 270.551L153.831 278.028L160.571 274.596L155.353 267.12Z" fill="#1F1F1F"/>
</g>
<path d="M98.2924 136.584C98.2924 136.584 90.4952 194.663 90.2976 217.744C90.0604 241.754 93.1042 295.65 93.1042 295.65L103.273 296.708C103.273 296.708 107.404 243.703 109.044 220.176C110.843 194.514 120.804 137.306 120.804 137.306L98.2924 136.584Z" fill="#263238"/>
<path d="M104.083 297.153L92.1456 295.907L91.6712 292.011L105.082 292.94L104.083 297.153Z" fill="#4267B2"/>
<path opacity="0.6" d="M111.051 151.487C103.026 166.429 108.185 194.307 110.527 204.69C112.375 189.263 115.28 170.425 117.514 156.6C116.644 148.708 114.776 144.614 111.051 151.487Z" fill="#1F1F1F"/>
<path d="M106.396 136.841C106.396 136.841 111.446 197.629 116.081 217.239C121.585 240.528 151.41 277.296 151.41 277.296L160.601 272.618C160.601 272.618 140.391 231.757 136.013 219.435C126.655 193.16 136.586 154.75 128.987 137.553L106.396 136.841Z" fill="#263238"/>
<path d="M161.905 272.559L150.501 278.364L147.467 275.397L160.571 267.96L161.905 272.559Z" fill="#4267B2"/>
<path d="M154.671 287.224H154.582C154.409 287.203 154.245 287.135 154.106 287.029C153.967 286.924 153.858 286.783 153.792 286.621C153.737 286.528 153.708 286.422 153.708 286.315C153.708 286.207 153.737 286.101 153.792 286.008C154.276 285.167 157.003 285.019 157.31 285.019C157.345 285.018 157.381 285.028 157.411 285.048C157.44 285.067 157.464 285.095 157.478 285.128C157.499 285.154 157.511 285.188 157.511 285.222C157.511 285.256 157.499 285.289 157.478 285.316C156.816 286.057 155.62 287.254 154.671 287.224ZM156.895 285.405C155.808 285.484 154.355 285.741 154.098 286.176C154.074 286.218 154.061 286.266 154.061 286.315C154.061 286.363 154.074 286.411 154.098 286.453C154.142 286.561 154.214 286.655 154.306 286.726C154.398 286.797 154.507 286.843 154.622 286.858C155.136 286.967 155.976 286.384 156.895 285.405Z" fill="#4267B2"/>
<path d="M157.063 285.385C156.124 285.385 154.414 284.861 154.098 284.139C154.04 284.009 154.029 283.863 154.067 283.726C154.105 283.589 154.189 283.469 154.306 283.387C154.404 283.292 154.523 283.221 154.653 283.178C154.783 283.135 154.921 283.122 155.057 283.14C156.154 283.259 157.418 285.019 157.478 285.118C157.492 285.145 157.5 285.176 157.5 285.207C157.5 285.238 157.492 285.269 157.478 285.296C157.464 285.324 157.443 285.348 157.417 285.365C157.391 285.383 157.361 285.393 157.33 285.395C157.241 285.401 157.151 285.398 157.063 285.385ZM154.958 283.496C154.881 283.49 154.803 283.5 154.73 283.525C154.656 283.551 154.589 283.591 154.533 283.645C154.365 283.803 154.385 283.912 154.414 283.991C154.632 284.475 156.045 284.98 156.964 285.029C156.509 284.465 155.659 283.565 154.987 283.496H154.958Z" fill="#4267B2"/>
<path d="M90.7225 306.132C90.0725 306.124 89.4447 305.894 88.9437 305.48C88.8334 305.361 88.754 305.216 88.7127 305.059C88.6713 304.902 88.6692 304.738 88.7065 304.58C88.7237 304.482 88.7653 304.389 88.8275 304.312C88.8897 304.234 88.9704 304.173 89.0623 304.135C90.0505 303.729 92.8768 305.569 93.1931 305.786C93.225 305.805 93.25 305.833 93.2643 305.867C93.2786 305.901 93.2814 305.938 93.2721 305.974C93.2639 306.011 93.2441 306.044 93.2157 306.069C93.1873 306.094 93.1517 306.109 93.114 306.113C92.3192 306.194 91.5185 306.201 90.7225 306.132ZM89.5366 304.431C89.4257 304.41 89.3116 304.41 89.2006 304.431C89.1633 304.448 89.131 304.474 89.1068 304.507C89.0825 304.54 89.0672 304.579 89.0623 304.619C89.0347 304.721 89.0339 304.828 89.0599 304.93C89.0859 305.033 89.1377 305.126 89.2105 305.203C89.6256 305.668 90.851 305.865 92.5507 305.766C91.6267 305.158 90.6082 304.707 89.5366 304.431Z" fill="#4267B2"/>
<path d="M93.0745 306.113C93.0745 306.113 93.0251 306.113 93.0053 306.113C92.1555 305.618 90.5446 303.808 90.7719 302.968C90.8312 302.77 90.9992 302.533 91.4933 302.533C91.678 302.529 91.8614 302.563 92.0317 302.635C92.202 302.707 92.3553 302.813 92.4816 302.948C93.3413 303.838 93.3117 305.915 93.3018 305.964C93.303 305.995 93.2952 306.025 93.2794 306.052C93.2636 306.078 93.2405 306.099 93.2129 306.113C93.1683 306.129 93.1191 306.129 93.0745 306.113ZM91.6021 302.869H91.4933C91.1672 302.869 91.1376 302.988 91.1178 303.037C90.9893 303.541 92.0566 304.936 92.9164 305.588C92.9282 304.726 92.6765 303.881 92.195 303.166C92.0374 303.001 91.8279 302.897 91.6021 302.869Z" fill="#4267B2"/>
<path d="M95.051 105.711C92.2523 109.451 89.1163 112.927 85.6825 116.094C83.866 117.8 81.8791 119.314 79.7531 120.613C78.5005 121.382 77.1512 121.981 75.7409 122.393C74.8482 122.651 73.9227 122.778 72.9936 122.769C72.4385 122.763 71.8855 122.7 71.3432 122.581C71.0665 122.512 70.77 122.423 70.4933 122.324C70.1684 122.21 69.8542 122.068 69.5545 121.899C68.8558 121.522 68.2459 120.999 67.7658 120.366C67.3977 119.899 67.0951 119.383 66.8665 118.833C66.5281 118.037 66.2987 117.199 66.1846 116.341C66.011 115.014 65.9614 113.673 66.0364 112.336C66.201 109.972 66.5313 107.623 67.0246 105.305C67.9298 100.835 69.1652 96.4392 70.7206 92.1526L74.8119 93.2107C74.2289 97.5125 73.6853 101.903 73.3592 106.156C73.1801 108.217 73.1273 110.288 73.2011 112.356C73.2204 113.238 73.3297 114.116 73.5272 114.977C73.5753 115.215 73.6586 115.445 73.7743 115.659C73.8336 115.758 73.7743 115.451 73.2011 115.085C72.9936 114.986 73.0627 114.996 73.0133 114.986C73.1853 114.947 73.3538 114.894 73.5173 114.828C74.2142 114.544 74.8771 114.182 75.4938 113.75C77.0774 112.619 78.5678 111.362 79.9507 109.992C81.4232 108.559 82.8364 107.026 84.2298 105.414C85.6232 103.802 87.0166 102.16 88.2915 100.588L95.051 105.711Z" fill="#B55B52"/>
<path d="M93.4006 94.8226C90.3074 93.9721 81.1267 105.701 81.1267 105.701L89.9023 115.501C89.9023 115.501 100.19 106.205 99.7846 102.042C99.3992 97.6904 97.9267 96.1081 93.4006 94.8226Z" fill="#4267B2"/>
<path d="M74.9206 92.1526L74.5747 85.9917L68.6453 90.8769C68.6453 90.8769 69.5446 95.6533 72.539 96.6027L74.387 94.0018C74.7653 93.4619 74.9531 92.8112 74.9206 92.1526Z" fill="#B55B52"/>
<path d="M70.7107 80.9087L65.9672 85.2797L68.6355 90.8571L74.5747 85.9719L70.7107 80.9087Z" fill="#B55B52"/>
<path d="M68.2994 92.825L66.9258 92.3305C66.5548 92.1909 66.2446 91.9253 66.0495 91.58C65.8544 91.2347 65.7868 90.8318 65.8585 90.4417L67.9437 79.3462L71.6891 80.7109L70.5329 91.4306C70.5081 91.684 70.4254 91.9283 70.2913 92.1446C70.1572 92.3609 69.9752 92.5435 69.7593 92.6782C69.5435 92.813 69.2996 92.8963 69.0465 92.9218C68.7933 92.9472 68.5378 92.9141 68.2994 92.825Z" fill="#263238"/>
<path d="M78.1719 78.733C78.4091 78.0902 78.6364 77.4574 78.8439 76.8245C78.0001 75.4636 76.8705 74.3027 75.5333 73.4226C75.0392 74.639 74.5451 75.9147 74.0609 77.2299C73.5766 78.5452 73.1418 79.8406 72.7465 81.0965C74.3369 81.2808 75.9483 81.1189 77.4703 80.6219C77.7075 79.9988 77.9446 79.3758 78.1719 78.733Z" fill="#263238"/>
<path d="M75.6915 77.8332C76.2755 76.2927 76.6962 74.6951 76.9465 73.0667L64.6628 68.5869L61.3225 77.7739L73.6162 82.2635C74.4593 80.8626 75.1548 79.3779 75.6915 77.8332Z" fill="#4267B2"/>
<path opacity="0.6" d="M75.6915 77.8332C76.2755 76.2927 76.6962 74.6951 76.9465 73.0667L64.6628 68.5869L61.3225 77.7739L73.6162 82.2635C74.4593 80.8626 75.1548 79.3779 75.6915 77.8332Z" fill="white"/>
<path d="M67.8547 68.8934C67.3013 68.6857 54.0195 55.0487 52.5371 54.4653C51.0548 53.8818 47.4675 59.301 44.819 66.5794C42.1705 73.8577 41.3404 80.2263 42.9512 80.8196C44.562 81.413 63.3879 79.4253 63.9512 79.6231C64.5145 79.8208 66.0166 77.6452 67.0938 74.6785C68.171 71.7118 68.5564 69.1308 67.8547 68.8934Z" fill="#4267B2"/>
<path opacity="0.4" d="M67.8547 68.8934C67.3013 68.6857 54.0195 55.0487 52.5371 54.4653C51.0548 53.8818 47.4675 59.301 44.819 66.5794C42.1705 73.8577 41.3404 80.2263 42.9512 80.8196C44.562 81.413 63.3879 79.4253 63.9512 79.6231C64.5145 79.8208 66.0166 77.6452 67.0938 74.6785C68.171 71.7118 68.5564 69.1308 67.8547 68.8934Z" fill="white"/>
<path d="M50.6693 68.7056C48.0209 75.9839 44.562 81.4031 42.9512 80.8197C41.3404 80.2362 42.1705 73.8973 44.819 66.5794C47.4675 59.2615 50.9263 53.8818 52.5371 54.4653C54.1479 55.0488 53.3178 61.4371 50.6693 68.7056Z" fill="#4267B2"/>
<path d="M46.8152 67.2815C46.6373 67.7661 46.4693 68.2704 46.3112 68.7155C47.2232 69.8598 48.339 70.8254 49.602 71.5635C49.9776 70.6537 50.3531 69.6945 50.7187 68.7056C51.0844 67.7166 51.4006 66.7278 51.707 65.7982C50.2657 65.5528 48.7915 65.5763 47.3587 65.8674C47.1117 66.3322 46.9338 66.8069 46.8152 67.2815Z" fill="#263238"/>
<path opacity="0.7" d="M46.8152 67.2815C46.6373 67.7661 46.4693 68.2704 46.3112 68.7155C47.2232 69.8598 48.339 70.8254 49.602 71.5635C49.9776 70.6537 50.3531 69.6945 50.7187 68.7056C51.0844 67.7166 51.4006 66.7278 51.707 65.7982C50.2657 65.5528 48.7915 65.5763 47.3587 65.8674C47.1117 66.3322 46.9338 66.8069 46.8152 67.2815Z" fill="white"/>
<path opacity="0.2" d="M90.8115 101.715C91.266 108.292 89.7343 112.208 88.6472 114.096L89.9023 115.491C89.9023 115.491 95.7032 110.25 98.4307 105.879C95.3672 101.33 90.2976 94.8029 90.8115 101.715Z" fill="#1F1F1F"/>
<path d="M125.36 64.3148C129.481 64.3148 132.821 60.9721 132.821 56.8486C132.821 52.7251 129.481 49.3823 125.36 49.3823C121.239 49.3823 117.899 52.7251 117.899 56.8486C117.899 60.9721 121.239 64.3148 125.36 64.3148Z" fill="#263238"/>
<path d="M124.56 60.2504C124.562 61.1799 124.288 62.089 123.773 62.8628C123.259 63.6366 122.526 64.2401 121.669 64.5972C120.811 64.9542 119.867 65.0487 118.956 64.8685C118.045 64.6884 117.207 64.2418 116.55 63.5853C115.892 62.9288 115.444 62.0918 115.262 61.1803C115.08 60.2689 115.173 59.3239 115.528 58.465C115.883 57.6061 116.484 56.8719 117.257 56.3553C118.029 55.8387 118.937 55.563 119.866 55.563C121.109 55.563 122.301 56.0565 123.181 56.9353C124.061 57.8141 124.557 59.0063 124.56 60.2504Z" fill="#4267B2"/>
<path d="M104.963 54.4257C104.963 54.4257 95.0806 53.6148 95.0806 70.624C95.0806 82.2733 100.733 87.6629 107.661 83.7468C107.661 83.7468 122.939 82.4909 124.698 68.4979C126.457 54.5048 115.646 49.2933 104.963 54.4257Z" fill="#263238"/>
<path d="M91.3847 95.2775C91.3847 95.2775 87.8764 96.8004 98.3023 140.56L128.938 138.335C127.515 125.894 126.961 118.21 131.043 92.1724C126.689 91.5986 122.3 91.3408 117.909 91.401C113.253 91.4011 108.603 91.7315 103.995 92.3899C98.0552 93.3986 91.3847 95.2775 91.3847 95.2775Z" fill="#4267B2"/>
<path d="M115.379 75.8257C114.826 80.3747 114.549 88.6815 117.899 91.401C117.899 91.401 117.01 96.029 108.689 96.6422C99.5475 97.3047 103.985 92.4096 103.985 92.4096C108.926 90.8571 108.491 87.1586 107.374 83.7468L115.379 75.8257Z" fill="#B55B52"/>
<path opacity="0.2" d="M112.118 79.0594L107.374 83.7469C107.648 84.5387 107.853 85.3526 107.987 86.1796C109.874 85.7643 112.335 83.4799 112.395 81.4724C112.45 80.6579 112.356 79.8401 112.118 79.0594Z" fill="#1F1F1F"/>
<path d="M120.498 68.2705C118.788 75.5785 118.215 78.7134 113.837 81.868C107.256 86.6147 98.658 82.9063 98.154 75.2324C97.6994 68.31 100.575 57.531 108.313 55.8201C110.015 55.4373 111.787 55.4961 113.46 55.9909C115.133 56.4858 116.652 57.4002 117.873 58.6475C119.093 59.8948 119.975 61.4335 120.435 63.1177C120.894 64.8018 120.916 66.5756 120.498 68.2705Z" fill="#B55B52"/>
<path d="M107.898 68.221C107.799 68.8242 107.394 69.2099 107.009 69.2099C106.623 69.2099 106.376 68.5968 106.475 67.9935C106.574 67.3903 106.989 67.0046 107.374 67.0046C107.76 67.0046 108.007 67.6178 107.898 68.221Z" fill="#263238"/>
<path d="M101.109 67.064C101 67.6574 100.605 68.0529 100.21 68.0529C99.8143 68.0529 99.5771 67.4497 99.6858 66.8465C99.7945 66.2432 100.19 65.8575 100.585 65.8575C100.98 65.8575 101.168 66.441 101.109 67.064Z" fill="#263238"/>
<path d="M100.753 65.9168L99.3795 65.2444C99.3795 65.2444 99.923 66.5003 100.753 65.9168Z" fill="#263238"/>
<path d="M103.5 68.4979C102.732 69.781 101.791 70.9522 100.704 71.9789C100.974 72.2484 101.3 72.4561 101.658 72.5875C102.016 72.719 102.399 72.7711 102.779 72.7403L103.5 68.4979Z" fill="#A02724"/>
<path d="M121.348 75.3905C120.61 76.6429 119.411 77.5555 118.008 77.932C116.15 78.4067 115.26 76.7256 115.814 74.9653C116.308 73.4028 117.879 71.2767 119.767 71.5635C120.171 71.6395 120.549 71.8151 120.868 72.0744C121.187 72.3337 121.436 72.6685 121.593 73.0485C121.75 73.4285 121.81 73.8417 121.767 74.2506C121.724 74.6595 121.58 75.0513 121.348 75.3905Z" fill="#B55B52"/>
<path d="M110.863 67.3014C110.787 67.3001 110.713 67.2745 110.652 67.2282C110.592 67.1819 110.548 67.1174 110.527 67.0443C110.043 65.462 108.017 64.7895 107.997 64.7797C107.952 64.7647 107.911 64.7411 107.875 64.7102C107.839 64.6792 107.81 64.6416 107.789 64.5993C107.768 64.5571 107.755 64.5111 107.752 64.464C107.749 64.4169 107.755 64.3696 107.77 64.3248C107.784 64.28 107.808 64.2385 107.839 64.2028C107.87 64.1672 107.908 64.1379 107.95 64.1168C107.992 64.0957 108.038 64.0831 108.085 64.0798C108.132 64.0764 108.179 64.0824 108.224 64.0973C108.883 64.3195 109.488 64.6783 109.999 65.1503C110.51 65.6223 110.915 66.1969 111.189 66.8366C111.203 66.8814 111.207 66.9285 111.203 66.9751C111.198 67.0217 111.185 67.067 111.163 67.1084C111.141 67.1497 111.111 67.1863 111.074 67.216C111.038 67.2457 110.997 67.268 110.952 67.2816C110.924 67.2936 110.893 67.3003 110.863 67.3014Z" fill="#263238"/>
<path d="M99.5969 63.5732C99.5207 63.5669 99.4483 63.537 99.39 63.4875C99.3317 63.438 99.2904 63.3714 99.2719 63.2972C99.2533 63.223 99.2585 63.1448 99.2867 63.0737C99.3148 63.0026 99.3646 62.9421 99.4289 62.9007C99.9152 62.6055 100.465 62.4316 101.033 62.3937C101.6 62.3559 102.169 62.4551 102.69 62.6831C102.732 62.7046 102.77 62.7341 102.801 62.77C102.831 62.806 102.855 62.8477 102.869 62.8926C102.884 62.9376 102.89 62.9851 102.886 63.0323C102.882 63.0795 102.87 63.1255 102.848 63.1677C102.827 63.2099 102.797 63.2475 102.761 63.2783C102.725 63.3091 102.684 63.3325 102.639 63.3472C102.594 63.3619 102.546 63.3675 102.499 63.3639C102.452 63.3602 102.406 63.3474 102.364 63.3259C101.95 63.1486 101.499 63.074 101.05 63.1085C100.601 63.1429 100.167 63.2853 99.7846 63.5237C99.727 63.5552 99.6625 63.5721 99.5969 63.5732Z" fill="#263238"/>
<path d="M107.542 67.0738L106.169 66.4113C106.169 66.4113 106.722 67.6672 107.542 67.0738Z" fill="#263238"/>
<path d="M103.372 74.6094C105.886 74.0865 108.444 73.8083 111.011 73.7787C110.428 75.5093 109.262 76.9531 106.366 77.0619C106.006 77.1116 105.64 77.0864 105.291 76.9879C104.941 76.8894 104.615 76.7197 104.334 76.4895C104.053 76.2593 103.823 75.9735 103.657 75.6499C103.491 75.3264 103.394 74.9722 103.372 74.6094Z" fill="#263238"/>
<path d="M107.641 75.6674C106.528 75.6587 105.441 76.0051 104.538 76.6563C105.088 76.9854 105.727 77.1341 106.366 77.0816C107.479 77.0903 108.566 76.7439 109.469 76.0927C108.922 75.7565 108.28 75.6073 107.641 75.6674Z" fill="#A02724"/>
<path d="M103.629 74.55C103.696 74.7556 103.818 74.9389 103.982 75.08C104.146 75.2212 104.345 75.3149 104.558 75.351C106.22 75.2626 107.873 75.0377 109.499 74.6786C109.763 74.6462 110.015 74.5477 110.231 74.3921C110.447 74.2365 110.62 74.029 110.734 73.7886C108.35 73.8572 105.974 74.1118 103.629 74.55Z" fill="white"/>
<path d="M99.4289 62.9006C101.678 61.9476 103.635 60.4156 105.101 58.4604C105.101 58.4604 105.101 63.7214 107.246 63.316C109.39 62.9105 106.169 58.4506 106.169 58.4506C106.169 58.4506 111.11 60.6459 112.8 64.9378C114.49 69.2296 116.417 73.9171 120.221 72.7502C124.026 71.5833 123.186 59.4197 117.583 56.3837L109.677 54.9597L107.345 55.3058C106.134 55.4783 104.972 55.9028 103.935 56.5519C102.372 57.5113 101.143 58.9309 100.417 60.6163L99.4289 62.9006Z" fill="#263238"/>
<path d="M117.879 63.5336C117.514 62.7622 115.764 62.8315 113.926 63.6819C112.088 64.5324 112.059 65.3334 112.424 66.1047C112.79 66.8761 113.412 67.3211 115.251 66.4706C117.089 65.6202 118.245 64.3049 117.879 63.5336ZM113.64 65.5114C113.383 64.9576 113.432 64.3939 114.717 63.7808C116.002 63.1677 117.257 63.1281 117.514 63.6819C117.771 64.2357 116.95 65.1752 115.666 65.7784C114.381 66.3816 113.907 66.0948 113.64 65.541V65.5114Z" fill="#4267B2"/>
<path opacity="0.2" d="M127.653 102.319L125.33 100.341L123.611 101.122C123.014 107.209 124.563 113.313 127.989 118.378C128.137 115.085 128.443 111.377 128.977 106.947C128.246 104.277 127.653 102.319 127.653 102.319Z" fill="#1F1F1F"/>
<path d="M158.96 126.418L157.705 126.547L157.112 120.88C156.933 118.996 157.474 117.113 158.625 115.611C159.776 114.108 161.453 113.097 163.318 112.781C164.22 112.629 165.144 112.664 166.031 112.885C166.919 113.105 167.752 113.506 168.477 114.063C169.203 114.62 169.807 115.32 170.251 116.12C170.694 116.921 170.968 117.804 171.056 118.715L171.659 124.381L170.404 124.52L169.811 118.843C169.739 118.101 169.515 117.381 169.155 116.728C168.795 116.075 168.305 115.503 167.716 115.046C167.126 114.591 166.448 114.264 165.725 114.083C165.002 113.903 164.25 113.874 163.516 113.998C161.968 114.26 160.576 115.1 159.621 116.347C158.666 117.595 158.218 119.158 158.367 120.722L158.96 126.418Z" fill="#263238"/>
<path d="M135.667 101.053C135.845 101.903 136.082 102.951 136.31 103.911C136.537 104.87 136.804 105.888 137.081 106.877C137.634 108.855 138.217 110.764 138.919 112.633C140.182 116.273 141.977 119.705 144.245 122.819L144.453 123.086L144.552 123.224L144.433 123.105C144.275 122.967 144.09 122.863 143.89 122.799C143.593 122.72 143.603 122.799 143.801 122.799C144.501 122.762 145.191 122.615 145.846 122.364C147.676 121.695 149.447 120.878 151.143 119.921C154.731 117.943 158.357 115.689 161.866 113.404L164.603 116.628C161.526 119.829 158.18 122.76 154.602 125.39C152.705 126.791 150.68 128.009 148.554 129.029C147.244 129.658 145.843 130.079 144.403 130.275C143.3 130.411 142.181 130.289 141.132 129.919C140.433 129.659 139.79 129.27 139.235 128.772C139.097 128.643 138.948 128.505 138.83 128.376L138.672 128.208L138.355 127.862C136.728 126.062 135.303 124.089 134.106 121.978C132.938 119.961 131.918 117.863 131.052 115.698C130.202 113.559 129.464 111.377 128.839 109.162C128.532 108.074 128.246 106.976 127.989 105.869C127.732 104.761 127.495 103.683 127.297 102.417L135.667 101.053Z" fill="#B55B52"/>
<path d="M131.033 92.1525C134.165 92.8645 139.65 104.197 139.65 104.197L127.337 112.554C127.337 112.554 122.395 104.039 123.384 99.9748C124.392 95.762 127.455 91.3614 131.033 92.1525Z" fill="#4267B2"/>
<path d="M161.352 113.355L168.506 109.399L167.004 116.944C167.004 116.944 162.379 118.418 160.087 116.223L161.352 113.355Z" fill="#B55B52"/>
<path d="M174.782 110.418L173.181 116.677L167.004 116.954L168.507 109.409L174.782 110.418Z" fill="#B55B52"/>
<path d="M177.786 123.432L176.6 117.854C176.26 116.321 175.352 114.973 174.06 114.082C172.768 113.19 171.186 112.821 169.633 113.048C168.895 113.157 168.187 113.416 167.554 113.811C166.921 114.206 166.376 114.728 165.954 115.344C165.532 115.959 165.241 116.655 165.1 117.389C164.96 118.122 164.972 118.876 165.137 119.605L166.322 125.182L165.097 125.449L163.911 119.872C163.71 118.977 163.695 118.05 163.868 117.149C164.041 116.248 164.397 115.392 164.916 114.636C165.435 113.879 166.104 113.238 166.881 112.752C167.659 112.266 168.528 111.946 169.435 111.812C171.307 111.537 173.213 111.98 174.771 113.054C176.329 114.127 177.424 115.75 177.835 117.597L179.021 123.175L177.786 123.432Z" fill="#263238"/>
<g opacity="0.3">
<path d="M177.786 123.432L176.6 117.854C176.26 116.321 175.352 114.973 174.06 114.082C172.768 113.19 171.186 112.821 169.633 113.048C168.895 113.157 168.187 113.416 167.554 113.811C166.921 114.206 166.376 114.728 165.954 115.344C165.532 115.959 165.241 116.655 165.1 117.389C164.96 118.122 164.972 118.876 165.137 119.605L166.322 125.182L165.097 125.449L163.911 119.872C163.71 118.977 163.695 118.05 163.868 117.149C164.041 116.248 164.397 115.392 164.916 114.636C165.435 113.879 166.104 113.238 166.881 112.752C167.659 112.266 168.528 111.946 169.435 111.812C171.307 111.537 173.213 111.98 174.771 113.054C176.329 114.127 177.424 115.75 177.835 117.597L179.021 123.175L177.786 123.432Z" fill="white"/>
</g>
<path d="M185.158 119.703L148.505 125.508L154.147 169.218L159.385 167.112L165.018 167.497L193.282 163.018L185.158 119.703Z" fill="#4267B2"/>
<path opacity="0.75" d="M185.158 119.703L148.505 125.508L154.147 169.218L159.385 167.112L165.018 167.497L193.282 163.018L185.158 119.703Z" fill="#4267B2"/>
<path d="M165.018 167.497L159.385 167.112L154.147 169.218L148.505 125.508L156.885 124.183L165.018 167.497Z" fill="#4267B2"/>
<path d="M165.018 167.497L159.385 167.112L154.147 169.218L148.505 125.508L156.885 124.183L165.018 167.497Z" fill="#D2832D"/>
<path d="M181.557 138.532L166.399 140.934C165.585 141.063 165.029 141.828 165.158 142.642L165.18 142.779C165.309 143.594 166.073 144.149 166.887 144.02L182.046 141.618C182.86 141.489 183.415 140.724 183.286 139.91L183.264 139.773C183.136 138.958 182.371 138.403 181.557 138.532Z" fill="white"/>
</g>
<defs>
<clipPath id="clip0_98_2104">
<rect width="350" height="326" fill="white"/>
</clipPath>
</defs>
</svg>
